<svg width="1920" height="530" viewBox="0 0 1920 530" fill="none" xmlns="http://www.w3.org/2000/svg">
<g opacity="0.6">
<rect opacity="0.08" x="-0.610107" width="1920" height="450" fill="url(#paint0_linear_901_1203)"/>
<rect opacity="0.35" x="-0.610107" width="1920" height="420" fill="url(#paint1_linear_901_1203)"/>
<g opacity="0.5">
<path opacity="0.15" d="M1895.1 224.35C1872.02 224.35 1852.44 239.28 1845.45 260C1841.52 257.43 1836.84 255.94 1831.8 255.94C1819.95 255.94 1810.04 264.19 1807.47 275.25C1801.33 271.27 1794.01 268.96 1786.15 268.96C1764.45 268.96 1746.86 286.55 1746.86 308.25C1746.86 312.63 1747.59 316.84 1748.91 320.77C1748.58 320.83 1748.26 320.89 1747.94 320.96C1738.59 314.31 1727.16 310.39 1714.82 310.39C1693.25 310.39 1674.47 322.33 1664.71 339.96C1654.87 331.19 1641.36 327.55 1628.39 329.89C1628.27 329.91 1627.98 329.99 1627.62 330.1C1619.92 330.2 1612.86 332.94 1607.33 337.49C1601.48 315.49 1581.43 299.28 1557.59 299.28C1551.15 299.28 1544.99 300.47 1539.31 302.63C1537.16 293.57 1529.04 286.82 1519.31 286.82C1511.74 286.82 1505.14 290.93 1501.57 297.02C1493.57 278.97 1475.51 266.38 1454.5 266.38C1434.3 266.38 1416.83 278.02 1408.4 294.95C1407.85 294.69 1407.29 294.44 1406.72 294.2C1398.17 278.55 1379.48 270.64 1361.86 276.29C1356.26 278.08 1351.4 281.09 1347.4 284.87C1332.07 269.13 1308.62 262.44 1286.27 269.6C1263.02 277.05 1247.51 297.38 1245.05 320.18C1238.94 314.7 1230.18 312.5 1221.81 315.18C1211.05 318.63 1204.46 328.97 1205.29 339.76C1205.06 339.75 1204.82 339.76 1204.59 339.75C1194.04 321.66 1174.46 309.48 1152.01 309.48C1138.88 309.48 1126.73 313.65 1116.78 320.73C1116.44 320.66 1116.09 320.59 1115.75 320.52C1117.16 316.34 1117.93 311.86 1117.93 307.2C1117.93 284.12 1099.22 265.41 1076.14 265.41C1067.78 265.41 1060 267.87 1053.47 272.1C1050.73 260.33 1040.19 251.57 1027.59 251.57C1022.23 251.57 1017.25 253.16 1013.07 255.89C1005.63 233.88 984.81 218 960.27 218C960.16 218 960.05 218.01 959.94 218.01C959.83 218.01 959.72 218 959.61 218C935.07 218 914.25 233.88 906.82 255.91C902.64 253.18 897.66 251.59 892.3 251.59C879.7 251.59 869.16 260.36 866.42 272.12C859.89 267.89 852.11 265.43 843.75 265.43C820.67 265.43 801.96 284.14 801.96 307.22C801.96 311.88 802.73 316.36 804.14 320.54C803.79 320.6 803.45 320.67 803.11 320.75C793.17 313.68 781.01 309.5 767.88 309.5C745.42 309.5 725.85 321.68 715.3 339.77C715.07 339.78 714.83 339.76 714.6 339.78C715.44 328.99 708.84 318.64 698.08 315.2C689.7 312.52 680.95 314.72 674.84 320.2C672.38 297.4 656.87 277.07 633.62 269.62C611.27 262.46 587.82 269.14 572.49 284.89C568.49 281.1 563.63 278.1 558.03 276.31C540.41 270.67 521.72 278.57 513.17 294.22C512.6 294.45 512.05 294.7 511.49 294.97C503.06 278.04 485.59 266.4 465.39 266.4C444.38 266.4 426.32 279 418.32 297.04C414.75 290.94 408.15 286.84 400.58 286.84C390.86 286.84 382.73 293.59 380.58 302.65C374.9 300.49 368.74 299.3 362.3 299.3C338.46 299.3 318.41 315.51 312.56 337.51C307.03 332.96 299.97 330.23 292.27 330.12C291.91 330.01 291.62 329.94 291.5 329.91C278.54 327.57 265.03 331.21 255.18 339.98C245.43 322.35 226.65 310.41 205.07 310.41C192.72 310.41 181.3 314.33 171.95 320.98C171.63 320.91 171.3 320.84 170.98 320.79C172.3 316.86 173.03 312.65 173.03 308.27C173.03 286.57 155.44 268.98 133.74 268.98C125.88 268.98 118.56 271.3 112.42 275.27C109.84 264.21 99.9299 255.96 88.0899 255.96C83.0499 255.96 78.3599 257.46 74.4399 260.02C67.4399 239.28 47.8599 224.35 24.7799 224.35C-4.15011 224.35 -27.6101 247.81 -27.6101 276.74V513.42H904.55H1015.33H1947.49V276.74C1947.49 247.81 1924.04 224.35 1895.1 224.35Z" fill="url(#paint2_linear_901_1203)"/>
<path opacity="0.24" d="M50.5002 320.22C78.7302 320.22 101.61 343.1 101.61 371.33C101.61 377.9 100.36 384.18 98.1002 389.95C101.32 390.28 104.43 390.98 107.4 392C106.8 390.05 106.48 387.98 106.48 385.84C106.48 374.28 115.85 364.91 127.41 364.91C138.97 364.91 148.34 374.28 148.34 385.84C148.34 390.85 146.57 395.45 143.63 399.06C145.15 398.76 146.72 398.59 148.34 398.59C161.51 398.59 172.2 409.27 172.2 422.44C172.2 425.33 171.69 428.1 170.74 430.66C171.22 430.64 171.71 430.62 172.2 430.62C185.06 430.62 196.37 437.28 202.87 447.34C208.12 440.44 216.41 435.98 225.75 435.98C233.77 435.98 241.03 439.27 246.24 444.58C245.27 441.9 244.74 439 244.74 435.98C244.74 422 256.08 410.66 270.06 410.66C284.04 410.66 295.37 421.99 295.37 435.98C295.37 436.42 295.35 436.85 295.33 437.28C298.81 435.42 302.67 434.33 306.75 434.33C312.77 434.33 318.33 436.28 322.85 439.56C323.88 438 325.02 436.51 326.25 435.11C326.23 434.46 326.16 433.83 326.16 433.18C326.16 402.77 350.81 378.12 381.23 378.12C391.65 378.12 401.4 381.02 409.7 386.05C418.7 367.9 437.41 355.42 459.05 355.42C462.29 355.42 465.47 355.72 468.56 356.26C471.51 344.22 482.33 335.28 495.27 335.28C510.47 335.28 522.8 347.61 522.8 362.81C522.8 365.08 522.5 367.28 521.98 369.39C526.78 365.3 533 362.81 539.81 362.81C546.76 362.81 553.1 365.41 557.94 369.66C571.54 348.96 594.95 335.27 621.58 335.27C663.61 335.27 697.68 369.34 697.68 411.37C697.68 413.9 697.55 416.4 697.31 418.86C700.79 418.17 704.4 417.8 708.08 417.8C723.08 417.8 736.65 423.83 746.58 433.56C747.82 420.73 758.5 410.67 771.65 410.67C785.63 410.67 796.97 422 796.97 435.99C796.97 439.01 796.44 441.9 795.47 444.59C800.68 439.29 807.93 435.99 815.96 435.99C825.3 435.99 833.59 440.45 838.84 447.35C845.34 437.29 856.65 430.63 869.51 430.63C870 430.63 870.48 430.65 870.97 430.67C870.03 428.11 869.51 425.34 869.51 422.45C869.51 409.28 880.19 398.6 893.37 398.6C894.98 398.6 896.56 398.76 898.08 399.07C895.14 395.47 893.37 390.87 893.37 385.85C893.37 374.29 902.74 364.92 914.3 364.92C921.46 364.92 927.77 368.51 931.54 373.99V371.35C931.54 343.12 954.43 320.24 982.65 320.24C984.09 320.24 985.51 320.31 986.93 320.43C988.34 320.31 989.76 320.24 991.21 320.24C1019.44 320.24 1042.32 343.12 1042.32 371.35V373.99C1046.1 368.51 1052.41 364.92 1059.56 364.92C1071.12 364.92 1080.49 374.29 1080.49 385.85C1080.49 390.86 1078.72 395.46 1075.78 399.07C1077.3 398.77 1078.87 398.6 1080.49 398.6C1093.66 398.6 1104.35 409.28 1104.35 422.45C1104.35 425.34 1103.84 428.11 1102.89 430.67C1103.37 430.65 1103.86 430.63 1104.35 430.63C1117.21 430.63 1128.52 437.29 1135.02 447.35C1140.26 440.45 1148.56 435.99 1157.9 435.99C1165.92 435.99 1173.18 439.28 1178.39 444.59C1177.42 441.91 1176.89 439.01 1176.89 435.99C1176.89 422.01 1188.23 410.67 1202.21 410.67C1215.36 410.67 1226.04 420.73 1227.28 433.56C1237.21 423.83 1250.78 417.8 1265.78 417.8C1269.47 417.8 1273.07 418.17 1276.55 418.86C1276.31 416.39 1276.18 413.9 1276.18 411.37C1276.18 369.34 1310.25 335.27 1352.28 335.27C1378.9 335.27 1402.32 348.95 1415.92 369.66C1420.77 365.41 1427.1 362.81 1434.05 362.81C1440.86 362.81 1447.08 365.29 1451.88 369.39C1451.36 367.28 1451.06 365.08 1451.06 362.81C1451.06 347.6 1463.39 335.28 1478.59 335.28C1491.53 335.28 1502.36 344.22 1505.3 356.26C1508.39 355.72 1511.57 355.42 1514.81 355.42C1536.45 355.42 1555.16 367.9 1564.16 386.05C1572.47 381.02 1582.21 378.12 1592.63 378.12C1623.04 378.12 1647.7 402.77 1647.7 433.18C1647.7 433.83 1647.63 434.47 1647.61 435.11C1648.85 436.51 1649.98 437.99 1651.01 439.56C1655.54 436.27 1661.09 434.33 1667.11 434.33C1671.19 434.33 1675.05 435.42 1678.53 437.28C1678.51 436.85 1678.49 436.42 1678.49 435.98C1678.49 422 1689.82 410.66 1703.8 410.66C1717.78 410.66 1729.12 421.99 1729.12 435.98C1729.12 439 1728.59 441.89 1727.62 444.58C1732.83 439.28 1740.08 435.98 1748.11 435.98C1757.45 435.98 1765.74 440.44 1770.99 447.34C1777.49 437.28 1788.8 430.62 1801.66 430.62C1802.15 430.62 1802.63 430.64 1803.12 430.66C1802.18 428.1 1801.66 425.33 1801.66 422.44C1801.66 409.27 1812.34 398.59 1825.52 398.59C1827.13 398.59 1828.7 398.75 1830.23 399.06C1827.29 395.46 1825.52 390.86 1825.52 385.84C1825.52 374.28 1834.89 364.91 1846.45 364.91C1858.01 364.91 1867.38 374.28 1867.38 385.84C1867.38 387.98 1867.06 390.05 1866.46 392C1869.43 390.98 1872.54 390.28 1875.76 389.95C1873.5 384.18 1872.25 377.9 1872.25 371.33C1872.25 343.1 1895.13 320.22 1923.36 320.22C1951.6 320.22 1974.49 343.1 1974.49 371.33V529.42H1042.33H931.55H-0.609741V371.33C-0.609741 343.1 22.2703 320.22 50.5002 320.22Z" fill="url(#paint3_linear_901_1203)"/>
</g>
</g>
<defs>
<linearGradient id="paint0_linear_901_1203" x1="959.39" y1="0" x2="959.39" y2="450" gradientUnits="userSpaceOnUse">
<stop stop-color="#009A41"/>
<stop offset="1" stop-color="white" stop-opacity="0"/>
</linearGradient>
<linearGradient id="paint1_linear_901_1203" x1="959.39" y1="0" x2="959.39" y2="420" gradientUnits="userSpaceOnUse">
<stop stop-color="white" stop-opacity="0"/>
<stop offset="1" stop-color="#0ABF53"/>
</linearGradient>
<linearGradient id="paint2_linear_901_1203" x1="959.942" y1="222.583" x2="959.942" y2="482.723" gradientUnits="userSpaceOnUse">
<stop stop-color="#00C44F"/>
<stop offset="1" stop-color="white" stop-opacity="0"/>
</linearGradient>
<linearGradient id="paint3_linear_901_1203" x1="986.938" y1="321.306" x2="986.938" y2="540.347" gradientUnits="userSpaceOnUse">
<stop stop-color="#00CF54"/>
<stop offset="1" stop-color="white" stop-opacity="0"/>
</linearGradient>
</defs>
</svg>
