<svg width="599" height="414" viewBox="0 0 599 414" fill="none" xmlns="http://www.w3.org/2000/svg">
<path d="M527.501 386.69L187.723 386.088C174.858 386.064 164.432 375.642 164.455 362.81L550.815 363.481C550.839 376.313 540.389 386.713 527.501 386.69Z" fill="#3C6ADE"/>
<path d="M527.526 378.674L187.748 378.072C177.693 378.049 169.171 371.679 165.92 362.785H164.48C164.457 375.617 174.86 386.04 187.748 386.063L527.526 386.665C540.39 386.688 550.84 376.312 550.863 363.457H549.424C546.126 372.351 537.581 378.697 527.526 378.674Z" fill="#578CEA"/>
<path d="M379.603 370.961L335.714 370.892C331.395 370.892 327.911 367.394 327.935 363.109L387.428 363.225C387.405 367.487 383.899 370.961 379.603 370.961Z" fill="#3259AA"/>
<path d="M530.961 363.434L184.356 362.832L184.728 154.166C184.751 142.191 194.504 132.509 206.486 132.533L509.62 133.065C521.626 133.088 531.332 142.816 531.309 154.768L530.961 363.434Z" fill="#2A4A78"/>
<path d="M513.103 150.83H202.608V345.113H513.103V150.83Z" fill="#E8EEFF"/>
<path d="M311.731 291.272C290.341 291.272 271.761 303.236 262.311 320.809C257.884 318.344 252.797 316.942 247.391 316.942C234.557 316.942 223.575 324.783 218.978 335.939C217.339 335.599 215.636 335.408 213.891 335.408C200.269 335.408 189.244 346.436 189.244 360.015C189.244 373.615 200.291 384.622 213.891 384.622C221.872 384.622 228.938 380.818 233.45 374.953C237.643 377.078 242.368 378.29 247.391 378.29C252.946 378.29 258.139 376.802 262.652 374.231C272.208 391.486 290.597 403.173 311.731 403.173C342.678 403.173 367.792 378.12 367.792 347.201C367.771 316.325 342.678 291.272 311.731 291.272Z" fill="white"/>
<path d="M403.283 291.272C424.673 291.272 443.254 303.236 452.704 320.809C457.131 318.344 462.218 316.942 467.624 316.942C480.458 316.942 491.44 324.783 496.037 335.939C497.676 335.599 499.379 335.408 501.124 335.408C514.746 335.408 525.771 346.436 525.771 360.015C525.771 373.615 514.724 384.622 501.124 384.622C493.143 384.622 486.077 380.818 481.565 374.953C477.372 377.078 472.647 378.29 467.624 378.29C462.069 378.29 456.876 376.802 452.363 374.231C442.807 391.486 424.418 403.173 403.283 403.173C372.337 403.173 347.222 378.12 347.222 347.201C347.244 316.325 372.337 291.272 403.283 291.272Z" fill="white"/>
<path d="M385.176 251.307H224.39C221.882 251.307 219.862 249.292 219.862 246.79V200.258C219.862 197.756 221.882 195.741 224.39 195.741H385.176C387.684 195.741 389.704 197.756 389.704 200.258V246.79C389.704 249.292 387.684 251.307 385.176 251.307Z" stroke="#D5B2B2" stroke-width="0.4983" stroke-miterlimit="10"/>
<path d="M235.815 214.687H331.325" stroke="white" stroke-width="0.4758" stroke-miterlimit="10"/>
<path d="M235.815 232.383H288.366" stroke="white" stroke-width="0.4758" stroke-miterlimit="10"/>
<path d="M481.824 232.314H416.037C413.53 232.314 411.509 230.299 411.509 227.797V177.768C411.509 175.266 413.53 173.251 416.037 173.251H481.824C484.332 173.251 486.352 175.266 486.352 177.768V227.797C486.352 230.299 484.332 232.314 481.824 232.314Z" stroke="white" stroke-width="0.4758" stroke-miterlimit="10"/>
<path d="M230.544 170.564C230.544 173.089 228.5 175.127 225.969 175.127C223.438 175.127 221.394 173.089 221.394 170.564C221.394 168.04 223.438 166.001 225.969 166.001C228.5 166.001 230.544 168.04 230.544 170.564Z" fill="#3C6BE0"/>
<path d="M245.754 170.564C245.754 173.089 243.71 175.127 241.179 175.127C238.648 175.127 236.604 173.089 236.604 170.564C236.604 168.04 238.648 166.001 241.179 166.001C243.71 166.001 245.754 168.04 245.754 170.564Z" fill="#DF7246"/>
<path d="M256.389 175.127C258.916 175.127 260.964 173.084 260.964 170.564C260.964 168.044 258.916 166.001 256.389 166.001C253.863 166.001 251.815 168.044 251.815 170.564C251.815 173.084 253.863 175.127 256.389 175.127Z" stroke="#D5B2B2" stroke-width="0.4983" stroke-miterlimit="10"/>
<path d="M370.663 181.451L357.032 162.087L343.401 181.451C343.401 181.451 350.622 240.815 336.852 311.922H357.032H377.211C363.441 240.815 370.663 181.451 370.663 181.451Z" fill="white"/>
<path d="M321.224 122.249L292.545 154.166C289.828 157.177 288.784 161.346 289.736 165.307L301.811 215.29C302.298 217.282 304.272 218.533 306.293 218.093C307.872 217.745 309.056 216.471 309.242 214.873C310.38 205.122 315.674 171.19 334.182 161.439L321.224 122.249Z" fill="#3C6ADE"/>
<path d="M393.443 122.249L422.122 154.166C424.839 157.177 425.884 161.346 424.931 165.307L412.856 215.29C412.369 217.282 410.395 218.533 408.374 218.093C406.795 217.745 405.611 216.471 405.425 214.873C404.264 205.122 398.993 171.19 380.485 161.439L393.443 122.249Z" fill="#3C6ADE"/>
<path d="M317.114 104.46C317.184 109.486 318.136 143.303 330.536 169.476C331.511 171.537 333.578 172.904 335.877 172.904H356.08H357.008H377.211C379.51 172.904 381.577 171.56 382.552 169.476C394.813 143.581 395.881 110.251 395.974 104.645C395.974 104.136 395.974 103.626 395.951 103.117C394.535 79.1441 390.285 59.7344 385.06 44.3086H328.005C322.78 59.7576 318.53 79.2136 317.114 103.233C317.114 103.626 317.091 104.043 317.114 104.46Z" fill="#D3E8FD"/>
<path d="M362.976 129.22L395.997 165.492L380.509 182.354H361.49L362.976 129.22Z" fill="#C5DFF5"/>
<path d="M348.672 3.8912C342.774 11.6504 334.623 24.7601 328.005 44.3088H385.06C378.442 24.7601 370.291 11.6504 364.393 3.8912C360.468 -1.29707 352.619 -1.29707 348.672 3.8912Z" fill="#3C6ADE"/>
<path d="M356.544 109.486C368.227 109.486 377.699 100.039 377.699 88.386C377.699 76.7325 368.227 67.2855 356.544 67.2855C344.86 67.2855 335.389 76.7325 335.389 88.386C335.389 100.039 344.86 109.486 356.544 109.486Z" fill="#3C6ADE"/>
<path d="M356.126 104.229C364.898 104.229 372.01 97.1357 372.01 88.386C372.01 79.6363 364.898 72.5433 356.126 72.5433C347.354 72.5433 340.243 79.6363 340.243 88.386C340.243 97.1357 347.354 104.229 356.126 104.229Z" fill="#EAC140"/>
<path d="M340.962 92.9951C340.962 92.9951 350.042 94.4543 355.406 85.4675C359.052 79.3527 356.173 72.5894 356.173 72.5894C356.173 72.5894 346.628 72.2188 341.822 81.6457C341.798 81.6226 338.965 86.4403 340.962 92.9951Z" fill="white"/>
<path d="M371.684 182.354H341.566C337.479 182.354 334.158 179.042 334.158 174.965V172.904H379.092V174.965C379.092 179.042 375.771 182.354 371.684 182.354Z" fill="#578CEA"/>
<path d="M360.329 222.841H352.666L350.111 129.22H362.976L360.329 222.841Z" fill="#3C6ADE"/>
<path d="M203.086 412.746H513.791" stroke="#262127" stroke-width="0.2629" stroke-miterlimit="10"/>
<path d="M0 386.503H597.792" stroke="#262127" stroke-width="0.2653" stroke-miterlimit="10"/>
<path d="M243.501 68.7217H218.422C217.145 68.7217 216.1 69.764 216.1 71.0843V85.1667C216.1 86.4638 217.145 87.5292 218.422 87.5292H228.639L237.231 97.0951V87.8767L243.548 87.7377C244.825 87.7145 245.823 86.6722 245.823 85.3752V71.0843C245.823 69.7872 244.778 68.7217 243.501 68.7217Z" stroke="#D3AFAF" stroke-width="0.4231" stroke-miterlimit="10"/>
<path d="M569.442 185.643C569.442 189.557 566.307 192.731 562.429 192.731C558.551 192.731 555.417 189.557 555.417 185.643C555.417 181.729 558.551 178.555 562.429 178.555C566.307 178.555 569.442 181.729 569.442 185.643Z" stroke="#D3AFAF" stroke-width="0.4679" stroke-miterlimit="10"/>
<path d="M32.3244 269.883C32.3244 272.732 30.0487 275.048 27.2157 275.048C24.4059 275.048 22.1069 272.732 22.1069 269.883C22.1069 267.034 24.3826 264.718 27.2157 264.718C30.0487 264.718 32.3244 267.034 32.3244 269.883Z" stroke="#D3AFAF" stroke-width="0.4679" stroke-miterlimit="10"/>
<path d="M449.662 22.7683H439.05V33.4923H449.662V22.7683Z" stroke="#D3AFAF" stroke-width="0.4679" stroke-miterlimit="10"/>
<path opacity="0.6" fill-rule="evenodd" clip-rule="evenodd" d="M92.409 100.261H60.7442C58.5614 100.261 56.7733 98.5002 56.7733 96.2998V61.5569C56.7733 59.3797 58.5614 57.5963 60.7442 57.5963H95.2514C97.4343 57.5963 99.2223 59.3797 99.2223 61.5569V93.3813H99.2224V108.251L92.409 100.261Z" fill="#FE5A4E"/>
<path d="M87.147 73.1147C84.9874 71.007 81.5042 71.0301 79.391 73.2074L77.9977 74.6202L76.558 73.2074C74.3984 71.0765 70.9384 71.1228 68.802 73.2769C66.6889 75.4309 66.7121 78.882 68.8717 81.0129L74.2126 86.2475C74.2126 86.2475 74.2359 86.2707 74.2359 86.2939C75.0951 87.1277 76.14 87.6141 77.2314 87.7994C78.9266 88.0542 80.6915 87.5214 81.9919 86.2244L87.2399 80.874C89.3531 78.6967 89.3066 75.2225 87.147 73.1147Z" fill="white"/>
<path d="M502.169 93.3075C518.662 93.3075 532.032 79.9717 532.032 63.5212C532.032 47.0707 518.662 33.735 502.169 33.735C485.676 33.735 472.306 47.0707 472.306 63.5212C472.306 79.9717 485.676 93.3075 502.169 93.3075Z" fill="#EAC140"/>
<path d="M497.154 74.06C502.332 74.1526 507.557 74.2221 512.317 73.8978C513.827 73.8052 515.127 71.3964 513.293 70.6552C514.059 70.2614 514.848 69.8908 515.174 69.0107C515.499 68.2 515.104 67.0882 514.268 66.8798C516.056 67.3199 516.776 64.4941 515.359 63.5676C516.102 62.9422 516.706 62.1084 516.869 61.1588C517.031 60.2091 516.636 59.1205 515.777 58.6573C515.22 58.3562 514.547 58.333 513.92 58.333C511.76 58.3099 509.624 58.3099 507.464 58.2867C508.044 54.9282 508.23 51.2686 506.512 48.3271C506.001 47.4469 504.608 46.3815 503.516 47.0532C502.495 47.7017 502.773 49.2767 502.82 50.2958C503.029 54.465 500.66 58.6805 496.945 60.6492C496.945 60.6261 497.2 69.5202 497.154 74.06Z" fill="#FDFDFD"/>
<path d="M495.272 60.6262H487.447V74.0369H495.272V60.6262Z" fill="#FDFDFD"/>
<path d="M441.04 263.583H532.556" stroke="#E8EEFF" stroke-width="0.6125" stroke-miterlimit="10"/>
<path d="M441.04 274.261H463.1" stroke="#E8EEFF" stroke-width="0.6125" stroke-miterlimit="10"/>
<path fill-rule="evenodd" clip-rule="evenodd" d="M457.532 291.192H565.809C568.247 291.192 570.221 289.223 570.221 286.791V251.076C570.221 248.644 568.247 246.675 565.809 246.675H428.523C426.085 246.675 424.111 248.644 424.111 251.076V286.791C424.111 289.223 426.085 291.192 428.523 291.192H441.04V306.664L457.532 291.192Z" fill="#BFCCEE"/>
<g clip-path="url(#clip0_901_233)">
<path d="M89.0424 211.739H98.2688L101.351 190.296H87.6643L89.0424 211.739Z" fill="#FDA893"/>
<path d="M107.267 189.661C107.261 189.761 107.254 189.865 107.244 189.965C107.055 192.353 106.977 195.09 105.342 196.918C104.172 198.226 102.38 198.991 100.553 199.231C96.2196 199.798 91.854 197.504 89.3487 194.216C86.8433 190.931 85.9507 186.82 85.8041 182.816C85.6803 179.427 86.1462 175.792 88.5244 173.191C92.4046 168.944 100.885 168.325 104.837 172.705C106.674 174.739 107.095 177.14 107.375 179.842C107.717 183.123 107.495 186.373 107.267 189.661Z" fill="#FDA893"/>
<path opacity="0.15" d="M98.2981 199.27C96.4671 199.341 94.6296 198.716 93.0724 197.74C91.5216 196.749 90.1858 195.392 89.3518 193.775C90.5866 195.103 91.9093 196.279 93.4079 197.216C94.8935 198.168 96.5257 198.858 98.2981 199.27Z" fill="black"/>
<path d="M105.596 165.383C104.27 165.354 103.055 166.086 102.006 166.89C100.953 167.693 99.9499 168.61 98.7021 169.057C96.7962 169.744 94.6981 169.222 92.6913 168.927C90.945 168.671 89.1401 168.6 87.4428 169.08C85.7454 169.559 84.5041 171.642 83.7515 173.23C83.2759 174.237 78.2815 171.649 79.4804 181.086C79.728 183.02 82.9827 188.226 83.7385 189.032C84.4943 189.839 87.0062 192.457 88.0976 192.275C89.9383 191.967 89.619 187.882 90.0458 186.078C90.4694 184.273 90.5866 182.297 91.7139 180.82C92.7597 179.446 94.5189 178.763 96.2424 178.578C97.9658 178.39 99.7023 178.633 101.432 178.76C103.162 178.886 104.951 178.889 106.563 178.254C109.44 177.13 106.967 165.412 105.596 165.383Z" fill="#333333"/>
<path d="M87.6643 186.23C87.2929 185.381 87.2375 184.351 87.7164 183.557C88.1041 182.913 88.8306 182.482 89.5864 182.446C90.3423 182.414 91.1046 182.78 91.5477 183.389C92.0234 184.043 92.1178 184.892 92.1276 185.699C92.1341 186.269 92.1081 186.849 91.9093 187.38C91.5347 188.384 90.5052 188.981 89.4789 188.462C88.7068 188.07 87.9998 186.991 87.6643 186.23Z" fill="#FDA893"/>
<path d="M95.6429 204.171L121.423 229.884L115.125 230.937L132.086 202.729L136.484 205.075L122.244 234.734C121.319 236.661 118.996 237.478 117.057 236.558C116.754 236.412 116.477 236.237 116.23 236.029L115.943 235.786L88.1008 212.296L95.6429 204.171Z" fill="#FDA893"/>
<path d="M131.848 203.306C132.311 201.67 133.301 200.186 134.634 199.121C135.116 200.656 135.634 202.124 136.116 203.659C136.364 204.453 136.575 205.425 136.002 206.027C135.517 206.536 134.663 206.51 134.037 206.186C132.923 205.613 132.304 204.469 131.848 203.306Z" fill="#FDA893"/>
<path d="M137.504 194.938L135.005 195.628L132.506 196.318C133.594 196.539 134.139 198.528 134.402 200.083C134.683 201.735 135.021 203.377 135.474 204.994L135.585 205.392C135.875 206.432 136.895 207.171 137.963 206.986C139.195 206.776 139.941 205.564 139.615 204.398L139.472 203.886C139.019 202.273 138.459 200.689 137.84 199.13C137.253 197.669 136.686 195.687 137.504 194.938Z" fill="url(#paint0_linear_901_233)"/>
<path d="M137.918 195.962L130.311 198.068C129.796 198.21 129.261 197.909 129.118 197.397L126.649 188.569C126.505 188.057 126.808 187.526 127.323 187.383L134.93 185.281L137.918 195.962Z" fill="url(#paint1_linear_901_233)"/>
<path d="M134.927 185.278C134.927 185.278 145.971 179.56 149.105 172.241L156.827 199.846C156.827 199.846 145.229 193.94 137.918 195.962L134.927 185.278Z" fill="url(#paint2_linear_901_233)"/>
<path d="M157.169 184.882C159.299 192.505 159.352 199.15 157.28 199.723C155.208 200.297 151.8 194.582 149.669 186.959C147.535 179.336 147.486 172.692 149.558 172.118C151.63 171.542 155.038 177.26 157.169 184.882Z" fill="url(#paint3_linear_901_233)"/>
<path d="M151.454 189.641L150.252 189.975L148.333 183.12L149.535 182.786C151.438 182.258 153.412 183.366 153.943 185.261C154.474 187.153 153.36 189.117 151.454 189.641Z" fill="url(#paint4_linear_901_233)"/>
<path d="M135.08 202.435C134.972 202.098 134.982 201.728 135.155 201.414C135.083 201.547 134.347 200.151 134.318 199.995C134.223 199.503 134.243 198.972 134.536 198.554C135.174 197.65 136.891 196.885 137.921 197.468C138.247 197.653 138.491 197.948 138.716 198.246C139.367 199.111 139.921 200.076 140.14 201.136C140.358 202.195 140.208 203.361 139.569 204.233C138.928 205.107 137.752 205.613 136.706 205.315C136.282 205.192 135.872 204.919 135.722 204.505C135.572 204.09 135.774 203.546 136.204 203.436C135.666 203.371 135.243 202.94 135.08 202.435Z" fill="#FDA893"/>
<path d="M93.8511 219.527C91.6911 217.742 89.3519 215.617 89.189 212.801C89.0587 210.55 90.3879 208.499 91.7986 206.76C92.9747 205.311 94.3984 203.863 96.2326 203.601C98.6891 203.248 100.872 205.114 102.634 206.889C108.326 212.633 113.545 218.834 118.755 225.028C119.292 225.669 119.862 226.385 119.869 227.224C119.875 227.96 119.449 228.617 119.012 229.204C117.859 230.759 116.533 232.181 115.067 233.435C113.184 235.045 112.568 234.993 110.695 233.444C107.137 230.506 103.583 227.564 100.025 224.623C97.9659 222.928 95.9069 221.228 93.8511 219.527Z" fill="url(#paint5_linear_901_233)"/>
<path d="M71.9742 264.71L67.5369 321.189L36.8539 367.853V367.856L41.0468 370.956L52.2247 357.771L52.2182 357.765L78.4184 326.852L79.1612 325.974L79.5652 324.092L91.7269 267.567L71.9742 264.71Z" fill="#FDA893"/>
<path d="M122.573 382.739L124.179 382.509L122.407 365.352L122.355 364.853L120.755 348.172L119.191 330.983L117.657 313.79L117.627 313.45L117.279 312.397L113.138 299.84C111.766 295.651 110.356 291.476 109.026 287.271C106.322 278.877 103.635 270.473 101.074 262.021L82.5526 269.423C86.5859 277.286 90.4954 285.2 94.3854 293.121C96.3531 297.074 98.2395 301.055 100.165 305.024L105.755 316.605L109 332.46L112.431 349.38L115.607 365.442H115.604L115.78 366.311L118.999 383.257H119.002V383.26L122.573 382.739Z" fill="#FDA893"/>
<path d="M118.514 382.24C118.514 382.24 118.69 383.26 118.908 384.407C119.142 385.658 120.009 386.542 121.006 386.555L132.373 386.717C133.95 386.74 134.78 384.3 133.692 382.823C132.454 381.142 129.75 379.765 123.922 380.733L118.514 382.24Z" fill="#333333"/>
<path d="M36.932 367.875C36.932 367.875 36.3228 368.714 35.6452 369.667C34.9089 370.707 34.8763 371.941 35.5637 372.66L43.386 380.863C44.4709 382.003 46.8068 380.889 47.1098 379.084C47.4551 377.031 46.5592 374.144 41.7929 370.671L36.932 367.875Z" fill="#333333"/>
<path d="M120.924 320.979C120.631 316.077 119.748 311.234 118.338 306.533L118.344 306.53L108.284 271.639L82.4745 273.774L99.4059 311.062L100.569 314.331C101.4 316.663 102.116 319.035 102.722 321.435L116.731 376.927L124.186 375.424L120.924 320.979Z" fill="url(#paint6_linear_901_233)"/>
<path d="M94.1378 271.066L67.8301 271.843L64.797 312.19V318.251C64.797 319.754 64.3833 321.228 63.5981 322.514L39.1475 362.536L45.116 367.879L78.0763 331.883C80.9498 328.744 82.8817 324.869 83.6506 320.694L85.1004 312.841L94.1378 271.066Z" fill="url(#paint7_linear_901_233)"/>
<g opacity="0.15">
<path opacity="0.15" d="M105.303 228.996C104.892 226.9 104.648 224.83 104.407 222.783C104.153 220.755 103.938 218.675 103.478 216.867C102.921 215.004 102.247 212.976 101.69 210.99C101.116 208.988 100.198 206.439 99.8848 204.323C101.351 205.988 102.53 208.444 103.436 210.339C104.332 212.257 105.163 214.12 105.785 216.252C106.345 218.487 106.345 220.602 106.264 222.724C106.153 224.837 105.883 226.936 105.303 228.996Z" fill="black"/>
</g>
<path d="M88.2735 199.788C88.2735 199.788 90.3423 204.44 99.4905 203.096C99.4905 203.096 105.407 215.565 105.254 220.68C105.097 225.799 105.638 240.225 105.638 240.225C105.638 240.225 107.205 263.33 109.004 271.497C109.15 272.158 108.785 272.812 108.147 273.049C103.283 274.85 83.4583 281.261 67.8627 272.718C67.3447 272.436 67.0808 271.84 67.1981 271.263L70.6254 241.475L75.2679 210.125C75.2679 210.125 81.0507 201.625 88.2735 199.788Z" fill="url(#paint8_linear_901_233)"/>
<path d="M45.4026 257.1C45.0247 257.79 44.6435 258.5 44.4024 259.248C44.1385 260.058 44.1385 260.926 44.0213 261.768C43.8909 262.711 43.6075 263.634 43.1905 264.493C42.8745 265.141 42.4705 265.766 41.8906 266.194C41.7309 266.313 41.542 266.417 41.3433 266.407C40.9784 266.388 40.7503 265.98 40.7503 265.617C40.7536 265.254 40.91 264.914 40.9881 264.558C41.0663 264.204 41.0338 263.864 40.7503 263.634C39.8674 264.788 38.9845 265.938 38.1049 267.091C37.7498 267.554 37.3947 268.018 37.0102 268.458C36.818 268.678 36.6062 268.902 36.3293 268.996C36.0524 269.09 35.6908 269.009 35.567 268.743C35.4301 268.452 35.6256 268.121 35.8146 267.862C36.4238 267.013 37.033 266.164 37.6423 265.316C37.8377 265.044 38.4079 264.36 37.8671 264.37C36.9711 265.387 36.0719 266.404 35.176 267.421C34.8372 267.807 34.456 268.215 33.951 268.306C33.6774 268.354 33.3418 268.26 33.2571 267.998C33.1822 267.762 33.3451 267.522 33.5015 267.327C34.4853 266.09 35.4692 264.852 36.4531 263.615C36.5378 263.508 36.6225 263.398 36.6486 263.265C36.6714 263.145 36.616 262.928 36.4662 262.938C36.3586 262.944 36.0622 263.226 35.9775 263.304C35.668 263.586 35.3943 263.916 35.075 264.192C34.456 264.733 33.8142 265.251 33.1366 265.717C32.9541 265.84 32.7684 265.964 32.5534 266.015C32.3384 266.067 32.094 266.038 31.9344 265.886C31.7487 265.708 31.7324 265.403 31.8269 265.163C31.9214 264.924 32.1071 264.729 32.2863 264.545C33.3092 263.492 34.329 262.439 35.352 261.386C35.4301 261.305 35.5637 261.256 35.5898 261.146C35.6158 261.036 35.5377 260.796 35.4269 260.774C34.2801 261.292 33.0779 261.687 31.8464 261.95C31.6835 261.985 31.4881 262.011 31.3675 261.895C31.2698 261.804 31.2568 261.648 31.2991 261.522C31.3447 261.396 31.4359 261.292 31.5304 261.198C32.1006 260.605 32.9346 260.456 33.6872 260.119C34.3876 259.805 34.9968 259.287 35.6615 258.904C36.2544 258.564 36.7529 258.088 37.2904 257.67C38.3069 256.883 39.4797 256.303 40.721 255.969C41.4443 255.775 41.972 255.046 42.5226 254.547C43.5749 255.15 44.6533 256.141 45.4026 257.1Z" fill="#FDA893"/>
<path d="M90.5802 212.477L66.4553 235.582C64.38 237.458 62.6012 239.59 60.6888 241.608L55.0331 247.737L43.702 260.016L39.861 256.847L49.9898 243.419L55.0624 236.697L57.6003 233.334C58.0336 232.78 58.4278 232.194 58.8904 231.669L60.2783 230.095L82.5331 204.848L90.5802 212.477Z" fill="#FDA893"/>
<path d="M77.7374 207.443C79.5358 205.298 81.6762 202.976 84.5106 202.817C86.7748 202.691 88.8371 204.016 90.5834 205.422C92.0364 206.591 93.4927 208.01 93.7533 209.834C94.1019 212.277 92.2253 214.444 90.4335 216.193C84.6507 221.843 78.4053 227.023 72.1664 232.194C71.5213 232.728 70.8013 233.292 69.9542 233.298C69.2147 233.305 68.5533 232.877 67.9637 232.443C66.4031 231.293 64.9761 229.971 63.7153 228.51C62.0994 226.638 62.1515 226.022 63.7121 224.163C66.6735 220.632 69.635 217.1 72.5997 213.569C74.3101 211.528 76.0237 209.487 77.7374 207.443Z" fill="url(#paint9_linear_901_233)"/>
</g>
<defs>
<linearGradient id="paint0_linear_901_233" x1="132.503" y1="200.979" x2="139.688" y2="200.979" gradientUnits="userSpaceOnUse">
<stop stop-color="#595B68"/>
<stop offset="0.5384" stop-color="#38404E"/>
<stop offset="1" stop-color="#202D3B"/>
</linearGradient>
<linearGradient id="paint1_linear_901_233" x1="126.61" y1="191.689" x2="137.916" y2="191.689" gradientUnits="userSpaceOnUse">
<stop stop-color="#595B68"/>
<stop offset="0.5384" stop-color="#38404E"/>
<stop offset="1" stop-color="#202D3B"/>
</linearGradient>
<linearGradient id="paint2_linear_901_233" x1="134.927" y1="186.044" x2="156.827" y2="186.044" gradientUnits="userSpaceOnUse">
<stop stop-color="#FCEE99"/>
<stop offset="0.6107" stop-color="#FDC182"/>
<stop offset="1" stop-color="#FEA975"/>
</linearGradient>
<linearGradient id="paint3_linear_901_233" x1="148.037" y1="185.918" x2="158.801" y2="185.918" gradientUnits="userSpaceOnUse">
<stop stop-color="#FCEE99"/>
<stop offset="0.6107" stop-color="#FDC182"/>
<stop offset="1" stop-color="#FEA975"/>
</linearGradient>
<linearGradient id="paint4_linear_901_233" x1="148.334" y1="186.314" x2="154.076" y2="186.314" gradientUnits="userSpaceOnUse">
<stop stop-color="#595B68"/>
<stop offset="0.5384" stop-color="#38404E"/>
<stop offset="1" stop-color="#202D3B"/>
</linearGradient>
<linearGradient id="paint5_linear_901_233" x1="171.388" y1="257.206" x2="72.7723" y2="199.702" gradientUnits="userSpaceOnUse">
<stop stop-color="#60CDF9"/>
<stop offset="0.4183" stop-color="#5C9FED"/>
<stop offset="1" stop-color="#565ADB"/>
</linearGradient>
<linearGradient id="paint6_linear_901_233" x1="161.111" y1="366.379" x2="58.5596" y2="276.556" gradientUnits="userSpaceOnUse">
<stop stop-color="#595B68"/>
<stop offset="0.0385" stop-color="#545764"/>
<stop offset="0.2352" stop-color="#3D4452"/>
<stop offset="0.4478" stop-color="#2D3745"/>
<stop offset="0.6855" stop-color="#232F3D"/>
<stop offset="1" stop-color="#202D3B"/>
</linearGradient>
<linearGradient id="paint7_linear_901_233" x1="114.797" y1="351.232" x2="32.8314" y2="292.949" gradientUnits="userSpaceOnUse">
<stop stop-color="#595B68"/>
<stop offset="0.1917" stop-color="#464C59"/>
<stop offset="0.4697" stop-color="#313B48"/>
<stop offset="0.742" stop-color="#24303E"/>
<stop offset="1" stop-color="#202D3B"/>
</linearGradient>
<linearGradient id="paint8_linear_901_233" x1="146.588" y1="263.613" x2="37.0657" y2="218.555" gradientUnits="userSpaceOnUse">
<stop stop-color="#60CDF9"/>
<stop offset="0.2339" stop-color="#5DAFF1"/>
<stop offset="0.7529" stop-color="#5872E1"/>
<stop offset="1" stop-color="#565ADB"/>
</linearGradient>
<linearGradient id="paint9_linear_901_233" x1="60.2172" y1="301.142" x2="94.3067" y2="142.419" gradientUnits="userSpaceOnUse">
<stop stop-color="#60CDF9"/>
<stop offset="0.2339" stop-color="#5DAFF1"/>
<stop offset="0.7529" stop-color="#5872E1"/>
<stop offset="1" stop-color="#565ADB"/>
</linearGradient>
<clipPath id="clip0_901_233">
<rect width="127.534" height="221.334" fill="white" transform="translate(31.2665 165.383)"/>
</clipPath>
</defs>
</svg>
