<svg width="12" height="14" viewBox="0 0 12 14" fill="none" xmlns="http://www.w3.org/2000/svg">
<path d="M0.304688 5.5C0.203125 5.5 0.126953 5.55078 0.0761719 5.60156C0.0253906 5.65234 0 5.72852 0 5.80469V12.4062C0 12.7617 0.101562 13.041 0.355469 13.2695C0.583984 13.5234 0.863281 13.625 1.21875 13.625H10.1562C10.4863 13.625 10.7656 13.5234 11.0195 13.2695C11.248 13.041 11.375 12.7617 11.375 12.4062V5.80469C11.375 5.72852 11.3242 5.65234 11.2734 5.60156C11.2227 5.55078 11.1465 5.5 11.0703 5.5H0.304688ZM11.375 4.38281C11.375 4.48438 11.3242 4.56055 11.2734 4.61133C11.2227 4.66211 11.1465 4.6875 11.0703 4.6875H0.304688C0.203125 4.6875 0.126953 4.66211 0.0761719 4.61133C0.0253906 4.56055 0 4.48438 0 4.38281V3.46875C0 3.13867 0.101562 2.85938 0.355469 2.60547C0.583984 2.37695 0.863281 2.25 1.21875 2.25H2.4375V0.929688C2.4375 0.853516 2.46289 0.777344 2.51367 0.726562C2.56445 0.675781 2.64062 0.625 2.74219 0.625H3.75781C3.83398 0.625 3.91016 0.675781 3.96094 0.726562C4.01172 0.777344 4.0625 0.853516 4.0625 0.929688V2.25H7.3125V0.929688C7.3125 0.853516 7.33789 0.777344 7.38867 0.726562C7.43945 0.675781 7.51562 0.625 7.61719 0.625H8.63281C8.70898 0.625 8.78516 0.675781 8.83594 0.726562C8.88672 0.777344 8.9375 0.853516 8.9375 0.929688V2.25H10.1562C10.4863 2.25 10.7656 2.37695 11.0195 2.60547C11.248 2.85938 11.375 3.13867 11.375 3.46875V4.38281Z" fill="#5D83A3"/>
</svg>
