<svg width="1920" height="931" viewBox="0 0 1920 931" fill="none" xmlns="http://www.w3.org/2000/svg">
<rect x="-0.00012207" width="1920" height="931" fill="#E9F9F0"/>
<path opacity="0.15" fill-rule="evenodd" clip-rule="evenodd" d="M90.0612 36.6036C89.1181 34.9702 87.0295 34.4106 85.3962 35.3536L-33.3965 103.939C-35.0299 104.882 -35.5895 106.97 -34.6465 108.604L33.9385 227.396C34.8815 229.03 36.9701 229.589 38.6035 228.646L157.396 160.061C159.03 159.118 159.589 157.03 158.646 155.396L90.0612 36.6036ZM10.296 118.146L75.8538 80.2961L113.704 145.854L48.1458 183.704L10.296 118.146Z" fill="url(#paint0_linear_5405_51)" fill-opacity="0.5"/>
<path opacity="0.08" fill-rule="evenodd" clip-rule="evenodd" d="M1979.12 153.39C1979.72 151.959 1979.04 150.316 1977.61 149.72L1774.63 65.225C1773.2 64.6293 1771.56 65.3065 1770.96 66.7376L1728.35 169.091C1727.76 170.522 1728.44 172.165 1729.87 172.761L1932.85 257.256C1934.28 257.852 1935.92 257.175 1936.52 255.744L1979.12 153.39ZM1782.12 88.6123L1955.74 160.882L1925.35 233.869L1751.74 161.599L1782.12 88.6123Z" fill="url(#paint1_linear_5405_51)"/>
<rect opacity="0.1" x="63.9999" y="615" width="44.6707" height="44.6707" rx="6" fill="url(#paint2_linear_5405_51)"/>
<rect opacity="0.1" x="1825.83" y="918.589" width="246" height="185" rx="10" transform="rotate(-150 1825.83 918.589)" fill="url(#paint3_linear_5405_51)"/>
<defs>
<linearGradient id="paint0_linear_5405_51" x1="37.7627" y1="204.58" x2="111.5" y2="96" gradientUnits="userSpaceOnUse">
<stop stop-color="#F3FCF7"/>
<stop offset="1" stop-color="#34C872"/>
</linearGradient>
<linearGradient id="paint1_linear_5405_51" x1="1918.95" y1="147.792" x2="1795.67" y2="252.177" gradientUnits="userSpaceOnUse">
<stop stop-color="#F3FCF7"/>
<stop offset="1" stop-color="#34C872"/>
</linearGradient>
<linearGradient id="paint2_linear_5405_51" x1="50.2936" y1="655.149" x2="85.9211" y2="668.138" gradientUnits="userSpaceOnUse">
<stop stop-color="#FAFEFF"/>
<stop offset="1" stop-color="#34C872"/>
</linearGradient>
<linearGradient id="paint3_linear_5405_51" x1="1737.64" y1="1163.23" x2="2046.69" y2="1218.23" gradientUnits="userSpaceOnUse">
<stop stop-color="#FAFEFF"/>
<stop offset="1" stop-color="#94E69A"/>
</linearGradient>
</defs>
</svg>
