<svg width="1920" height="489" viewBox="0 0 1920 489" fill="none" xmlns="http://www.w3.org/2000/svg">
<rect width="1920" height="479" fill="#E9F9F0"/>
<path opacity="0.15" fill-rule="evenodd" clip-rule="evenodd" d="M1824.07 147.5C1824.44 148.906 1825.89 149.74 1827.29 149.363L1929.5 121.977C1930.91 121.6 1931.74 120.156 1931.36 118.751L1903.98 16.5446C1903.6 15.1393 1902.16 14.3053 1900.75 14.6819L1798.54 42.0679C1797.14 42.4445 1796.31 43.8889 1796.68 45.2943L1824.07 147.5ZM1899.78 102.668L1843.38 117.781L1828.26 61.3772L1884.67 46.2638L1899.78 102.668Z" fill="url(#paint0_linear_5486_162)" fill-opacity="0.5"/>
<path opacity="0.08" fill-rule="evenodd" clip-rule="evenodd" d="M-36.4857 69.3283C-37.322 70.1646 -37.322 71.5206 -36.4857 72.3569L82.1329 190.975C82.9693 191.812 84.3252 191.812 85.1615 190.975L144.976 131.161C145.812 130.325 145.812 128.969 144.976 128.133L26.357 9.51424C25.5206 8.67793 24.1647 8.67793 23.3284 9.51424L-36.4857 69.3283ZM83.6473 172.299L-17.8095 70.8427L24.8427 28.1905L126.3 129.647L83.6473 172.299Z" fill="url(#paint1_linear_5486_162)"/>
<rect opacity="0.1" x="38" y="410.598" width="56" height="56" rx="6" transform="rotate(-45 38 410.598)" fill="url(#paint2_linear_5486_162)"/>
<rect opacity="0.1" x="1888.78" y="488.189" width="152.169" height="114.436" rx="10" transform="rotate(-150 1888.78 488.189)" fill="url(#paint3_linear_5486_162)"/>
<defs>
<linearGradient id="paint0_linear_5486_162" x1="1896.57" y1="32.7816" x2="1819.95" y2="98.9635" gradientUnits="userSpaceOnUse">
<stop stop-color="#F3FCF7"/>
<stop offset="1" stop-color="#34C872"/>
</linearGradient>
<linearGradient id="paint1_linear_5486_162" x1="4.33478" y1="90.7727" x2="121.646" y2="52.9801" gradientUnits="userSpaceOnUse">
<stop stop-color="#F3FCF7"/>
<stop offset="1" stop-color="#34C872"/>
</linearGradient>
<linearGradient id="paint2_linear_5486_162" x1="20.8176" y1="460.93" x2="65.4808" y2="477.212" gradientUnits="userSpaceOnUse">
<stop stop-color="#FAFEFF"/>
<stop offset="1" stop-color="#34C872"/>
</linearGradient>
<linearGradient id="paint3_linear_5486_162" x1="1834.23" y1="639.514" x2="2025.4" y2="673.538" gradientUnits="userSpaceOnUse">
<stop stop-color="#FAFEFF"/>
<stop offset="1" stop-color="#94E69A"/>
</linearGradient>
</defs>
</svg>
