<svg width="138" height="119" viewBox="0 0 138 119" fill="none" xmlns="http://www.w3.org/2000/svg">
<path opacity="0.1" d="M16.6034 37.5424C21.7143 29.9653 27.9754 23.1668 35.3607 17.5186C55.4064 2.20016 82.7423 -2.25438 102.814 15.5638C114.151 25.6319 124.33 39.0215 127.59 54.1063C130.799 68.9577 124.693 90.9276 107.354 93.6955C95.9563 95.5206 84.1692 91.5072 72.9789 95.2092C60.2492 99.4215 49.8891 108.737 36.9432 112.673C27.2749 115.614 15.1333 115.328 7.47993 107.924C0.821067 101.48 -0.796085 91.2736 0.328138 82.0705C2.27391 66.2158 7.71342 50.7071 16.6034 37.5424Z" fill="#FE5A4E"/>
<path opacity="0.1" d="M18.8603 19.3924C24.2143 19.3924 28.5545 15.0512 28.5545 9.69619C28.5545 4.34113 24.2143 0 18.8603 0C13.5063 0 9.16602 4.34113 9.16602 9.69619C9.16602 15.0512 13.5063 19.3924 18.8603 19.3924Z" fill="#FE5A4E"/>
<path opacity="0.1" d="M131.611 32.2889C134.797 32.2889 137.38 29.7059 137.38 26.5196C137.38 23.3334 134.797 20.7504 131.611 20.7504C128.426 20.7504 125.843 23.3334 125.843 26.5196C125.843 29.7059 128.426 32.2889 131.611 32.2889Z" fill="#FE5A4E"/>
<path opacity="0.1" d="M68.2661 114.028C68.2661 116.259 66.4587 118.067 64.2275 118.067C61.9964 118.067 60.189 116.259 60.189 114.028C60.189 111.796 61.9964 109.988 64.2275 109.988C66.4587 109.988 68.2661 111.796 68.2661 114.028Z" fill="#FE5A4E"/>
<path d="M40.6484 53.9791V76.2537C40.6484 78.5397 42.5157 80.4001 44.8102 80.4001H83.838C86.1326 80.4001 87.9998 78.5397 87.9998 76.2537V53.9791H40.6484ZM59.3624 74.4431H56.5333V62.6967H54.6273V60.1711H59.3624V74.4431ZM69.3644 74.5408C66.5345 74.5408 64.3925 73.131 64.2742 70.1363H66.9469C67.0061 71.3692 67.8311 72.2501 69.3053 72.2501C70.6805 72.2501 71.388 71.3886 71.388 70.2534C71.388 68.6482 70.366 68.0604 68.3222 68.0604H67.7525V65.8093H68.3222C69.9341 65.8093 71.1124 65.3587 71.1124 63.9499C71.1124 62.8331 70.4252 62.1678 69.1675 62.1678C67.8311 62.1678 67.2614 63.0294 67.1633 63.9296H64.4712C64.609 61.287 66.4947 59.8385 69.2461 59.8385C72.1935 59.8385 73.7657 61.5026 73.7657 63.6163C73.7657 65.3984 72.6457 66.4949 71.6044 66.8468V66.9252C73.0582 67.3757 74.021 68.5506 74.021 70.4883C74.021 72.8177 72.3701 74.5408 69.3644 74.5408Z" fill="#FE5A4E"/>
<path d="M83.838 41.3132H78.4555V39.9863C78.4555 38.1195 76.9259 36.6001 75.0466 36.6001C73.1683 36.6001 71.6395 38.1195 71.6395 39.9863V41.3132H68.0096V39.9863C68.0096 38.1195 66.4808 36.6001 64.6016 36.6001C62.7223 36.6001 61.1936 38.1195 61.1936 39.9863V41.3132H57.0087V39.9863C57.0087 38.1195 55.48 36.6001 53.6007 36.6001C51.7214 36.6001 50.1927 38.1195 50.1927 39.9863V41.3132H44.8102C42.5157 41.3132 40.6484 43.1736 40.6484 45.4596V51.2139H87.9998V45.4596C87.9998 43.1736 86.1326 41.3132 83.838 41.3132ZM54.2342 41.3132H52.9672V39.9863C52.9672 39.6491 53.2576 39.3644 53.6007 39.3644C53.9438 39.3644 54.2342 39.6491 54.2342 39.9863V41.3132ZM65.2351 41.3132H63.9681V39.9863C63.9681 39.6491 64.2575 39.3644 64.6016 39.3644C64.9447 39.3644 65.2351 39.6491 65.2351 39.9863V41.3132ZM75.681 41.3132H74.414V39.9863C74.414 39.6491 74.7035 39.3644 75.0466 39.3644C75.3906 39.3644 75.681 39.6491 75.681 39.9863V41.3132Z" fill="#FE5A4E"/>
</svg>
