<svg width="138" height="119" viewBox="0 0 138 119" fill="none" xmlns="http://www.w3.org/2000/svg">
<path d="M16.6034 37.1759C21.7143 29.5989 27.9754 22.8003 35.3607 17.1521C55.4064 1.83371 82.7423 -2.62083 102.814 15.1973C114.151 25.2654 124.33 38.655 127.59 53.7399C130.799 68.5912 124.693 90.5612 107.354 93.3291C95.9563 95.1541 84.1692 91.1407 72.9789 94.8427C60.2492 99.0551 49.8891 108.371 36.9432 112.306C27.2749 115.247 15.1333 114.962 7.47993 107.558C0.821067 101.114 -0.796085 90.9072 0.328138 81.704C2.27391 65.8493 7.71342 50.3406 16.6034 37.1759Z" fill="#E4F4EB"/>
<path d="M18.8605 19.3924C24.2145 19.3924 28.5548 15.0512 28.5548 9.69619C28.5548 4.34113 24.2145 0 18.8605 0C13.5065 0 9.16626 4.34113 9.16626 9.69619C9.16626 15.0512 13.5065 19.3924 18.8605 19.3924Z" fill="#E4F4EB"/>
<path d="M131.611 32.2889C134.797 32.2889 137.38 29.7059 137.38 26.5196C137.38 23.3334 134.797 20.7504 131.611 20.7504C128.426 20.7504 125.843 23.3334 125.843 26.5196C125.843 29.7059 128.426 32.2889 131.611 32.2889Z" fill="#E4F4EB"/>
<path d="M68.2658 114.028C68.2658 116.259 66.4584 118.067 64.2273 118.067C61.9961 118.067 60.1887 116.259 60.1887 114.028C60.1887 111.796 61.9961 109.988 64.2273 109.988C66.4584 109.988 68.2658 111.796 68.2658 114.028Z" fill="#CAEDD9"/>
<path d="M67.9246 24.2881C60.9416 31.0806 56.701 42.5864 57.3114 53.1925C52.6684 58.0503 50.0001 64.6564 50.0001 71.4955C49.9954 71.8918 50.2174 72.2554 50.5689 72.4326C50.9203 72.6097 51.3412 72.5725 51.6556 72.3347L58.1068 67.4582L58.19 68.9501C58.2224 69.5049 58.6756 69.9338 59.2259 69.9338H78.0522C78.3343 69.9338 78.5933 69.8172 78.7829 69.6261C78.9586 69.4489 79.0696 69.2112 79.0835 68.9454L79.1667 67.4536L85.6179 72.33C85.9323 72.5678 86.3531 72.5538 86.7 72.3766C86.7878 72.33 86.8711 72.2694 86.9405 72.1995C87.1486 71.9897 87.2688 71.682 87.2734 71.3883C87.2734 64.6424 84.6051 58.0363 79.9621 53.1739C80.5679 42.5538 76.3596 31.0247 69.3489 24.2741C68.9558 23.9011 68.3269 23.9011 67.9246 24.2881ZM73.8208 43.8359C73.8208 45.2718 73.2427 46.5771 72.304 47.5235C71.3652 48.4699 70.0703 49.0526 68.646 49.0526C65.7927 49.0526 63.4666 46.7077 63.4666 43.8312C63.4666 40.9501 65.7881 38.6098 68.646 38.6098C71.4947 38.6144 73.8208 40.9594 73.8208 43.8359Z" fill="#34C872"/>
<path d="M62.2412 79.9346C62.2412 83.0955 67.1709 92.4008 67.7305 93.4498C67.9108 93.7901 68.2623 93.9952 68.6415 93.9999C68.9236 93.9999 69.1826 93.888 69.3768 93.6922C69.4462 93.6223 69.5063 93.5384 69.5571 93.4498C70.1167 92.4008 75.0464 83.0955 75.0464 79.9346C75.0464 76.3775 72.1746 73.4824 68.6461 73.4824C65.113 73.4824 62.2412 76.3775 62.2412 79.9346Z" fill="#34C872"/>
</svg>
