<svg width="138" height="119" viewBox="0 0 138 119" fill="none" xmlns="http://www.w3.org/2000/svg">
<path opacity="0.1" d="M16.6034 37.5424C21.7143 29.9653 27.9754 23.1668 35.3607 17.5186C55.4064 2.20016 82.7423 -2.25438 102.814 15.5638C114.151 25.6319 124.33 39.0215 127.59 54.1063C130.799 68.9577 124.693 90.9276 107.354 93.6955C95.9563 95.5206 84.1692 91.5072 72.9789 95.2092C60.2492 99.4215 49.8891 108.737 36.9432 112.673C27.2749 115.614 15.1333 115.328 7.47993 107.924C0.821067 101.48 -0.796085 91.2736 0.328138 82.0705C2.27391 66.2158 7.71342 50.7071 16.6034 37.5424Z" fill="#F3C729"/>
<path opacity="0.1" d="M18.8603 19.3924C24.2143 19.3924 28.5545 15.0512 28.5545 9.69619C28.5545 4.34113 24.2143 0 18.8603 0C13.5063 0 9.16602 4.34113 9.16602 9.69619C9.16602 15.0512 13.5063 19.3924 18.8603 19.3924Z" fill="#F3C729"/>
<path opacity="0.1" d="M131.611 32.2889C134.797 32.2889 137.38 29.7059 137.38 26.5196C137.38 23.3334 134.797 20.7504 131.611 20.7504C128.426 20.7504 125.843 23.3334 125.843 26.5196C125.843 29.7059 128.426 32.2889 131.611 32.2889Z" fill="#F3C729"/>
<path opacity="0.1" d="M68.2661 114.028C68.2661 116.259 66.4587 118.067 64.2275 118.067C61.9964 118.067 60.189 116.259 60.189 114.028C60.189 111.796 61.9964 109.988 64.2275 109.988C66.4587 109.988 68.2661 111.796 68.2661 114.028Z" fill="#F3C729"/>
<path d="M89.5348 53.1381C89.2026 52.1236 88.2934 51.4032 87.2166 51.3081L72.593 49.9957L66.8106 36.6153C66.3842 35.6352 65.4126 35 64.3338 35C63.2551 35 62.2844 35.6352 61.857 36.6173L56.0746 49.9947L41.449 51.3081C40.3742 51.4061 39.467 52.1246 39.1329 53.1381C38.7987 54.1516 39.1071 55.2651 39.9201 55.9659L50.9733 65.549L47.7153 79.7439C47.4763 80.7878 47.8868 81.8659 48.7623 82.4923C49.2333 82.8285 49.7835 83 50.3398 83C50.8187 83 51.2936 82.8726 51.7199 82.6197L64.3338 75.1665L76.9437 82.6197C77.8668 83.1686 79.0298 83.1186 79.9033 82.4923C80.7798 81.864 81.1893 80.7848 80.9504 79.7439L77.6913 65.55L88.7445 55.9688C89.5576 55.2651 89.8679 54.1545 89.5348 53.1381Z" fill="#F3C729"/>
</svg>
