<svg width="35" height="35" viewBox="0 0 35 35" fill="none" xmlns="http://www.w3.org/2000/svg">
<circle cx="17.5" cy="17.5" r="17" stroke="#044072" stroke-opacity="0.08"/>
<path opacity="0.8" d="M17 14.2051C17.5078 14.2051 17.9902 14.3574 18.4473 14.6113C18.9043 14.8652 19.2598 15.2207 19.5137 15.6777C19.7676 16.1348 19.9199 16.6172 19.9199 17.125C19.9199 17.6582 19.7676 18.1406 19.5137 18.5977C19.2598 19.0547 18.9043 19.4102 18.4473 19.6641C17.9902 19.918 17.5078 20.0449 17 20.0449C16.4668 20.0449 15.9844 19.918 15.5273 19.6641C15.0703 19.4102 14.7148 19.0547 14.4609 18.5977C14.207 18.1406 14.0801 17.6582 14.0801 17.125C14.0801 16.6172 14.207 16.1348 14.4609 15.6777C14.7148 15.2207 15.0703 14.8652 15.5273 14.6113C15.9844 14.3574 16.4668 14.2051 17 14.2051ZM17 19.0293C17.5078 19.0293 17.9648 18.8516 18.3457 18.4707C18.7012 18.1152 18.9043 17.6582 18.9043 17.125C18.9043 16.6172 18.7012 16.1602 18.3457 15.7793C17.9648 15.4238 17.5078 15.2207 17 15.2207C16.4668 15.2207 16.0098 15.4238 15.6543 15.7793C15.2734 16.1602 15.0957 16.6172 15.0957 17.125C15.0957 17.6582 15.2734 18.1152 15.6543 18.4707C16.0098 18.8516 16.4668 19.0293 17 19.0293ZM20.7324 14.0781C20.7324 13.9004 20.6562 13.748 20.5293 13.5957C20.377 13.4688 20.2246 13.3926 20.0469 13.3926C19.8438 13.3926 19.6914 13.4688 19.5645 13.5957C19.4121 13.748 19.3613 13.9004 19.3613 14.0781C19.3613 14.2812 19.4121 14.4336 19.5645 14.5605C19.6914 14.7129 19.8438 14.7637 20.0469 14.7637C20.2246 14.7637 20.377 14.7129 20.5039 14.5605C20.6309 14.4336 20.707 14.2812 20.7324 14.0781ZM22.6621 14.7637C22.6621 15.2461 22.6875 16.0332 22.6875 17.125C22.6875 18.2422 22.6621 19.0293 22.6367 19.5117C22.6113 19.9941 22.5352 20.4004 22.4336 20.7559C22.2812 21.1875 22.0273 21.5684 21.7227 21.873C21.418 22.1777 21.0371 22.4062 20.6309 22.5586C20.2754 22.6855 19.8438 22.7617 19.3613 22.7871C18.8789 22.8125 18.0918 22.8125 17 22.8125C15.8828 22.8125 15.0957 22.8125 14.6133 22.7871C14.1309 22.7617 13.7246 22.6855 13.3691 22.5332C12.9375 22.4062 12.5566 22.1777 12.252 21.873C11.9473 21.5684 11.7188 21.1875 11.5664 20.7559C11.4395 20.4004 11.3633 19.9941 11.3379 19.5117C11.3125 19.0293 11.3125 18.2422 11.3125 17.125C11.3125 16.0332 11.3125 15.2461 11.3379 14.7637C11.3633 14.2812 11.4395 13.8496 11.5664 13.4941C11.7188 13.0879 11.9473 12.707 12.252 12.4023C12.5566 12.0977 12.9375 11.8438 13.3691 11.6914C13.7246 11.5898 14.1309 11.5137 14.6133 11.4883C15.0957 11.4629 15.8828 11.4375 17 11.4375C18.0918 11.4375 18.8789 11.4629 19.3613 11.4883C19.8438 11.5137 20.2754 11.5898 20.6309 11.6914C21.0371 11.8438 21.418 12.0977 21.7227 12.4023C22.0273 12.707 22.2812 13.0879 22.4336 13.4941C22.5352 13.8496 22.6113 14.2812 22.6621 14.7637ZM21.4434 20.4766C21.5449 20.1973 21.5957 19.7402 21.6465 19.1055C21.6465 18.75 21.6719 18.2168 21.6719 17.5312V16.7188C21.6719 16.0332 21.6465 15.5 21.6465 15.1445C21.5957 14.5098 21.5449 14.0527 21.4434 13.7734C21.2402 13.2656 20.8594 12.8848 20.3516 12.6816C20.0723 12.5801 19.6152 12.5293 18.9805 12.4785C18.5996 12.4785 18.0664 12.4531 17.4062 12.4531H16.5938C15.9082 12.4531 15.375 12.4785 15.0195 12.4785C14.3848 12.5293 13.9277 12.5801 13.6484 12.6816C13.1152 12.8848 12.7598 13.2656 12.5566 13.7734C12.4551 14.0527 12.3789 14.5098 12.3535 15.1445C12.3281 15.5254 12.3281 16.0586 12.3281 16.7188V17.5312C12.3281 18.2168 12.3281 18.75 12.3535 19.1055C12.3789 19.7402 12.4551 20.1973 12.5566 20.4766C12.7598 21.0098 13.1406 21.3652 13.6484 21.5684C13.9277 21.6699 14.3848 21.7461 15.0195 21.7715C15.375 21.7969 15.9082 21.7969 16.5938 21.7969H17.4062C18.0918 21.7969 18.625 21.7969 18.9805 21.7715C19.6152 21.7461 20.0723 21.6699 20.3516 21.5684C20.8594 21.3652 21.2402 20.9844 21.4434 20.4766Z" fill="#5D83A3"/>
</svg>
