<svg width="35" height="35" viewBox="0 0 35 35" fill="none" xmlns="http://www.w3.org/2000/svg">
<circle cx="17.5" cy="17.5" r="17" stroke="#044072" stroke-opacity="0.08"/>
<path opacity="0.8" d="M17.3047 10.7773C18.0918 10.8027 18.8281 10.9805 19.5391 11.3359C20.25 11.6914 20.8086 12.1484 21.2148 12.7578C21.6465 13.418 21.875 14.1797 21.875 14.9922C21.875 15.8047 21.7227 16.5918 21.4688 17.3027C21.1641 18.1152 20.7324 18.7246 20.1738 19.1816C19.5391 19.6895 18.8027 19.9434 17.9648 19.9434C17.6094 19.9434 17.2793 19.8672 16.9492 19.7148C16.5938 19.5625 16.3652 19.334 16.2129 19.0293L16.0098 19.8418C15.7812 20.7305 15.6035 21.3398 15.4766 21.6699C15.2734 22.127 14.8926 22.7109 14.3848 23.4219L14.2832 23.4727L14.207 23.3965L14.1816 23.0156C14.1309 22.5586 14.1055 22.2031 14.1055 21.9492C14.1055 21.4414 14.1816 20.7812 14.3594 19.9688C14.4609 19.5117 14.6133 18.8008 14.8672 17.8613L15.1719 16.6426C14.9941 16.3379 14.918 15.9062 14.918 15.373C14.918 14.8906 15.0449 14.4844 15.2988 14.1543C15.502 13.9004 15.7812 13.7227 16.1113 13.6465C16.416 13.5957 16.6953 13.6465 16.9492 13.8242C17.1777 14.0273 17.3047 14.3066 17.3047 14.7129C17.3047 14.9414 17.2539 15.1953 17.2031 15.4492C17.1523 15.6016 17.0762 15.8555 16.9746 16.1602C16.8477 16.4902 16.7715 16.7188 16.7461 16.8711C16.6699 17.1504 16.6445 17.3789 16.6445 17.582C16.6445 17.9121 16.7461 18.1914 16.9746 18.3945C17.2031 18.5977 17.4824 18.6992 17.8125 18.6992C18.3457 18.6992 18.8027 18.4707 19.1836 17.9883C19.4883 17.6074 19.7422 17.0742 19.8945 16.4141C20.0215 15.8809 20.0977 15.3477 20.0977 14.8145C20.0977 13.9512 19.8184 13.2656 19.2598 12.7578C18.7012 12.2754 17.9902 12.0215 17.1016 12.0215C16.4414 12.0215 15.832 12.1738 15.2734 12.4785C14.7148 12.7832 14.3086 13.2148 14.0039 13.7227C13.6992 14.2559 13.5469 14.8652 13.5469 15.5254C13.5469 15.8301 13.5977 16.1094 13.6992 16.3633C13.75 16.5156 13.8262 16.7188 13.9785 16.9219C14.0801 17.0996 14.1309 17.2012 14.1309 17.252C14.1309 17.4043 14.0801 17.5566 14.0293 17.7598C13.9277 18.0137 13.8516 18.1406 13.75 18.1406C13.5215 18.1406 13.293 18.0391 13.0391 17.8105C12.7852 17.582 12.5566 17.2773 12.4043 16.8711C12.2012 16.4141 12.125 15.9062 12.125 15.3477C12.125 14.4336 12.3789 13.6211 12.8867 12.9102C13.3438 12.25 13.9785 11.7422 14.791 11.3613C15.5781 10.9805 16.416 10.7773 17.3047 10.7773Z" fill="#5D83A3"/>
</svg>
