<svg width="515" height="432" viewBox="0 0 515 432" fill="none" xmlns="http://www.w3.org/2000/svg">
<g clip-path="url(#clip0_901_2690)">
<path d="M154.72 109.497C91.7082 203.771 67.7867 325.444 146.798 385.374C225.809 445.304 382.333 448.044 464.822 285.386C547.311 122.729 454.701 8.79971 371.906 0.749423C289.111 -7.30087 193.803 51.0093 154.72 109.497Z" fill="#F6F3FE"/>
<path opacity="0.56" d="M154.72 109.497C91.7082 203.771 67.7867 325.444 146.798 385.374C225.809 445.304 382.333 448.044 464.822 285.386C547.311 122.729 454.701 8.79971 371.906 0.749423C289.111 -7.30087 193.803 51.0093 154.72 109.497Z" fill="#D9F7F0"/>
<path d="M292.871 402.587C292.871 410.935 290.778 418.792 287.098 425.674C285.914 427.89 284.562 430.01 283.064 432H69.4134C67.9158 430.01 66.5631 427.89 65.3795 425.674C61.6918 418.8 59.5984 410.935 59.5984 402.587C59.5984 375.583 81.4828 353.681 108.464 353.681C115.863 353.681 122.884 355.341 129.173 358.282C130.099 323.003 158.964 294.678 194.448 294.678C229.247 294.678 257.677 321.915 259.634 356.252C278.958 362.779 292.871 381.055 292.871 402.587Z" fill="#00CB9B"/>
<path d="M308.853 323.494H239.134V325.138H308.853V323.494Z" fill="#1D254C"/>
<path d="M299.634 360.539H229.915V362.182H299.634V360.539Z" fill="#1D254C"/>
<path d="M291.711 397.567H221.992V399.21H291.711V397.567Z" fill="#1D254C"/>
<path d="M247.255 285.194L215.207 425.277L216.808 425.644L248.856 285.561L247.255 285.194Z" fill="#1D254C"/>
<path d="M317.393 285.202L285.345 425.285L286.946 425.652L318.994 285.569L317.393 285.202Z" fill="#1D254C"/>
<path d="M255.262 303.461L253.16 311.125C253.16 311.125 250.56 317.797 250.994 321.383C251.429 324.969 256.002 324.268 258.466 324.268C260.93 324.268 277.734 324.268 277.734 324.268C277.734 324.268 281.277 323.978 280.616 321.875C279.956 319.771 271.373 317.676 266.961 315.694C262.548 313.72 262.524 308.893 262.524 308.893L255.262 303.461Z" fill="#1D1C2C"/>
<path d="M469.645 403.401C469.645 403.401 473.429 410.073 474.5 413.369C475.571 416.665 474.009 417.487 469.645 419.381C465.281 421.274 464.226 424.739 459.194 424.739C454.17 424.739 450.458 424.739 450.458 424.739C450.458 424.739 447.656 423.998 448.235 422.185C448.815 420.372 454.331 420.783 457.624 416.915C460.917 413.039 461.658 411.314 460.667 407.769C459.685 404.231 469.645 403.401 469.645 403.401Z" fill="#1D1C2C"/>
<path d="M420.868 409.993C420.868 409.993 420.868 415.061 422.1 417.406C423.332 419.751 422.881 422.926 422.1 423.587C421.319 424.248 419.668 424.739 418.436 424.739C417.204 424.739 399.338 424.739 399.338 424.739C399.338 424.739 398.516 421.935 401.729 420.622C404.942 419.3 412.51 416.335 411.858 409.993C411.19 403.651 420.868 409.993 420.868 409.993Z" fill="#1D1C2C"/>
<path d="M388.637 177.888L386.415 175.172C386.415 175.172 381.971 170.233 379.748 167.88C377.526 165.535 374.563 162.319 373.573 163.061C372.582 163.802 371.471 165.921 372.091 170.418C372.711 174.923 381.27 179.886 381.27 179.886L388.637 177.888Z" fill="#FAAD83"/>
<path d="M269.594 188.847L292.686 255.619L289.884 175.164L287.331 153.906L269.594 188.847Z" fill="#1D254C"/>
<path d="M244.722 162.948C244.722 162.948 244.166 181.434 247.854 206.318C249.835 219.687 250.688 232.435 251.002 240.63C251.316 248.834 251.002 311.125 251.002 311.125H264.819C264.819 311.125 277.331 235.183 277.331 234.925C277.331 234.667 280.624 168.814 280.624 168.814L244.722 162.948Z" fill="#303B71"/>
<path d="M289.328 58.8018C289.328 58.8018 306.14 62.4844 310.585 88.7949C315.029 115.105 336.028 83.7101 336.028 83.7101L332.324 106.056L313.556 116.846C313.556 116.846 303.137 110.158 298.958 102.003C294.779 93.8475 289.328 58.8018 289.328 58.8018Z" fill="#E6B400"/>
<path d="M272.307 55.7718C272.307 55.7718 256.848 57.3432 248.369 64.8777C246.751 66.3121 245.39 67.9641 244.44 69.8659C238.474 81.7277 238.224 113.615 239.714 131.166C241.195 148.717 238.723 167.388 239.963 168.806C241.195 170.224 271.188 174.906 280.399 173.553C289.61 172.199 304.675 168.806 304.675 168.806C304.675 168.806 303.684 112.132 303.443 98.7873C303.193 85.4426 299.989 69.8659 297.517 65.1678C295.045 60.4698 282.702 55.7718 282.702 55.7718H272.307Z" fill="#F7C200"/>
<path d="M244.191 90.318C244.191 90.318 249.513 116.25 255.544 128.917C261.574 141.585 303.95 124.365 303.95 124.365L303.572 102.148L271.792 110.496C271.792 110.496 257.041 95.5076 256.494 95.2578C255.954 95.0079 244.191 90.318 244.191 90.318Z" fill="#E6B400"/>
<path d="M441.738 295.798C441.738 295.798 439.765 337.081 440.506 346.469C441.246 355.865 459.773 409.993 459.773 409.993L474.097 405.794C474.097 405.794 464.468 356.356 462.736 346.219C461.005 336.082 480.522 273.791 477.801 263.411C475.088 253.032 448.163 268.351 448.163 268.351L441.738 295.798Z" fill="#1D254C"/>
<path d="M433.582 128.442C433.582 128.442 430.619 141.916 430.989 151.304C431.359 160.7 434.693 162.182 436.054 162.182C437.414 162.182 440.498 161.191 440.498 161.191L442.6 173.553L456.553 172.191L455.192 156.002L456.553 133.382L433.582 128.442Z" fill="#FAAD83"/>
<path d="M430.618 127.862C431.094 130.706 433.01 131.649 434.982 131.738C436.955 131.818 439.266 132.56 439.427 135.034C439.588 137.508 438.525 142.117 440.747 142.858C442.97 143.6 443.219 140.715 446.182 142.278C449.145 143.842 446.512 149.321 444.532 150.989C442.559 152.657 445.272 157.275 449.226 158.999C453.179 160.732 454.628 160.885 455.546 160.232C456.464 159.579 464.29 149.692 465.603 143.431C466.923 137.169 466.923 132.06 462.559 131.238C458.195 130.416 463.05 123.003 450.377 119.787C437.704 116.572 430.127 124.896 430.618 127.862Z" fill="#1D254C"/>
<path d="M415.554 195.189L386.415 175.164L380.481 180.604L404.934 206.31L415.554 195.189Z" fill="#4D2AC4"/>
<path d="M293.137 24.8761L298.902 19.1063C298.902 19.1063 304.497 17.4544 305.407 10.9513C306.309 4.44013 293.716 -0.588282 285.898 1.06368C278.08 2.71564 276.84 6.91404 275.439 6.91404C274.038 6.91404 270.334 5.51189 267.951 8.55794C265.56 11.604 265.729 14.7387 266.47 16.302C267.21 17.8653 261.945 18.0346 262.186 25.3677C262.436 32.7008 266.8 34.9249 267.951 37.3585C269.102 39.7921 270.423 43.2491 274.046 43.3297C277.653 43.4184 293.137 24.8761 293.137 24.8761Z" fill="#1D254C"/>
<path d="M510.813 428.374C510.813 429.381 510.555 430.284 510.145 430.952C509.726 431.605 509.163 432.008 508.535 432.008H16.7876C15.5316 432.008 14.501 430.388 14.501 428.382C14.501 427.383 14.7586 426.48 15.1773 425.811C15.588 425.158 16.1596 424.748 16.7876 424.748H508.526C509.791 424.739 510.813 426.367 510.813 428.374Z" fill="#74F4D6"/>
<path d="M36.5465 267.803L27.6091 259.825L27.6896 259.398C27.746 259.14 27.9312 258.923 28.1888 258.842L39.5578 255.079L39.8879 255.361C40.0892 255.538 40.1778 255.812 40.1214 256.07L37.6898 267.803L37.2792 267.948C37.0215 268.037 36.7478 267.98 36.5465 267.803ZM29.8233 259.841L36.5948 265.885L38.4386 256.989L29.8233 259.841Z" fill="#F7C200"/>
<path d="M377.027 45.7875L386.343 41.6052C386.729 41.4279 387.156 41.7422 387.115 42.1612L386.077 52.3309C386.037 52.7499 385.553 52.9675 385.207 52.7257L376.93 46.7384C376.584 46.4886 376.64 45.9648 377.027 45.7875Z" fill="#00CB9B"/>
<path d="M515 305.951C515 308.82 512.673 311.141 509.815 311.141C506.948 311.141 504.629 308.812 504.629 305.951C504.629 303.083 506.956 300.762 509.815 300.762C512.681 300.762 515 303.083 515 305.951Z" fill="#F6A04B"/>
<path d="M167.168 285.378C168.84 285.378 170.196 284.022 170.196 282.348C170.196 280.675 168.84 279.318 167.168 279.318C165.496 279.318 164.141 280.675 164.141 282.348C164.141 284.022 165.496 285.378 167.168 285.378Z" fill="#5830E0"/>
<path d="M158.843 182.409L162.055 181.667C162.756 181.506 163.215 180.829 163.11 180.12L159.149 152.536L150.952 154.438L157.192 181.377C157.353 182.119 158.094 182.578 158.843 182.409Z" fill="#303B71"/>
<path d="M193.658 111.568L204.101 156.622L203.731 156.598C182.958 150.208 159.197 152.738 159.197 152.738L155.051 134.84C155.051 134.84 177.499 126.645 193.344 111.753L193.658 111.568Z" fill="#5DD6E1"/>
<path d="M153.786 151.271L147.176 152.802C144.108 153.512 141.041 151.602 140.332 148.531L139.954 146.912C139.245 143.842 141.153 140.771 144.221 140.062L150.831 138.531L153.786 151.271Z" fill="#303B71"/>
<path d="M159.253 152.714L151.347 154.551C147.86 155.357 144.382 153.189 143.569 149.7L142.353 144.438C141.548 140.949 143.714 137.467 147.2 136.653L155.107 134.816L159.253 152.714Z" fill="#303B71"/>
<path d="M205.663 158.008L206.058 157.919C206.815 157.742 207.29 156.985 207.112 156.227L196.533 110.585C196.355 109.827 195.599 109.352 194.842 109.529L194.447 109.618C193.69 109.795 193.223 110.552 193.392 111.31L203.972 156.952C204.149 157.71 204.906 158.185 205.663 158.008Z" fill="#303B71"/>
<path d="M154.221 145.203L146.242 147.057C145.896 147.137 145.557 146.92 145.477 146.581L145.437 146.404C145.356 146.058 145.574 145.719 145.912 145.639L153.891 143.785C154.237 143.705 154.575 143.922 154.656 144.261L154.696 144.438C154.777 144.784 154.567 145.131 154.221 145.203Z" fill="#5DD6E1"/>
<path d="M155.083 148.91L147.103 150.764C146.757 150.844 146.419 150.627 146.339 150.288L146.298 150.111C146.218 149.764 146.435 149.426 146.773 149.345L154.753 147.492C155.099 147.411 155.437 147.629 155.517 147.967L155.558 148.145C155.638 148.483 155.421 148.83 155.083 148.91Z" fill="#5DD6E1"/>
<path d="M153.327 141.36L145.348 143.213C145.002 143.294 144.664 143.076 144.583 142.737L144.543 142.56C144.463 142.214 144.68 141.875 145.018 141.795L152.997 139.941C153.344 139.861 153.682 140.078 153.762 140.417L153.803 140.594C153.891 140.94 153.674 141.279 153.327 141.36Z" fill="#5DD6E1"/>
<path opacity="0.15" d="M156.524 141.521L197.475 128.917L200.22 140.779L157.909 147.5" fill="white"/>
<path d="M221.71 128.917L209.931 131.544C209.568 131.625 209.198 131.391 209.117 131.029L209.077 130.835C208.997 130.465 209.23 130.102 209.592 130.021L221.372 127.394C221.734 127.314 222.105 127.548 222.185 127.91L222.226 128.104C222.306 128.474 222.073 128.837 221.71 128.917Z" fill="#5DD6E1"/>
<path d="M223.796 139.24L211.734 138.765C211.356 138.749 211.066 138.434 211.082 138.056L211.09 137.854C211.106 137.475 211.42 137.185 211.799 137.201L223.86 137.677C224.238 137.693 224.528 138.007 224.512 138.386L224.504 138.587C224.488 138.958 224.174 139.248 223.796 139.24Z" fill="#5DD6E1"/>
<path d="M218.409 116.669L207.692 122.221C207.362 122.39 207.225 122.801 207.402 123.14L207.491 123.317C207.66 123.647 208.071 123.784 208.409 123.607L219.126 118.055C219.456 117.886 219.593 117.475 219.415 117.136L219.327 116.959C219.15 116.628 218.739 116.5 218.409 116.669Z" fill="#5DD6E1"/>
<path d="M24.9681 321.077L18.4543 318.716L14.8794 326.847L20.8457 330.457L24.9681 321.077Z" fill="#FAAD83"/>
<path d="M80.9673 255.691C80.9673 255.691 74.2039 271.075 73.286 287.683C72.3601 304.291 71.4422 335.67 70.5162 335.364C69.5903 335.058 24.7184 321.061 24.7184 321.061L21.0308 330.755C21.0308 330.755 66.8286 359.056 80.9673 355.977C95.106 352.899 104.631 290.149 104.631 290.149V257.545L80.9673 255.691Z" fill="#1D254C"/>
<path d="M18.4543 318.716C18.4543 318.716 10.4348 314.05 9.38004 314.719C8.32528 315.396 -0.000135344 336.049 -0.000135344 336.049C-0.000135344 336.049 -0.193375 338.483 2.10135 337.854C4.39607 337.226 12.5685 327.209 14.8713 326.839L18.4543 318.716Z" fill="#1D1C2C"/>
<path d="M118.81 407.93L119.269 414.852H128.15L129.044 407.93H118.81Z" fill="#FAAD83"/>
<path d="M114.664 185.052C114.664 185.052 112.586 172.827 113.738 171.441C114.889 170.055 117.079 172.827 120.421 164.286C123.762 155.752 121.805 141.327 115.114 139.256C108.432 137.177 98.053 142.6 96.5554 155.059C95.0578 167.517 97.4814 184.246 97.4814 184.246L114.664 185.052Z" fill="#FAAD83"/>
<path d="M90.4924 261.534C90.4924 261.534 81.8852 282.147 96.0239 304.291C110.163 326.444 118.77 409.187 118.77 409.187H128.915C128.915 409.187 135.372 346.122 133.214 328.587C131.065 311.052 119.382 261.526 119.382 261.526H90.4924V261.534Z" fill="#303B71"/>
<path d="M157.547 164.003C157.547 164.003 171.234 202.708 157.885 204.787C152.12 205.689 125.38 203.401 125.38 204.094C125.38 204.787 129.76 217.245 123.995 230.856C118.23 244.474 120.05 264.37 120.05 264.37C99.4941 274.274 79.3086 259.922 79.3086 259.922C79.3086 259.922 85.758 247.23 85.7177 233.845C85.7097 231.379 85.4842 228.905 84.9609 226.472C81.5792 210.782 84.9609 193.868 84.9609 193.868C84.9609 193.868 94.027 181.023 100.943 182.634C103.254 183.166 105.364 183.384 107.401 183.424C111.443 183.529 115.179 182.916 119.615 183.319C128.375 184.125 147.047 191.442 150.469 190.902C152.434 190.588 149.881 164.89 149.881 164.89L157.547 164.003Z" fill="#BEE9EB"/>
<path d="M107.401 183.424C104.937 185.245 106.177 202.474 97.5618 212.628C88.9546 222.781 85.7259 233.845 85.7259 233.845C85.7178 231.379 85.4924 228.905 84.969 226.472C81.5873 210.782 84.969 193.868 84.969 193.868C84.969 193.868 94.0352 181.023 100.952 182.634C103.262 183.166 105.364 183.384 107.401 183.424Z" fill="#A3D6D9"/>
<path d="M26.6026 192.941C24.0824 202.7 23.9536 217.245 45.7736 220.009C67.5935 222.781 78.5116 209.243 85.4199 199.243C92.3363 189.242 93.4152 187.091 102.014 180.015C110.622 172.94 111 164.173 109.043 161.094C107.087 158.016 105.702 156.171 105.702 154.172C105.702 152.174 108.077 151.094 109.043 152.48C110.01 153.866 112.787 150.739 114.784 147.202C116.781 143.664 123.448 145.55 119.511 139.192C116.837 134.881 100.46 130.36 94.003 138.821C87.5455 147.282 87.1108 147.556 73.8899 150.635C60.6772 153.713 59.4453 163.705 58.2134 167.557C56.9815 171.401 54.3727 177.864 45.1536 178.323C38.0842 178.678 28.8651 184.174 26.6026 192.941Z" fill="#9F6652"/>
<path d="M119.269 414.852C119.269 414.852 118.23 424.079 119.269 424.772C120.308 425.465 142.554 424.772 142.554 424.772C142.554 424.772 144.857 423.966 143.36 422.12C141.862 420.275 129.414 416.81 128.142 414.852H119.269Z" fill="#1D1C2C"/>
<path d="M150.067 164.898C150.067 164.898 149.962 161.078 152.724 158.548C155.574 155.937 159.705 153.036 161.299 155.083C162.885 157.13 162.209 161.787 161.411 162.811C160.614 163.834 157.547 164.004 157.547 164.004L150.067 164.898Z" fill="#FAAD83"/>
<path d="M374.861 90.5677C375.481 91.1641 375.529 92.1391 374.965 92.7838C369.2 99.3755 357.952 106.781 344.095 112.478C330.689 117.982 317.895 120.641 309.175 120.222C308.314 120.182 307.646 119.465 307.654 118.603C307.734 106.805 308.588 96.0958 309.763 86.8367C312.283 66.8601 316.285 53.6283 317.195 50.7756C317.316 50.4049 317.581 50.1148 317.936 49.9617C318.29 49.8086 318.692 49.8167 319.039 49.994C321.752 51.3316 334.288 57.7541 350.666 70.0431C358.113 75.6437 366.374 82.461 374.861 90.5677Z" fill="#FF9597"/>
<path d="M310.367 352.641C309.433 353.334 308.121 353.786 306.333 353.939C291.744 355.148 277.903 399.517 271.598 422.886C271.228 424.216 270.093 424.82 268.998 424.739C267.87 424.667 266.8 423.877 266.663 422.475L260.906 361.771C260.262 355.019 262.178 348.274 266.284 342.875L288.885 313.155C288.885 313.155 295.81 320.424 302.098 328.829C305.608 333.519 308.918 338.571 310.721 342.899C310.721 342.907 310.721 342.907 310.721 342.907C312.525 347.202 312.831 350.788 310.367 352.641Z" fill="#FF9597"/>
<path d="M310.367 352.641C309.433 353.334 308.121 353.786 306.333 353.939C291.743 355.148 277.903 399.517 271.598 422.886C271.228 424.216 270.093 424.82 268.998 424.739C269.038 423.611 271.349 343.068 297.935 330.175C299.497 329.417 300.882 328.982 302.106 328.821C308.169 328.039 310.48 334.099 310.729 342.891C310.729 342.899 310.729 342.899 310.729 342.899C310.826 345.888 310.681 349.192 310.367 352.641Z" fill="#F27E87"/>
<path d="M352.3 352.641C353.234 353.334 354.546 353.786 356.334 353.939C370.924 355.148 384.764 399.517 391.069 422.886C391.439 424.216 392.574 424.82 393.669 424.739C394.797 424.667 395.868 423.877 396.004 422.475L401.761 361.771C402.405 355.019 400.489 348.274 396.383 342.875L373.782 313.155C373.782 313.155 366.857 320.424 360.569 328.829C357.059 333.519 353.749 338.571 351.946 342.899C351.946 342.907 351.946 342.907 351.946 342.907C350.15 347.202 349.836 350.788 352.3 352.641Z" fill="#FF9597"/>
<path d="M352.3 352.641C353.234 353.334 354.547 353.786 356.334 353.939C370.924 355.148 384.764 399.517 391.069 422.886C391.439 424.216 392.575 424.82 393.67 424.739C393.629 423.611 391.319 343.068 364.732 330.175C363.17 329.417 361.785 328.982 360.561 328.821C354.498 328.039 352.187 334.099 351.938 342.891C351.938 342.899 351.938 342.899 351.938 342.899C351.841 345.888 351.986 349.192 352.3 352.641Z" fill="#F27E87"/>
<path d="M356.737 377.687L305.737 377.042L305.584 389.25H305.665C305.609 389.468 305.576 389.694 305.576 389.919C305.52 394.698 316.881 398.711 330.963 398.888C345.046 399.065 356.511 395.334 356.568 390.564C356.568 390.338 356.535 390.113 356.495 389.887H356.576L356.737 377.687Z" fill="#303B71"/>
<path d="M356.801 377.59H356.72C356.728 377.695 356.745 377.8 356.745 377.912C356.704 381.208 351.253 384.005 343.266 385.366C339.635 385.995 335.464 386.325 331.044 386.269C317.227 386.092 306.027 382.24 305.592 377.59H305.512C285.656 311.52 280.399 279.004 280.399 218.011C280.399 185.173 288.048 156.606 297.364 133.978C297.742 133.068 298.555 132.487 299.457 132.383C299.9 132.318 300.375 132.383 300.826 132.576C307.863 135.646 318.684 137.685 330.834 137.838C336.044 137.903 341.02 137.62 345.561 137.04C351.97 136.226 357.526 134.832 361.68 133.035C362.075 132.858 362.485 132.802 362.88 132.826C363.846 132.882 364.74 133.487 365.134 134.445C374.378 156.993 381.914 185.407 381.914 218.011C381.914 279.012 376.656 311.52 356.801 377.59Z" fill="#BEE9EB"/>
<path d="M330.271 424.522C328.862 424.498 327.71 422.942 327.654 420.976L323.387 343.922C323.201 339.393 326.849 335.638 331.374 335.695C335.899 335.751 339.45 339.595 339.152 344.116L332.952 421.065C332.863 423.031 331.68 424.546 330.271 424.522Z" fill="#FF9597"/>
<path d="M362.501 222.334C364.376 205.012 351.864 189.448 334.556 187.571C317.248 185.695 301.697 198.216 299.822 215.539C297.947 232.862 310.458 248.426 327.766 250.302C345.075 252.179 360.626 239.657 362.501 222.334Z" fill="#FF9597"/>
<path d="M346.247 234.051C354.583 225.708 354.583 212.182 346.247 203.839C337.912 195.497 324.397 195.497 316.061 203.839C307.726 212.182 307.726 225.708 316.061 234.051C324.397 242.393 337.912 242.393 346.247 234.051Z" fill="white"/>
<path d="M328.709 235.409C326.744 235.384 325.174 233.773 325.198 231.798C325.222 229.832 326.833 228.261 328.805 228.285C334.933 228.366 339.981 223.434 340.062 217.301C340.086 215.335 341.696 213.764 343.669 213.788C345.633 213.812 347.203 215.424 347.179 217.398C347.042 227.455 338.765 235.537 328.709 235.409Z" fill="#BEE9EB"/>
<path opacity="0.07" d="M356.801 377.59H356.72C356.729 377.695 356.745 377.8 356.745 377.912C356.704 381.208 351.253 384.005 343.266 385.366C363.049 281.72 355.175 192.498 345.633 137.411C345.609 137.29 345.593 137.153 345.561 137.032C351.97 136.218 357.526 134.824 361.68 133.027C362.075 132.85 362.485 132.794 362.88 132.818C363.846 132.874 364.74 133.478 365.134 134.437C374.378 156.985 381.914 185.398 381.914 218.003C381.914 279.012 376.656 311.52 356.801 377.59Z" fill="#1D254C"/>
<path d="M425.683 260.945C425.683 260.945 403.951 327.685 403.21 337.331C402.47 346.968 407.905 411.983 407.905 411.983H423.468C423.468 411.983 427.422 347.96 428.404 342.77C429.394 337.58 445.941 304.211 452.358 291.108C458.783 278.005 461.988 271.583 461.005 265.644C460.015 259.705 425.683 260.945 425.683 260.945Z" fill="#303B71"/>
<path d="M482.157 267.287C481.336 268.278 474.911 269.753 462.398 270.583C452.873 271.212 445.836 270.027 439.677 269.125C437.736 268.843 435.884 268.593 434.081 268.432C426.504 267.771 422.39 268.593 422.881 266.127C423.372 263.661 424.862 252.782 424.531 238.938C424.193 225.094 423.461 211.411 422.841 202.353C422.712 200.443 422.663 198.34 422.672 196.205C422.696 188.227 423.461 179.878 423.461 179.878C423.461 179.878 429.467 172.36 442.148 170.055C454.83 167.751 462.068 168.242 467.012 174.834C471.956 181.426 474.258 199.887 475.41 227.076C476.561 254.265 482.986 266.296 482.157 267.287Z" fill="#5830E0"/>
<path d="M439.677 269.125C437.736 268.843 435.884 268.593 434.081 268.432C426.504 267.771 422.39 268.593 422.881 266.127C423.372 263.661 424.862 252.782 424.531 238.938C424.193 225.094 423.461 211.411 422.841 202.353C422.712 200.443 422.663 198.34 422.672 196.205L432.156 187.389C432.156 187.389 432.124 187.896 432.084 188.823C431.794 194.738 431.126 217.712 436.577 234.079C440.345 245.401 440.313 259.567 439.677 269.125Z" fill="#4D2AC4"/>
<path d="M370.69 195.35L368.428 193.424C368.428 193.424 366.576 190.983 363.935 188.509C361.302 186.035 357.429 181.837 356.938 182.659C356.447 183.48 357.759 185.954 358.419 187.357C359.08 188.759 359.16 189.911 358.258 189.5C357.357 189.089 356.463 188.332 354.249 186.18C349.241 181.337 347.469 182.159 347.3 184.633C347.139 187.107 350.778 192.578 352.26 194.391C353.741 196.205 365.336 200.451 365.336 200.451L370.69 195.35Z" fill="#FAAD83"/>
<path d="M269.191 56.2392C269.191 56.2392 270.576 59.4867 275.149 61.461C279.714 63.4353 284.409 61.7108 286.019 60.7196C287.621 59.7285 287.798 58.0201 287.798 58.0201V47.2461L273.788 37.3585C273.788 37.3585 271.759 54.4744 269.191 56.2392Z" fill="#9F6652"/>
<path d="M298.893 19.1064C298.893 19.1064 299.554 32.6202 296.422 41.5166C293.289 50.413 282.291 48.3823 275.608 38.6479C275.608 38.6479 270.978 37.3021 269.827 33.1521C268.676 28.994 271.969 26.6087 274.191 27.761C276.413 28.9134 278.169 28.0914 278.483 25.5369C278.797 22.9824 279.626 16.0603 282.259 17.1321C284.9 18.2038 293.797 20.5891 298.893 19.1064Z" fill="#9F6652"/>
<path d="M303.056 101.156C303.056 101.156 307.01 96.6277 309.892 94.4036C312.774 92.1795 315.738 89.5444 315.899 90.2858C316.06 91.0271 315.488 93.0901 313.757 94.9032C312.026 96.7163 315.158 96.3053 316.8 94.9838C318.451 93.6622 322.316 89.7136 324.457 88.9722C326.599 88.2309 326.43 89.9634 326.189 92.1875C325.939 94.4116 321.994 100.012 318.781 101.584C315.568 103.147 307.477 106.064 307.477 106.064L303.056 101.156Z" fill="#9F6652"/>
<path d="M340.593 63.6207C340.593 63.6207 344.715 60.8002 346.793 62.3636C348.87 63.9269 350.859 68.0608 351.342 69.4871C351.825 70.9135 350.722 76.2884 348.129 75.0474C345.537 73.8225 341.358 64.8858 340.593 63.6207Z" fill="#9F6652"/>
<path opacity="0.07" d="M375.086 92.5421C375.054 92.5823 375.03 92.6226 374.998 92.6549C371.874 96.1441 366.962 99.851 360.859 103.324C360.787 103.219 360.722 103.107 360.65 103.002C340.996 71.6548 326.366 54.5228 325.963 54.0312C328.371 55.2641 339.385 61.1064 353.741 72.1867C360.287 77.2473 367.518 83.3958 374.941 90.6886C375.441 91.1883 375.505 91.986 375.086 92.5421Z" fill="#1D254C"/>
<path d="M362.944 201.249L368.75 192.965C368.75 192.965 398.388 206.439 399.99 205.697C401.592 204.956 422.462 180.733 425.304 177.888C428.147 175.043 435.433 171.216 437.897 175.414C440.369 179.613 435.796 195.681 424.193 207.422C412.583 219.163 405.795 222.249 403.074 222.378C400.368 222.507 362.944 201.249 362.944 201.249Z" fill="#5830E0"/>
<path d="M246.864 97.8767C249.988 106.386 258.426 126.548 262.524 126.879C266.622 127.209 289.674 119.957 310.584 106.612L306.14 96.3939C306.14 96.3939 272.057 107.103 270.906 104.96C269.755 102.816 263.829 78.2627 261.027 70.6798C258.225 63.0969 250.439 62.017 247.653 65.5305C244.875 69.06 238.466 74.9749 246.864 97.8767Z" fill="#F7C200"/>
<path d="M155.222 346.941L154.432 347.166L176.204 423.765L176.994 423.54L155.222 346.941Z" fill="#1D1C2C"/>
<path d="M188.459 353.318L166.834 390.251L167.543 390.666L189.168 353.733L188.459 353.318Z" fill="#1D1C2C"/>
<path d="M139.946 401.295L139.666 402.068L173.744 414.459L174.024 413.687L139.946 401.295Z" fill="#1D1C2C"/>
<path d="M88.1318 408.845L87.7009 409.545L112.551 424.869L112.982 424.17L88.1318 408.845Z" fill="#1D1C2C"/>
</g>
<defs>
<clipPath id="clip0_901_2690">
<rect width="515" height="432" fill="white"/>
</clipPath>
</defs>
</svg>
