<svg width="95" height="13" viewBox="0 0 95 13" fill="none" xmlns="http://www.w3.org/2000/svg">
<path d="M13.7289 4.57767L9.4758 3.98457L7.57454 0.28611C7.52261 0.184848 7.43718 0.102875 7.33164 0.0530477C7.06697 -0.0723237 6.74535 0.0321525 6.61302 0.28611L4.71175 3.98457L0.458622 4.57767C0.341364 4.59374 0.234156 4.64679 0.152075 4.72715C0.0528435 4.82502 -0.00183745 4.95668 4.71478e-05 5.09321C0.00193175 5.22974 0.0602277 5.35996 0.162126 5.45527L3.23932 8.33399L2.51232 12.3989C2.49527 12.4935 2.50618 12.5907 2.5438 12.6796C2.58142 12.7686 2.64426 12.8456 2.72518 12.902C2.8061 12.9584 2.90186 12.9919 3.00162 12.9987C3.10138 13.0055 3.20114 12.9854 3.28958 12.9406L7.09378 11.0214L10.898 12.9406C11.0018 12.9936 11.1224 13.0113 11.238 12.992C11.5295 12.9438 11.7255 12.6786 11.6752 12.3989L10.9482 8.33399L14.0254 5.45527C14.1092 5.37651 14.1645 5.27364 14.1812 5.16113C14.2264 4.87985 14.0221 4.61946 13.7289 4.57767Z" fill="#FFB525"/>
<path d="M33.8278 4.57767L29.5747 3.98457L27.6734 0.28611C27.6215 0.184848 27.5361 0.102875 27.4305 0.0530477C27.1659 -0.0723237 26.8442 0.0321525 26.7119 0.28611L24.8106 3.98457L20.5575 4.57767C20.4402 4.59374 20.333 4.64679 20.251 4.72715C20.1517 4.82502 20.097 4.95668 20.0989 5.09321C20.1008 5.22974 20.1591 5.35996 20.261 5.45527L23.3382 8.33399L22.6112 12.3989C22.5941 12.4935 22.6051 12.5907 22.6427 12.6796C22.6803 12.7686 22.7431 12.8456 22.8241 12.902C22.905 12.9584 23.0007 12.9919 23.1005 12.9987C23.2003 13.0055 23.3 12.9854 23.3885 12.9406L27.1927 11.0214L30.9969 12.9406C31.1007 12.9936 31.2213 13.0113 31.3369 12.992C31.6284 12.9438 31.8244 12.6786 31.7741 12.3989L31.0471 8.33399L34.1243 5.45527C34.2081 5.37651 34.2633 5.27364 34.2801 5.16113C34.3253 4.87985 34.121 4.61946 33.8278 4.57767Z" fill="#FFB525"/>
<path d="M53.9267 4.57767L49.6736 3.98457L47.7723 0.28611C47.7204 0.184848 47.6349 0.102875 47.5294 0.0530477C47.2647 -0.0723237 46.9431 0.0321525 46.8108 0.28611L44.9095 3.98457L40.6564 4.57767C40.5391 4.59374 40.4319 4.64679 40.3498 4.72715C40.2506 4.82502 40.1959 4.95668 40.1978 5.09321C40.1997 5.22974 40.258 5.35996 40.3599 5.45527L43.4371 8.33399L42.7101 12.3989C42.693 12.4935 42.7039 12.5907 42.7416 12.6796C42.7792 12.7686 42.842 12.8456 42.9229 12.902C43.0038 12.9584 43.0996 12.9919 43.1994 12.9987C43.2991 13.0055 43.3989 12.9854 43.4873 12.9406L47.2915 11.0214L51.0957 12.9406C51.1996 12.9936 51.3202 13.0113 51.4358 12.992C51.7273 12.9438 51.9232 12.6786 51.873 12.3989L51.146 8.33399L54.2232 5.45527C54.3069 5.37651 54.3622 5.27364 54.379 5.16113C54.4242 4.87985 54.2198 4.61946 53.9267 4.57767Z" fill="#FFB525"/>
<path d="M74.0258 4.57767L69.7727 3.98457L67.8714 0.28611C67.8195 0.184848 67.7341 0.102875 67.6285 0.0530477C67.3638 -0.0723237 67.0422 0.0321525 66.9099 0.28611L65.0086 3.98457L60.7555 4.57767C60.6382 4.59374 60.531 4.64679 60.4489 4.72715C60.3497 4.82502 60.295 4.95668 60.2969 5.09321C60.2988 5.22974 60.3571 5.35996 60.459 5.45527L63.5362 8.33399L62.8092 12.3989C62.7921 12.4935 62.8031 12.5907 62.8407 12.6796C62.8783 12.7686 62.9411 12.8456 63.0221 12.902C63.103 12.9584 63.1987 12.9919 63.2985 12.9987C63.3983 13.0055 63.498 12.9854 63.5865 12.9406L67.3907 11.0214L71.1949 12.9406C71.2987 12.9936 71.4193 13.0113 71.5349 12.992C71.8264 12.9438 72.0224 12.6786 71.9721 12.3989L71.2451 8.33399L74.3223 5.45527C74.4061 5.37651 74.4613 5.27364 74.4781 5.16113C74.5233 4.87985 74.319 4.61946 74.0258 4.57767Z" fill="#FFB525"/>
<path opacity="0.2" d="M94.1247 4.57767L89.8716 3.98457L87.9703 0.28611C87.9184 0.184848 87.8329 0.102875 87.7274 0.0530477C87.4627 -0.0723237 87.1411 0.0321525 87.0088 0.28611L85.1075 3.98457L80.8544 4.57767C80.7371 4.59374 80.6299 4.64679 80.5478 4.72715C80.4486 4.82502 80.3939 4.95668 80.3958 5.09321C80.3977 5.22974 80.456 5.35996 80.5579 5.45527L83.6351 8.33399L82.9081 12.3989C82.891 12.4935 82.9019 12.5907 82.9396 12.6796C82.9772 12.7686 83.04 12.8456 83.1209 12.902C83.2018 12.9584 83.2976 12.9919 83.3974 12.9987C83.4971 13.0055 83.5969 12.9854 83.6853 12.9406L87.4895 11.0214L91.2937 12.9406C91.3976 12.9936 91.5182 13.0113 91.6338 12.992C91.9253 12.9438 92.1212 12.6786 92.071 12.3989L91.344 8.33399L94.4212 5.45527C94.5049 5.37651 94.5602 5.27364 94.577 5.16113C94.6222 4.87985 94.4178 4.61946 94.1247 4.57767Z" fill="#FFB525"/>
</svg>
