<svg width="1920" height="588" viewBox="0 0 1920 588" fill="none" xmlns="http://www.w3.org/2000/svg">
<rect x="-1" width="1920" height="483" fill="#34C872"/>
<path opacity="0.15" d="M1894.71 298.35C1871.63 298.35 1852.05 313.28 1845.06 334C1841.13 331.43 1836.45 329.94 1831.41 329.94C1819.56 329.94 1809.65 338.19 1807.08 349.25C1800.94 345.27 1793.62 342.96 1785.76 342.96C1764.06 342.96 1746.47 360.55 1746.47 382.25C1746.47 386.63 1747.2 390.84 1748.52 394.77C1748.19 394.83 1747.87 394.89 1747.55 394.96C1738.2 388.31 1726.77 384.39 1714.43 384.39C1692.86 384.39 1674.08 396.33 1664.32 413.96C1654.48 405.19 1640.97 401.55 1628 403.89C1627.88 403.91 1627.59 403.99 1627.23 404.1C1619.53 404.2 1612.47 406.94 1606.94 411.49C1601.09 389.49 1581.04 373.28 1557.2 373.28C1550.76 373.28 1544.6 374.47 1538.92 376.63C1536.77 367.57 1528.65 360.82 1518.92 360.82C1511.35 360.82 1504.75 364.93 1501.18 371.02C1493.18 352.97 1475.12 340.38 1454.11 340.38C1433.91 340.38 1416.44 352.02 1408.01 368.95C1407.46 368.69 1406.9 368.44 1406.33 368.2C1397.78 352.55 1379.09 344.64 1361.47 350.29C1355.87 352.08 1351.01 355.09 1347.01 358.87C1331.68 343.13 1308.23 336.44 1285.88 343.6C1262.63 351.05 1247.12 371.38 1244.66 394.18C1238.55 388.7 1229.79 386.5 1221.42 389.18C1210.66 392.63 1204.07 402.97 1204.9 413.76C1204.67 413.75 1204.43 413.76 1204.2 413.75C1193.65 395.66 1174.07 383.48 1151.62 383.48C1138.49 383.48 1126.34 387.65 1116.39 394.73C1116.05 394.66 1115.7 394.59 1115.36 394.52C1116.77 390.34 1117.54 385.86 1117.54 381.2C1117.54 358.12 1098.83 339.41 1075.75 339.41C1067.39 339.41 1059.61 341.87 1053.08 346.1C1050.34 334.33 1039.8 325.57 1027.2 325.57C1021.84 325.57 1016.86 327.16 1012.68 329.89C1005.24 307.88 984.42 292 959.88 292C959.77 292 959.66 292.01 959.55 292.01C959.44 292.01 959.33 292 959.22 292C934.68 292 913.86 307.88 906.43 329.91C902.25 327.18 897.27 325.59 891.91 325.59C879.31 325.59 868.77 334.36 866.03 346.12C859.5 341.89 851.72 339.43 843.36 339.43C820.28 339.43 801.57 358.14 801.57 381.22C801.57 385.88 802.34 390.36 803.75 394.54C803.4 394.6 803.06 394.67 802.72 394.75C792.78 387.68 780.62 383.5 767.49 383.5C745.03 383.5 725.46 395.68 714.91 413.77C714.68 413.78 714.44 413.76 714.21 413.78C715.05 402.99 708.45 392.64 697.69 389.2C689.31 386.52 680.56 388.72 674.45 394.2C671.99 371.4 656.48 351.07 633.23 343.62C610.88 336.46 587.43 343.14 572.1 358.89C568.1 355.1 563.24 352.1 557.64 350.31C540.02 344.67 521.33 352.57 512.78 368.22C512.21 368.45 511.66 368.7 511.1 368.97C502.67 352.04 485.2 340.4 465 340.4C443.99 340.4 425.93 353 417.93 371.04C414.36 364.94 407.76 360.84 400.19 360.84C390.47 360.84 382.34 367.59 380.19 376.65C374.51 374.49 368.35 373.3 361.91 373.3C338.07 373.3 318.02 389.51 312.17 411.51C306.64 406.96 299.58 404.23 291.88 404.12C291.52 404.01 291.23 403.94 291.11 403.91C278.15 401.57 264.64 405.21 254.79 413.98C245.04 396.35 226.26 384.41 204.68 384.41C192.33 384.41 180.91 388.33 171.56 394.98C171.24 394.91 170.91 394.84 170.59 394.79C171.91 390.86 172.64 386.65 172.64 382.27C172.64 360.57 155.05 342.98 133.35 342.98C125.49 342.98 118.17 345.3 112.03 349.27C109.45 338.21 99.54 329.96 87.7 329.96C82.66 329.96 77.97 331.46 74.05 334.02C67.05 313.28 47.47 298.35 24.39 298.35C-4.54 298.35 -28 321.81 -28 350.74V587.42H904.16H1014.94H1947.1V350.74C1947.1 321.81 1923.65 298.35 1894.71 298.35Z" fill="url(#paint0_linear_5427_149)"/>
<path opacity="0.15" d="M50.1101 378.22C78.3401 378.22 101.22 401.1 101.22 429.33C101.22 435.9 99.9701 442.18 97.7101 447.95C100.93 448.28 104.04 448.98 107.01 450C106.41 448.05 106.09 445.98 106.09 443.84C106.09 432.28 115.46 422.91 127.02 422.91C138.58 422.91 147.95 432.28 147.95 443.84C147.95 448.85 146.18 453.45 143.24 457.06C144.76 456.76 146.33 456.59 147.95 456.59C161.12 456.59 171.81 467.27 171.81 480.44C171.81 483.33 171.3 486.1 170.35 488.66C170.83 488.64 171.32 488.62 171.81 488.62C184.67 488.62 195.98 495.28 202.48 505.34C207.73 498.44 216.02 493.98 225.36 493.98C233.38 493.98 240.64 497.27 245.85 502.58C244.88 499.9 244.35 497 244.35 493.98C244.35 480 255.69 468.66 269.67 468.66C283.65 468.66 294.98 479.99 294.98 493.98C294.98 494.42 294.96 494.85 294.94 495.28C298.42 493.42 302.28 492.33 306.36 492.33C312.38 492.33 317.94 494.28 322.46 497.56C323.49 496 324.63 494.51 325.86 493.11C325.84 492.46 325.77 491.83 325.77 491.18C325.77 460.77 350.42 436.12 380.84 436.12C391.26 436.12 401.01 439.02 409.31 444.05C418.31 425.9 437.02 413.42 458.66 413.42C461.9 413.42 465.08 413.72 468.17 414.26C471.12 402.22 481.94 393.28 494.88 393.28C510.08 393.28 522.41 405.61 522.41 420.81C522.41 423.08 522.11 425.28 521.59 427.39C526.39 423.3 532.61 420.81 539.42 420.81C546.37 420.81 552.71 423.41 557.55 427.66C571.15 406.96 594.56 393.27 621.19 393.27C663.22 393.27 697.29 427.34 697.29 469.37C697.29 471.9 697.16 474.4 696.92 476.86C700.4 476.17 704.01 475.8 707.69 475.8C722.69 475.8 736.26 481.83 746.19 491.56C747.43 478.73 758.11 468.67 771.26 468.67C785.24 468.67 796.58 480 796.58 493.99C796.58 497.01 796.05 499.9 795.08 502.59C800.29 497.29 807.54 493.99 815.57 493.99C824.91 493.99 833.2 498.45 838.45 505.35C844.95 495.29 856.26 488.63 869.12 488.63C869.61 488.63 870.09 488.65 870.58 488.67C869.64 486.11 869.12 483.34 869.12 480.45C869.12 467.28 879.8 456.6 892.98 456.6C894.59 456.6 896.17 456.76 897.69 457.07C894.75 453.47 892.98 448.87 892.98 443.85C892.98 432.29 902.35 422.92 913.91 422.92C921.07 422.92 927.38 426.51 931.15 431.99V429.35C931.15 401.12 954.04 378.24 982.26 378.24C983.7 378.24 985.12 378.31 986.54 378.43C987.95 378.31 989.37 378.24 990.82 378.24C1019.05 378.24 1041.93 401.12 1041.93 429.35V431.99C1045.71 426.51 1052.02 422.92 1059.17 422.92C1070.73 422.92 1080.1 432.29 1080.1 443.85C1080.1 448.86 1078.33 453.46 1075.39 457.07C1076.91 456.77 1078.48 456.6 1080.1 456.6C1093.27 456.6 1103.96 467.28 1103.96 480.45C1103.96 483.34 1103.45 486.11 1102.5 488.67C1102.98 488.65 1103.47 488.63 1103.96 488.63C1116.82 488.63 1128.13 495.29 1134.63 505.35C1139.87 498.45 1148.17 493.99 1157.51 493.99C1165.53 493.99 1172.79 497.28 1178 502.59C1177.03 499.91 1176.5 497.01 1176.5 493.99C1176.5 480.01 1187.84 468.67 1201.82 468.67C1214.97 468.67 1225.65 478.73 1226.89 491.56C1236.82 481.83 1250.39 475.8 1265.39 475.8C1269.08 475.8 1272.68 476.17 1276.16 476.86C1275.92 474.39 1275.79 471.9 1275.79 469.37C1275.79 427.34 1309.86 393.27 1351.89 393.27C1378.51 393.27 1401.93 406.95 1415.53 427.66C1420.38 423.41 1426.71 420.81 1433.66 420.81C1440.47 420.81 1446.69 423.29 1451.49 427.39C1450.97 425.28 1450.67 423.08 1450.67 420.81C1450.67 405.6 1463 393.28 1478.2 393.28C1491.14 393.28 1501.97 402.22 1504.91 414.26C1508 413.72 1511.18 413.42 1514.42 413.42C1536.06 413.42 1554.77 425.9 1563.77 444.05C1572.08 439.02 1581.82 436.12 1592.24 436.12C1622.65 436.12 1647.31 460.77 1647.31 491.18C1647.31 491.83 1647.24 492.47 1647.22 493.11C1648.46 494.51 1649.59 495.99 1650.62 497.56C1655.15 494.27 1660.7 492.33 1666.72 492.33C1670.8 492.33 1674.66 493.42 1678.14 495.28C1678.12 494.85 1678.1 494.42 1678.1 493.98C1678.1 480 1689.43 468.66 1703.41 468.66C1717.39 468.66 1728.73 479.99 1728.73 493.98C1728.73 497 1728.2 499.89 1727.23 502.58C1732.44 497.28 1739.69 493.98 1747.72 493.98C1757.06 493.98 1765.35 498.44 1770.6 505.34C1777.1 495.28 1788.41 488.62 1801.27 488.62C1801.76 488.62 1802.24 488.64 1802.73 488.66C1801.79 486.1 1801.27 483.33 1801.27 480.44C1801.27 467.27 1811.95 456.59 1825.13 456.59C1826.74 456.59 1828.31 456.75 1829.84 457.06C1826.9 453.46 1825.13 448.86 1825.13 443.84C1825.13 432.28 1834.5 422.91 1846.06 422.91C1857.62 422.91 1866.99 432.28 1866.99 443.84C1866.99 445.98 1866.67 448.05 1866.07 450C1869.04 448.98 1872.15 448.28 1875.37 447.95C1873.11 442.18 1871.86 435.9 1871.86 429.33C1871.86 401.1 1894.74 378.22 1922.97 378.22C1951.21 378.22 1974.1 401.1 1974.1 429.33V587.42H1041.94H931.16H-0.999878V429.33C-0.999878 401.1 21.8801 378.22 50.1101 378.22Z" fill="url(#paint1_linear_5427_149)"/>
<g opacity="0.6">
<path d="M1463.98 195.229L1419.33 208.359C1419.09 208.429 1418.89 208.591 1418.79 208.818C1418.57 209.313 1418.89 209.836 1419.36 209.935L1431.43 212.481C1431.43 212.481 1431.43 212.482 1431.43 212.483L1438.61 227.936C1438.86 228.47 1439.61 228.562 1439.98 228.095L1448.02 217.877C1448.02 217.876 1448.02 217.876 1448.03 217.876L1456.4 219.721C1456.8 219.809 1457.21 219.574 1457.34 219.187L1461.72 206.064C1461.86 205.64 1461.63 205.182 1461.2 205.041C1460.78 204.899 1460.32 205.128 1460.18 205.552L1456.04 217.981C1456.04 217.983 1456.04 217.984 1456.03 217.984L1439.33 214.305C1439.33 214.304 1439.33 214.3 1439.33 214.298L1462.67 198.065C1462.67 198.063 1462.68 198.066 1462.68 198.069L1461.44 201.783C1461.3 202.206 1461.5 202.684 1461.92 202.835C1462.35 202.99 1462.82 202.761 1462.96 202.331L1464.98 196.259C1465 196.221 1465.01 196.181 1465.01 196.141C1465.12 195.556 1464.55 195.063 1463.98 195.229ZM1446.26 217.488C1446.27 217.488 1446.27 217.492 1446.27 217.494L1439.86 225.627C1439.86 225.629 1439.85 225.628 1439.85 225.625L1438.33 215.744C1438.33 215.742 1438.33 215.739 1438.33 215.74L1446.26 217.488ZM1455.03 201.407L1436.88 214.031C1436.63 214.205 1436.5 214.517 1436.55 214.818L1437.66 222.049C1437.66 222.054 1437.66 222.056 1437.66 222.052L1433.06 212.155C1433.06 212.153 1433.06 212.151 1433.06 212.15L1455.03 201.401C1455.03 201.399 1455.04 201.405 1455.03 201.407ZM1455.25 199.491L1431.89 210.924C1431.89 210.925 1431.88 210.925 1431.88 210.925L1422.85 209.018C1422.85 209.018 1422.85 209.012 1422.85 209.011L1455.25 199.484C1455.25 199.483 1455.25 199.489 1455.25 199.491Z" fill="white"/>
<path d="M1439.17 228.473C1425 237.639 1392.87 250.873 1377.67 230.473C1358.67 204.973 1419.67 212.973 1420.17 248.473C1420.57 276.873 1390.67 280.973 1375.67 279.473" stroke="white" stroke-dasharray="3 3"/>
</g>
<g opacity="0.25" clip-path="url(#clip0_5427_149)">
<path opacity="0.21" d="M101.88 156.529C105.111 136.39 91.4041 117.445 71.2652 114.215C51.1263 110.984 32.1815 124.691 28.9508 144.83C25.7201 164.969 39.4269 183.913 59.5658 187.144C79.7046 190.375 98.6494 176.668 101.88 156.529Z" fill="white"/>
<path opacity="0.76" d="M94.3499 153.33C95.6399 153.33 96.6799 152.28 96.6799 151C96.6799 132.37 81.5199 117.21 62.8899 117.21C61.5999 117.21 60.5599 118.26 60.5599 119.54C60.5599 120.83 61.5999 121.87 62.8899 121.87C78.9499 121.87 92.0099 134.93 92.0099 150.99C92.0199 152.29 93.0599 153.33 94.3499 153.33Z" fill="white"/>
<path opacity="0.58" d="M27.3099 150.68C27.3099 129.67 44.3999 112.58 65.4099 112.58C86.4199 112.58 103.51 129.67 103.51 150.68C103.51 171.69 86.4199 188.78 65.4099 188.78C44.3999 188.78 27.3099 171.69 27.3099 150.68ZM29.6399 150.68C29.6399 170.4 45.6799 186.44 65.3999 186.44C85.1199 186.44 101.16 170.4 101.16 150.68C101.16 130.96 85.1299 114.92 65.4099 114.92C45.6899 114.92 29.6399 130.96 29.6399 150.68Z" fill="white"/>
<path d="M34.2 179.88L39.19 184.87C46.46 190.45 55.54 193.78 65.41 193.78C89.21 193.78 108.51 174.48 108.51 150.68C108.51 126.88 89.21 107.58 65.41 107.58C41.61 107.58 22.31 126.88 22.31 150.68C22.31 160.59 25.66 169.72 31.29 177C31.35 177.05 31.41 177.09 31.47 177.14L34.2 179.88ZM28.48 150.68C28.48 130.28 45.01 113.75 65.41 113.75C85.81 113.75 102.34 130.28 102.34 150.68C102.34 171.08 85.81 187.61 65.41 187.61C45.01 187.61 28.48 171.08 28.48 150.68Z" fill="white"/>
<path d="M38.83 185.33L31.05 177.56C31.02 177.53 30.99 177.51 30.94 177.47L30.83 177.36C24.88 169.65 21.73 160.43 21.73 150.69C21.73 126.6 41.32 107 65.41 107C89.5 107 109.09 126.6 109.09 150.68C109.09 174.76 89.5 194.36 65.41 194.36C55.71 194.36 46.52 191.24 38.83 185.33ZM22.9 150.68C22.9 160.14 25.95 169.09 31.71 176.58C31.77 176.63 31.83 176.67 31.88 176.73L39.58 184.43C47.06 190.17 55.99 193.2 65.42 193.2C88.86 193.2 107.93 174.13 107.93 150.69C107.93 127.25 88.85 108.17 65.41 108.17C41.97 108.17 22.9 127.24 22.9 150.68ZM27.89 150.68C27.89 129.99 44.72 113.16 65.41 113.16C86.1 113.16 102.93 129.99 102.93 150.68C102.93 171.37 86.1 188.2 65.41 188.2C44.72 188.2 27.89 171.37 27.89 150.68ZM29.06 150.68C29.06 170.72 45.37 187.03 65.41 187.03C85.45 187.03 101.76 170.72 101.76 150.68C101.76 130.64 85.45 114.33 65.41 114.33C45.37 114.33 29.06 130.64 29.06 150.68Z" fill="white"/>
<path d="M32.5299 183.88L34.1999 182.21C34.8399 181.57 34.8399 180.52 34.1999 179.88L39.1899 184.87L39.2699 184.95C39.9099 185.59 39.9099 186.64 39.2699 187.28L37.2399 189.31C36.5699 188.18 34.6099 185.99 32.5299 183.88Z" fill="white"/>
<path d="M34.1999 179.88C34.8399 180.52 34.8399 181.57 34.1999 182.21L32.5299 183.88C30.5099 181.84 28.3899 179.89 27.1899 179.08L29.1299 177.14C29.7199 176.55 30.6399 176.51 31.2799 177C31.3399 177.05 31.3999 177.09 31.4599 177.14L34.1999 179.88Z" fill="white"/>
<path opacity="0.43" d="M34.1999 179.88C34.8399 180.52 34.8399 181.57 34.1999 182.21L32.5299 183.88C30.5099 181.84 28.3899 179.89 27.1899 179.08L29.1299 177.14C29.7199 176.55 30.6399 176.51 31.2799 177C31.3399 177.05 31.3999 177.09 31.4599 177.14L34.1999 179.88Z" fill="white"/>
<path d="M-4.08004 209.4L26.27 178.72C26.38 178.61 26.71 178.76 27.19 179.08C28.38 179.89 30.51 181.84 32.53 183.88C34.61 185.99 36.57 188.18 37.24 189.3C37.46 189.66 37.54 189.92 37.45 190.01L7.09996 220.7C4.00996 223.82 -0.990042 223.82 -4.07004 220.7C-7.16004 217.58 -7.16004 212.52 -4.08004 209.4Z" fill="white"/>
<path opacity="0.14" d="M-4.08001 220.7C-0.990015 223.82 35.63 187.08 33.11 184.47C30.14 181.41 26.68 178.31 26.27 178.72L-4.08001 209.4C-7.16001 212.52 -7.16001 217.58 -4.08001 220.7Z" fill="white"/>
</g>
<defs>
<linearGradient id="paint0_linear_5427_149" x1="959.552" y1="296.583" x2="959.552" y2="556.723" gradientUnits="userSpaceOnUse">
<stop stop-color="white"/>
<stop offset="1" stop-color="white" stop-opacity="0"/>
</linearGradient>
<linearGradient id="paint1_linear_5427_149" x1="986.548" y1="379.306" x2="986.548" y2="598.347" gradientUnits="userSpaceOnUse">
<stop stop-color="white"/>
<stop offset="1" stop-color="white" stop-opacity="0"/>
</linearGradient>
<clipPath id="clip0_5427_149">
<rect width="190.09" height="116.04" fill="white" transform="translate(-81 107)"/>
</clipPath>
</defs>
</svg>
