<svg width="320" height="518" viewBox="0 0 320 518" fill="none" xmlns="http://www.w3.org/2000/svg">
<rect width="320" height="501" fill="#34C872"/>
<path opacity="0.15" d="M689.65 383.945C678.947 383.945 669.867 390.869 666.625 400.477C664.803 399.286 662.632 398.595 660.295 398.595C654.8 398.595 650.204 402.42 649.012 407.549C646.165 405.704 642.77 404.633 639.125 404.633C629.062 404.633 620.904 412.79 620.904 422.853C620.904 424.884 621.243 426.837 621.855 428.659C621.702 428.687 621.554 428.715 621.405 428.747C617.069 425.663 611.768 423.846 606.046 423.846C596.043 423.846 587.334 429.383 582.807 437.559C578.244 433.491 571.979 431.803 565.964 432.889C565.909 432.898 565.774 432.935 565.607 432.986C562.036 433.032 558.762 434.303 556.198 436.413C553.485 426.211 544.187 418.693 533.131 418.693C530.144 418.693 527.288 419.245 524.654 420.247C523.657 416.045 519.891 412.915 515.379 412.915C511.868 412.915 508.807 414.821 507.152 417.645C503.442 409.275 495.067 403.436 485.323 403.436C475.956 403.436 467.854 408.834 463.945 416.685C463.69 416.565 463.43 416.449 463.166 416.337C459.201 409.08 450.533 405.412 442.362 408.032C439.765 408.862 437.511 410.258 435.656 412.011C428.547 404.711 417.672 401.609 407.307 404.929C396.525 408.384 389.332 417.812 388.192 428.386C385.358 425.844 381.296 424.824 377.414 426.067C372.424 427.667 369.368 432.462 369.753 437.466C369.646 437.461 369.535 437.466 369.428 437.461C364.536 429.072 355.456 423.424 345.045 423.424C338.956 423.424 333.321 425.357 328.707 428.641C328.549 428.608 328.387 428.576 328.229 428.543C328.883 426.605 329.24 424.527 329.24 422.366C329.24 411.663 320.563 402.986 309.86 402.986C305.983 402.986 302.375 404.127 299.347 406.089C298.076 400.63 293.189 396.568 287.345 396.568C284.86 396.568 282.55 397.305 280.612 398.571C277.161 388.364 267.506 381 256.126 381C256.075 381 256.024 381.005 255.973 381.005C255.922 381.005 255.871 381 255.82 381C244.439 381 234.784 388.364 231.339 398.581C229.4 397.315 227.091 396.577 224.605 396.577C218.762 396.577 213.874 400.644 212.603 406.098C209.575 404.136 205.967 402.995 202.09 402.995C191.387 402.995 182.71 411.672 182.71 422.375C182.71 424.537 183.067 426.614 183.721 428.553C183.559 428.58 183.401 428.613 183.243 428.65C178.634 425.371 172.995 423.433 166.906 423.433C156.49 423.433 147.414 429.081 142.522 437.47C142.415 437.475 142.304 437.466 142.197 437.475C142.587 432.471 139.526 427.671 134.536 426.076C130.65 424.833 126.592 425.854 123.759 428.395C122.618 417.821 115.425 408.394 104.643 404.939C94.2784 401.618 83.4035 404.716 76.2943 412.02C74.4393 410.262 72.1855 408.871 69.5885 408.041C61.4173 405.426 52.7499 409.089 48.7849 416.347C48.5205 416.453 48.2654 416.569 48.0057 416.695C44.0964 408.843 35.9947 403.445 26.627 403.445C16.8837 403.445 8.50845 409.289 4.79848 417.655C3.14291 414.826 0.0821838 412.924 -3.42838 412.924C-7.93599 412.924 -11.7063 416.055 -12.7033 420.256C-15.3374 419.254 -18.1941 418.703 -21.1806 418.703C-32.2363 418.703 -41.5344 426.22 -44.2473 436.422C-46.8119 434.312 -50.0859 433.046 -53.6568 432.995C-53.8237 432.944 -53.9582 432.912 -54.0139 432.898C-60.024 431.813 -66.2892 433.501 -70.8571 437.568C-75.3786 429.392 -84.0878 423.855 -94.0955 423.855C-99.8227 423.855 -105.119 425.673 -109.455 428.757C-109.603 428.724 -109.756 428.692 -109.905 428.669C-109.292 426.846 -108.954 424.894 -108.954 422.862C-108.954 412.799 -117.111 404.642 -127.174 404.642C-130.82 404.642 -134.214 405.718 -137.062 407.559C-138.258 402.43 -142.854 398.604 -148.345 398.604C-150.682 398.604 -152.857 399.299 -154.675 400.487C-157.921 390.869 -167.001 383.945 -177.704 383.945C-191.121 383.945 -202 394.824 -202 408.24V518H230.286H281.66H713.946V408.24C713.946 394.824 703.071 383.945 689.65 383.945Z" fill="url(#paint0_linear_5448_19)"/>
<path opacity="0.15" d="M-165.777 420.984C-152.685 420.984 -142.075 431.595 -142.075 444.686C-142.075 447.733 -142.654 450.646 -143.702 453.321C-142.209 453.474 -140.767 453.799 -139.39 454.272C-139.668 453.368 -139.816 452.408 -139.816 451.415C-139.816 446.055 -135.471 441.709 -130.11 441.709C-124.749 441.709 -120.404 446.055 -120.404 451.415C-120.404 453.739 -121.225 455.872 -122.588 457.546C-121.883 457.407 -121.155 457.328 -120.404 457.328C-114.296 457.328 -109.339 462.281 -109.339 468.389C-109.339 469.729 -109.575 471.013 -110.016 472.201C-109.793 472.191 -109.566 472.182 -109.339 472.182C-103.375 472.182 -98.1301 475.271 -95.1157 479.936C-92.681 476.736 -88.8365 474.668 -84.5052 474.668C-80.7859 474.668 -77.4191 476.193 -75.003 478.656C-75.4528 477.413 -75.6986 476.068 -75.6986 474.668C-75.6986 468.184 -70.4398 462.926 -63.9566 462.926C-57.4734 462.926 -52.2191 468.18 -52.2191 474.668C-52.2191 474.872 -52.2285 475.071 -52.2377 475.271C-50.6238 474.408 -48.8338 473.902 -46.9417 473.902C-44.15 473.902 -41.5715 474.807 -39.4754 476.328C-38.9977 475.604 -38.4691 474.913 -37.8986 474.264C-37.9079 473.963 -37.9404 473.671 -37.9404 473.369C-37.9404 459.267 -26.509 447.835 -12.4019 447.835C-7.56964 447.835 -3.0481 449.18 0.800964 451.513C4.97473 443.096 13.6514 437.308 23.687 437.308C25.1895 437.308 26.6641 437.447 28.0971 437.698C29.4651 432.114 34.4829 427.968 40.4838 427.968C47.5328 427.968 53.2508 433.686 53.2508 440.735C53.2508 441.788 53.1116 442.808 52.8705 443.787C55.0964 441.89 57.9809 440.735 61.139 440.735C64.3621 440.735 67.3022 441.941 69.5468 443.912C75.8537 434.312 86.71 427.964 99.0596 427.964C118.551 427.964 134.351 443.764 134.351 463.255C134.351 464.428 134.29 465.588 134.179 466.728C135.793 466.408 137.467 466.237 139.174 466.237C146.13 466.237 152.423 469.033 157.028 473.545C157.603 467.596 162.556 462.93 168.654 462.93C175.137 462.93 180.396 468.184 180.396 474.672C180.396 476.073 180.15 477.413 179.701 478.661C182.117 476.203 185.479 474.672 189.203 474.672C193.534 474.672 197.378 476.741 199.813 479.94C202.828 475.275 208.073 472.187 214.036 472.187C214.264 472.187 214.486 472.196 214.713 472.205C214.277 471.018 214.036 469.733 214.036 468.393C214.036 462.286 218.989 457.333 225.101 457.333C225.848 457.333 226.581 457.407 227.286 457.551C225.922 455.881 225.101 453.748 225.101 451.42C225.101 446.059 229.447 441.714 234.808 441.714C238.128 441.714 241.054 443.379 242.803 445.92V444.696C242.803 431.604 253.418 420.994 266.505 420.994C267.172 420.994 267.831 421.026 268.489 421.082C269.143 421.026 269.802 420.994 270.474 420.994C283.566 420.994 294.176 431.604 294.176 444.696V445.92C295.929 443.379 298.856 441.714 302.171 441.714C307.532 441.714 311.878 446.059 311.878 451.42C311.878 453.743 311.057 455.877 309.693 457.551C310.398 457.412 311.126 457.333 311.878 457.333C317.985 457.333 322.943 462.286 322.943 468.393C322.943 469.733 322.706 471.018 322.265 472.205C322.488 472.196 322.715 472.187 322.943 472.187C328.906 472.187 334.151 475.275 337.166 479.94C339.596 476.741 343.445 474.672 347.776 474.672C351.495 474.672 354.862 476.198 357.278 478.661C356.828 477.418 356.583 476.073 356.583 474.672C356.583 468.189 361.842 462.93 368.325 462.93C374.423 462.93 379.376 467.596 379.951 473.545C384.556 469.033 390.849 466.237 397.805 466.237C399.516 466.237 401.186 466.408 402.8 466.728C402.688 465.583 402.628 464.428 402.628 463.255C402.628 443.764 418.428 427.964 437.919 427.964C450.264 427.964 461.125 434.308 467.432 443.912C469.681 441.941 472.617 440.735 475.84 440.735C478.998 440.735 481.882 441.885 484.108 443.787C483.867 442.808 483.728 441.788 483.728 440.735C483.728 433.682 489.446 427.968 496.495 427.968C502.496 427.968 507.518 432.114 508.882 437.698C510.315 437.447 511.789 437.308 513.292 437.308C523.327 437.308 532.004 443.096 536.178 451.513C540.032 449.18 544.548 447.835 549.381 447.835C563.483 447.835 574.919 459.267 574.919 473.369C574.919 473.671 574.887 473.967 574.877 474.264C575.452 474.913 575.977 475.6 576.454 476.328C578.555 474.802 581.129 473.902 583.921 473.902C585.813 473.902 587.603 474.408 589.217 475.271C589.207 475.071 589.198 474.872 589.198 474.668C589.198 468.184 594.452 462.926 600.935 462.926C607.419 462.926 612.677 468.18 612.677 474.668C612.677 476.068 612.432 477.408 611.982 478.656C614.398 476.198 617.76 474.668 621.484 474.668C625.815 474.668 629.66 476.736 632.095 479.936C635.109 475.271 640.354 472.182 646.318 472.182C646.545 472.182 646.767 472.191 646.995 472.201C646.559 471.013 646.318 469.729 646.318 468.389C646.318 462.281 651.27 457.328 657.383 457.328C658.129 457.328 658.857 457.402 659.567 457.546C658.203 455.877 657.383 453.743 657.383 451.415C657.383 446.055 661.728 441.709 667.089 441.709C672.45 441.709 676.795 446.055 676.795 451.415C676.795 452.408 676.647 453.368 676.368 454.272C677.746 453.799 679.188 453.474 680.681 453.321C679.633 450.646 679.053 447.733 679.053 444.686C679.053 431.595 689.664 420.984 702.756 420.984C715.852 420.984 726.467 431.595 726.467 444.686V518H294.181H242.807H-189.479V444.686C-189.479 431.595 -178.868 420.984 -165.777 420.984Z" fill="url(#paint1_linear_5448_19)"/>
<g opacity="0.6">
<path d="M300.58 24.1834L265.06 34.628C264.871 34.6835 264.708 34.8126 264.629 34.9927C264.457 35.3863 264.708 35.8023 265.084 35.8817L274.681 37.9066C274.682 37.9068 274.683 37.9075 274.683 37.9084L280.393 50.2005C280.594 50.6257 281.19 50.6985 281.482 50.3274L287.883 42.1993C287.884 42.1984 287.885 42.198 287.886 42.1982L294.547 43.6657C294.865 43.7356 295.193 43.5494 295.296 43.2409L298.776 32.8018C298.888 32.4648 298.706 32.1004 298.369 31.988C298.032 31.8756 297.668 32.0578 297.556 32.3949L294.259 42.2821C294.259 42.2836 294.257 42.2845 294.256 42.2841L280.972 39.3575C280.969 39.3569 280.968 39.3534 280.971 39.3518L299.535 26.4389C299.538 26.4372 299.541 26.4396 299.54 26.4424L298.555 29.397C298.443 29.733 298.604 30.1134 298.937 30.2337C299.278 30.3571 299.652 30.1744 299.766 29.8323L301.376 25.0026C301.386 24.9722 301.394 24.9403 301.4 24.9086C301.48 24.443 301.03 24.0512 300.58 24.1834ZM286.484 41.8893C286.486 41.8898 286.487 41.8925 286.485 41.8943L281.391 48.3638C281.389 48.3659 281.386 48.365 281.385 48.3623L280.17 40.5026C280.169 40.5004 280.171 40.4986 280.174 40.499L286.484 41.8893ZM293.459 29.0979L279.022 39.1396C278.823 39.2784 278.717 39.526 278.754 39.766L279.644 45.5182C279.644 45.5218 279.639 45.5232 279.638 45.52L275.981 37.6475C275.98 37.6459 275.98 37.6441 275.982 37.6434L293.456 29.0925C293.46 29.0908 293.462 29.0957 293.459 29.0979ZM293.632 27.5738L275.047 36.6683C275.047 36.6686 275.046 36.6687 275.045 36.6686L267.859 35.1522C267.856 35.1516 267.855 35.1471 267.858 35.1462L293.63 27.568C293.634 27.5669 293.636 27.5722 293.632 27.5738Z" fill="white"/>
<path d="M280.839 50.6264C269.569 57.9183 244.008 68.4451 231.917 52.2174C216.803 31.9327 265.327 38.2965 265.725 66.536C266.043 89.1276 242.258 92.389 230.326 91.1958" stroke="white" stroke-dasharray="3 3"/>
</g>
<defs>
<linearGradient id="paint0_linear_5448_19" x1="255.974" y1="383.125" x2="255.974" y2="503.764" gradientUnits="userSpaceOnUse">
<stop stop-color="white"/>
<stop offset="1" stop-color="white" stop-opacity="0"/>
</linearGradient>
<linearGradient id="paint1_linear_5448_19" x1="268.493" y1="421.488" x2="268.493" y2="523.067" gradientUnits="userSpaceOnUse">
<stop stop-color="white"/>
<stop offset="1" stop-color="white" stop-opacity="0"/>
</linearGradient>
</defs>
</svg>
