<svg width="1920" height="707" viewBox="0 0 1920 707" fill="none" xmlns="http://www.w3.org/2000/svg">
<rect width="1920" height="707" fill="#E9F9F0"/>
<path opacity="0.15" fill-rule="evenodd" clip-rule="evenodd" d="M1802.39 216.065C1802.87 217.886 1804.75 218.967 1806.57 218.479L1939.06 182.977C1940.89 182.489 1941.97 180.616 1941.48 178.795L1905.98 46.2986C1905.49 44.4768 1903.62 43.3957 1901.79 43.8838L1769.3 79.386C1767.48 79.8742 1766.4 81.7468 1766.88 83.5686L1802.39 216.065ZM1900.54 157.945L1827.42 177.538L1807.83 104.418L1880.95 84.8253L1900.54 157.945Z" fill="url(#paint0_linear_5423_123)" fill-opacity="0.5"/>
<path opacity="0.08" fill-rule="evenodd" clip-rule="evenodd" d="M7.04374 118.321C6.08909 119.275 6.0891 120.823 7.04374 121.778L142.446 257.18C143.4 258.134 144.948 258.134 145.903 257.18L214.18 188.903C215.134 187.948 215.134 186.4 214.18 185.446L78.7779 50.0437C77.8232 49.0891 76.2755 49.0891 75.3208 50.0437L7.04374 118.321ZM144.174 235.861L28.3624 120.049L77.0494 71.3624L192.861 187.174L144.174 235.861Z" fill="url(#paint1_linear_5423_123)"/>
<rect opacity="0.1" x="64" y="596" width="44.6707" height="44.6707" rx="6" fill="url(#paint2_linear_5423_123)"/>
<rect opacity="0.1" x="1869.04" y="696.215" width="177.354" height="133.376" rx="10" transform="rotate(-150 1869.04 696.215)" fill="url(#paint3_linear_5423_123)"/>
<defs>
<linearGradient id="paint0_linear_5423_123" x1="1896.38" y1="67.3477" x2="1797.05" y2="153.143" gradientUnits="userSpaceOnUse">
<stop stop-color="#F3FCF7"/>
<stop offset="1" stop-color="#34C872"/>
</linearGradient>
<linearGradient id="paint1_linear_5423_123" x1="53.6398" y1="142.799" x2="187.549" y2="99.6595" gradientUnits="userSpaceOnUse">
<stop stop-color="#F3FCF7"/>
<stop offset="1" stop-color="#34C872"/>
</linearGradient>
<linearGradient id="paint2_linear_5423_123" x1="50.2938" y1="636.149" x2="85.9212" y2="649.138" gradientUnits="userSpaceOnUse">
<stop stop-color="#FAFEFF"/>
<stop offset="1" stop-color="#34C872"/>
</linearGradient>
<linearGradient id="paint3_linear_5423_123" x1="1805.46" y1="872.586" x2="2028.27" y2="912.241" gradientUnits="userSpaceOnUse">
<stop stop-color="#FAFEFF"/>
<stop offset="1" stop-color="#94E69A"/>
</linearGradient>
</defs>
</svg>
