<svg width="70" height="70" viewBox="0 0 70 70" fill="none" xmlns="http://www.w3.org/2000/svg">
<circle cx="35" cy="35" r="35" fill="#34C872"/>
<path d="M49.625 34.4375C49.625 35.6562 48.9648 36.7226 47.9492 37.2812V45C47.9492 45.5078 47.5938 46.625 46.3242 46.625C45.9688 46.625 45.6133 46.5234 45.3594 46.2695L40.9922 42.8164C38.8594 41.0898 36.1172 40.125 33.375 40.125H31.9023C31.8008 40.6835 31.6992 41.1914 31.6992 41.75C31.6992 43.2734 32.207 44.5937 33.0195 45.7109C33.832 46.7773 33.0195 48.25 31.6992 48.25H27.9414C27.332 48.25 26.7734 47.9453 26.5195 47.3867C25.6562 45.7109 25.1992 43.7812 25.1992 41.75C25.1992 41.2421 25.25 40.6835 25.3008 40.125H23.625C21.7969 40.125 20.375 38.7031 20.375 36.875V32C20.375 30.2226 21.7969 28.75 23.625 28.75H33.375C36.1172 28.75 38.8594 27.8359 40.9922 26.1093L45.3594 22.6562C45.6133 22.4023 45.9688 22.25 46.375 22.25C47.6445 22.25 48 23.4687 48 23.9257V31.6445C48.9648 32.2031 49.625 33.2695 49.625 34.4375ZM44.75 41.6484V27.2773L43.0234 28.6484C40.2812 30.832 36.8789 32 33.375 32V36.875C36.8789 36.875 40.2812 38.0937 43.0234 40.2773L44.75 41.6484Z" fill="white"/>
</svg>
