<svg width="70" height="70" viewBox="0 0 70 70" fill="none" xmlns="http://www.w3.org/2000/svg">
<circle cx="35" cy="35" r="35" fill="#FE5A4E"/>
<path d="M42.7109 38.957C43.1172 38.957 43.3711 38.8047 43.5234 38.3984C43.6758 37.9922 43.625 37.6875 43.3711 37.3828L28.8984 22.5039C28.5938 22.25 28.2891 22.1992 27.9336 22.3515C27.5273 22.5039 27.375 22.7578 27.375 23.164V45C27.375 45.4062 27.5273 45.7109 27.9336 45.8633C28.2891 46.0664 28.5938 45.9648 28.8984 45.6601L33.3164 41.1406L36.0078 47.6914C36.1094 47.9453 36.2617 48.0976 36.5156 48.1992C36.7188 48.3008 36.9727 48.3008 37.1758 48.1992L39.6641 47.082C39.8672 46.9804 40.0703 46.8281 40.1719 46.5742C40.2734 46.3711 40.2734 46.1172 40.1719 45.8633L37.3281 38.957H42.7109Z" fill="white"/>
</svg>
