<svg width="35" height="35" viewBox="0 0 35 35" fill="none" xmlns="http://www.w3.org/2000/svg">
<circle opacity="0.1" cx="17.5" cy="17.5" r="17" stroke="#044072"/>
<path opacity="0.8" d="M22.6543 14.4844C23.1621 14.1035 23.6191 13.6465 24 13.0879C23.4922 13.3164 22.9844 13.4688 22.4766 13.5195C23.0352 13.1641 23.4414 12.6816 23.6445 12.0469C23.1113 12.3516 22.5527 12.5801 21.9434 12.6816C21.6895 12.4277 21.3848 12.2246 21.0547 12.0723C20.7246 11.9199 20.3691 11.8438 19.9883 11.8438C19.5059 11.8438 19.0742 11.9707 18.668 12.1992C18.2617 12.4531 17.9316 12.7832 17.7031 13.1895C17.4492 13.5957 17.3477 14.0527 17.3477 14.5098C17.3477 14.7129 17.3477 14.916 17.3984 15.1191C16.3066 15.0684 15.291 14.8145 14.3262 14.3066C13.3613 13.8242 12.5742 13.1641 11.9141 12.3262C11.6602 12.7578 11.5332 13.2148 11.5332 13.6719C11.5332 14.1289 11.6348 14.5605 11.8633 14.9414C12.0664 15.3477 12.3711 15.6523 12.7266 15.9062C12.2949 15.9062 11.8887 15.7793 11.5332 15.5508V15.6016C11.5332 16.2363 11.7363 16.7949 12.1426 17.2773C12.5488 17.7852 13.0566 18.0898 13.666 18.2168C13.4121 18.2676 13.1836 18.293 12.9551 18.293C12.8027 18.293 12.625 18.293 12.4727 18.2676C12.625 18.8008 12.9297 19.2324 13.3867 19.5879C13.8438 19.9434 14.3516 20.0957 14.9609 20.0957C13.9707 20.8574 12.8535 21.2383 11.6348 21.2383C11.3809 21.2383 11.1777 21.2383 11 21.2129C12.2188 22.0254 13.5898 22.4062 15.0879 22.4062C16.6367 22.4062 18.0078 22.0254 19.2266 21.2129C20.3184 20.502 21.1816 19.5625 21.791 18.3438C22.375 17.2266 22.6797 16.0332 22.6797 14.8145C22.6797 14.6621 22.6543 14.5605 22.6543 14.4844Z" fill="#5D83A3"/>
</svg>
