<svg width="70" height="70" viewBox="0 0 70 70" fill="none" xmlns="http://www.w3.org/2000/svg">
<circle cx="35" cy="35" r="35" fill="#06589C"/>
<path d="M33 29.6667H30.3333C29.9653 29.6667 29.6666 29.9654 29.6666 30.3334V38.3334C29.6666 38.7014 29.9653 39 30.3333 39H33C33.368 39 33.6667 38.7014 33.6667 38.3334V30.3334C33.6667 29.9654 33.368 29.6667 33 29.6667Z" fill="white"/>
<path d="M27.6667 33.6667H25.0001C24.6321 33.6667 24.3334 33.9654 24.3334 34.3334V38.3334C24.3334 38.7014 24.6321 39 25.0001 39H27.6667C28.0347 39 28.3334 38.7014 28.3334 38.3334V34.3334C28.3334 33.9654 28.0347 33.6667 27.6667 33.6667Z" fill="white"/>
<path d="M38.3334 25.6667H35.6667C35.2987 25.6667 35 25.9654 35 26.3334V38.3334C35 38.7014 35.2987 39 35.6667 39H38.3334C38.7014 39 39.0001 38.7014 39.0001 38.3334V26.3334C39.0001 25.9654 38.7014 25.6667 38.3334 25.6667Z" fill="white"/>
<path d="M50.6093 48.724L42.6507 40.7653C44.5334 38.4666 45.6667 35.5306 45.6667 32.3333C45.6667 24.9813 39.6854 19 32.3334 19C24.9814 19 19 24.9813 19 32.3333C19 39.6853 24.9813 45.6666 32.3333 45.6666C35.5306 45.6666 38.4666 44.5333 40.7653 42.6506L48.724 50.6093C48.984 50.8693 49.3253 51 49.6667 51C50.0081 51 50.3494 50.8693 50.6094 50.6093C51.1307 50.088 51.1307 49.2453 50.6093 48.724ZM32.3333 43C26.452 43 21.6666 38.2147 21.6666 32.3333C21.6666 26.4519 26.452 21.6666 32.3333 21.6666C38.2146 21.6666 43 26.452 43 32.3333C43 38.2146 38.2147 43 32.3333 43Z" fill="white"/>
</svg>
