<svg width="139" height="119" viewBox="0 0 139 119" fill="none" xmlns="http://www.w3.org/2000/svg">
<path d="M17.358 38.0834C22.4688 30.5064 28.7299 23.7078 36.1152 18.0596C56.1609 2.74118 83.4969 -1.71336 103.569 16.1048C114.906 26.1729 125.084 39.5625 128.345 54.6474C131.553 69.4987 125.448 91.4687 108.109 94.2365C96.7108 96.0616 84.9238 92.0482 73.7334 95.7502C61.0037 99.9626 50.6436 109.278 37.6977 113.214C28.0294 116.155 15.8878 115.869 8.23444 108.465C1.57558 102.021 -0.0415682 91.8146 1.08266 82.6115C3.02843 66.7568 8.46794 51.2481 17.358 38.0834Z" fill="#E7F0F8"/>
<path d="M19.615 20.2998C24.969 20.2998 29.3093 15.9587 29.3093 10.6037C29.3093 5.2486 24.969 0.907471 19.615 0.907471C14.261 0.907471 9.92078 5.2486 9.92078 10.6037C9.92078 15.9587 14.261 20.2998 19.615 20.2998Z" fill="#E7F0F8"/>
<path d="M132.366 33.1965C135.552 33.1965 138.134 30.6135 138.134 27.4272C138.134 24.241 135.552 21.658 132.366 21.658C129.18 21.658 126.598 24.241 126.598 27.4272C126.598 30.6135 129.18 33.1965 132.366 33.1965Z" fill="#E7F0F8"/>
<path d="M69.0203 114.935C69.0203 117.167 67.2129 118.974 64.9818 118.974C62.7506 118.974 60.9432 117.167 60.9432 114.935C60.9432 112.704 62.7506 110.896 64.9818 110.896C67.2129 110.896 69.0203 112.704 69.0203 114.935Z" fill="#E7F0F8"/>
<g clip-path="url(#clip0_5423_125)">
<path d="M44.9456 40.4036V95.1484C44.9456 97.8778 47.1581 100.09 49.8875 100.09H96.8369C99.5663 100.09 101.779 97.8778 101.779 95.1484V40.4036H44.9456Z" fill="#F9F5F3"/>
<path d="M98.3483 40.4036V95.1484C98.3483 97.8778 96.1358 100.09 93.4064 100.09H96.8369C99.5663 100.09 101.779 97.8778 101.779 95.1484V40.4036H98.3483Z" fill="#F9EAE0"/>
<path d="M62.621 83.5954L43.3349 64.3093L36.3458 71.2984L55.6319 90.5845C55.8556 90.8082 56.1591 90.934 56.4756 90.934H57.5408L62.9705 85.5043V84.439C62.9705 84.1228 62.8447 83.8193 62.621 83.5954Z" fill="#A0C8FF"/>
<path d="M62.6208 83.5954L43.3348 64.3093L41.6229 66.0212L61.5808 85.979C61.7444 86.1426 61.8549 86.3491 61.9028 86.5718L62.9702 85.5044V84.4391C62.9703 84.1228 62.8446 83.8193 62.6208 83.5954Z" fill="#91B2FA"/>
<path d="M62.9703 89.7408V84.4392C62.9703 84.2951 62.943 84.1542 62.8935 84.0217L56.058 90.8572C56.1904 90.9067 56.3314 90.934 56.4755 90.934H61.777C62.436 90.934 62.9703 90.3999 62.9703 89.7408Z" fill="#F9EAE0"/>
<path d="M36.8051 61.2742L33.3106 64.7688C32.3455 65.7338 32.3455 67.2983 33.3106 68.2633L36.8051 71.7579L43.7942 64.7688L40.2997 61.2742C39.3346 60.3093 37.7702 60.3093 36.8051 61.2742Z" fill="#EEC42E"/>
<path d="M36.8406 61.242C36.8522 61.2532 36.8647 61.2628 36.8761 61.2741L42.0823 66.4804L43.794 64.7687L40.2996 61.2741C39.3461 60.3206 37.808 60.311 36.8406 61.242Z" fill="#FFDD66"/>
<path d="M96.837 30.9023L49.8876 30.9023C47.1582 30.9023 44.9457 33.1149 44.9457 35.8443V43.2575H101.779V35.8442C101.779 33.1149 99.5664 30.9023 96.837 30.9023Z" fill="#06589C"/>
<path d="M96.8369 30.9023H93.4064C96.1358 30.9023 98.3483 33.1149 98.3483 35.8443V43.2575H101.779V35.8442C101.779 33.1149 99.5663 30.9023 96.8369 30.9023Z" fill="#1477C9"/>
<path d="M52.3586 33.3732C52.3586 34.738 53.4649 35.8443 54.8297 35.8443C56.1945 35.8443 57.3007 34.738 57.3007 33.3732V28.4313C57.3007 27.0665 56.1945 25.9602 54.8297 25.9602C53.4649 25.9602 52.3586 27.0665 52.3586 28.4313V33.3732Z" fill="#BDD3DD"/>
<path d="M89.4237 33.3732C89.4237 34.738 90.53 35.8443 91.8948 35.8443C93.2595 35.8443 94.3658 34.738 94.3658 33.3732V28.4313C94.3658 27.0665 93.2595 25.9602 91.8948 25.9602C90.53 25.9602 89.4237 27.0665 89.4237 28.4313V33.3732Z" fill="#BDD3DD"/>
<path d="M64.7136 33.3732C64.7136 34.738 65.8199 35.8443 67.1847 35.8443C68.5494 35.8443 69.6557 34.738 69.6557 33.3732V28.4313C69.6557 27.0665 68.5494 25.9602 67.1847 25.9602C65.8199 25.9602 64.7136 27.0665 64.7136 28.4313V33.3732Z" fill="#BDD3DD"/>
<path d="M77.0687 33.3732C77.0687 34.738 78.175 35.8443 79.5398 35.8443C80.9045 35.8443 82.0108 34.738 82.0108 33.3732V28.4313C82.0108 27.0665 80.9045 25.9602 79.5398 25.9602C78.175 25.9602 77.0687 27.0665 77.0687 28.4313V33.3732Z" fill="#BDD3DD"/>
<path d="M91.8949 25.9602C91.2281 25.9602 90.624 26.2256 90.1796 26.6548C90.6448 27.1042 90.9353 27.7332 90.9353 28.4313V33.3732C90.9353 34.0711 90.6448 34.7002 90.1796 35.1497C90.624 35.5789 91.2281 35.8443 91.8949 35.8443C93.2596 35.8443 94.3659 34.738 94.3659 33.3732V28.4313C94.3659 27.0665 93.2596 25.9602 91.8949 25.9602Z" fill="#ABC4D6"/>
<path d="M79.5399 25.9602C78.873 25.9602 78.2691 26.2256 77.8246 26.6548C78.2898 27.1042 78.5804 27.7332 78.5804 28.4313V33.3732C78.5804 34.0711 78.2898 34.7002 77.8246 35.1497C78.2691 35.5789 78.873 35.8443 79.5399 35.8443C80.9046 35.8443 82.0109 34.738 82.0109 33.3732V28.4313C82.0109 27.0665 80.9046 25.9602 79.5399 25.9602Z" fill="#ABC4D6"/>
<path d="M67.1849 25.9602C66.5182 25.9602 65.9141 26.2256 65.4696 26.6548C65.9348 27.1042 66.2254 27.7332 66.2254 28.4313V33.3732C66.2254 34.0711 65.935 34.7002 65.4696 35.1497C65.9141 35.5789 66.5182 35.8443 67.1849 35.8443C68.5497 35.8443 69.6559 34.738 69.6559 33.3732V28.4313C69.6559 27.0665 68.5495 25.9602 67.1849 25.9602Z" fill="#ABC4D6"/>
<path d="M54.8298 25.9602C54.1629 25.9602 53.559 26.2256 53.1145 26.6548C53.5797 27.1042 53.8703 27.7332 53.8703 28.4313V33.3732C53.8703 34.0711 53.5799 34.7002 53.1145 35.1497C53.559 35.5789 54.1629 35.8443 54.8298 35.8443C56.1946 35.8443 57.3008 34.738 57.3008 33.3732V28.4313C57.3008 27.0665 56.1946 25.9602 54.8298 25.9602Z" fill="#ABC4D6"/>
<path d="M96.8369 29.7837H95.4845V28.4313C95.4845 26.4518 93.8743 24.8416 91.8948 24.8416C89.9154 24.8416 88.3051 26.4518 88.3051 28.4313V29.7837H83.1294V28.4313C83.1296 26.4518 81.5191 24.8416 79.5399 24.8416C77.5606 24.8416 75.9501 26.4518 75.9501 28.4313V29.7837L70.7745 29.7837V28.4313C70.7745 26.4518 69.1642 24.8416 67.1847 24.8416C65.2053 24.8416 63.595 26.4518 63.595 28.4313V29.7837H58.4193V28.4313C58.4195 26.4518 56.8091 24.8416 54.8298 24.8416C52.8503 24.8416 51.2401 26.4518 51.2401 28.4313V29.7837H49.8875C46.5457 29.7837 43.8271 32.5025 43.8271 35.8441V63.2196L41.0907 60.4832C39.691 59.0835 37.4138 59.0835 36.0142 60.4832L32.5196 63.9778C31.1199 65.3773 31.1199 67.6547 32.5196 69.0543L43.8271 80.3617V95.1483C43.8271 98.4902 46.5458 101.209 49.8875 101.209H87.9422C88.56 101.209 89.0609 100.708 89.0609 100.09C89.0609 99.4725 88.56 98.9716 87.9422 98.9716H49.8875C47.7794 98.9716 46.0644 97.2565 46.0644 95.1483V82.599L55.1903 91.7249C55.2168 91.7515 55.2446 91.7765 55.2734 91.8C55.2929 91.8159 55.3132 91.8301 55.3335 91.8446C55.343 91.8513 55.352 91.8589 55.3617 91.8653C55.3873 91.8824 55.4137 91.8977 55.4404 91.9124C55.4455 91.9153 55.4503 91.9185 55.4553 91.9212C55.4835 91.9363 55.5123 91.9494 55.5412 91.9618C55.5456 91.9636 55.5496 91.966 55.5541 91.9678C55.5823 91.9794 55.6109 91.9892 55.6397 91.9985C55.6457 92.0004 55.6513 92.0028 55.6573 92.0046C55.6844 92.0128 55.7119 92.0192 55.7393 92.0252C55.7475 92.027 55.7554 92.0295 55.7636 92.0312C55.7903 92.0364 55.8172 92.0398 55.8442 92.0431C55.8536 92.0443 55.8627 92.0462 55.8721 92.0471C55.9083 92.0507 55.9449 92.0525 55.9813 92.0525H62.5069L63.9266 93.4721C64.145 93.6905 64.4313 93.7998 64.7176 93.7998C65.0038 93.7998 65.2902 93.6905 65.5085 93.4721C65.9454 93.0353 65.9454 92.3269 65.5085 91.8901L64.0889 90.4705V83.9452C64.0889 83.9085 64.0871 83.8719 64.0835 83.8354C64.0828 83.8273 64.081 83.8196 64.0801 83.8115C64.0766 83.7832 64.0729 83.755 64.0674 83.7269C64.0659 83.7198 64.0638 83.7128 64.0622 83.7056C64.0559 83.6771 64.0492 83.6486 64.0408 83.6206C64.0394 83.6155 64.0373 83.6107 64.0356 83.6057C64.0262 83.576 64.0159 83.5465 64.004 83.5174C64.0027 83.5142 64.001 83.5113 63.9997 83.5081C63.9869 83.4778 63.973 83.4479 63.9575 83.4186C63.9554 83.4148 63.953 83.4113 63.9509 83.4075C63.9355 83.3794 63.9194 83.3518 63.9015 83.325C63.896 83.3166 63.8895 83.3089 63.8836 83.3007C63.8684 83.279 63.8532 83.2574 63.8364 83.2367C63.8128 83.2079 63.7879 83.1801 63.7613 83.1536L54.6353 74.0275H93.1303C93.7481 74.0275 94.2489 73.5267 94.2489 72.9089C94.2489 72.2911 93.7481 71.7902 93.1303 71.7902H53.5942C53.2656 71.7902 52.9709 71.9328 52.7662 72.1585L46.0642 65.4566V44.3759H100.66V52.0054C100.66 52.6232 101.161 53.124 101.779 53.124C102.397 53.124 102.897 52.6232 102.897 52.0054V35.8441C102.898 32.5023 100.179 29.7837 96.8369 29.7837ZM61.8517 89.8153H58.682L61.8517 86.6456V89.8153ZM38.3871 71.7578L40.2995 69.8454L57.8937 87.4396L55.9813 89.352L38.3871 71.7578ZM59.4758 85.8575L41.8816 68.2633L43.7942 66.3507L61.3884 83.9449L59.4758 85.8575ZM34.1015 65.5599L37.5961 62.0653C38.1234 61.538 38.9813 61.538 39.5086 62.0653L42.2121 64.7689L39.509 67.472C39.5089 67.4722 39.5087 67.4723 39.5087 67.4723C39.5086 67.4725 39.5084 67.4726 39.5084 67.4726L36.8051 70.1758L34.1017 67.4723C33.5743 66.9451 33.5743 66.0871 34.1015 65.5599ZM91.8948 27.0789C92.6406 27.0789 93.2472 27.6855 93.2472 28.4313V33.3732C93.2472 34.119 92.6406 34.7256 91.8948 34.7256C91.149 34.7256 90.5424 34.119 90.5424 33.3732V30.9038C90.5424 30.9034 90.5424 30.9029 90.5424 30.9023C90.5424 30.9017 90.5424 30.9014 90.5424 30.9008V28.4313C90.5426 27.6855 91.1492 27.0789 91.8948 27.0789ZM79.5399 27.0789C80.2856 27.0789 80.8922 27.6855 80.8922 28.4313V33.3732C80.8922 34.119 80.2856 34.7256 79.5399 34.7256C78.7941 34.7256 78.1875 34.119 78.1875 33.3732V30.9038C78.1875 30.9034 78.1875 30.9029 78.1875 30.9023C78.1875 30.9017 78.1875 30.9014 78.1875 30.9008V28.4313C78.1875 27.6855 78.7941 27.0789 79.5399 27.0789ZM65.8325 28.4313C65.8325 27.6855 66.4391 27.0789 67.1849 27.0789C67.9307 27.0789 68.5373 27.6855 68.5373 28.4313V30.9008V30.9023C68.5373 30.9023 68.5373 30.9032 68.5373 30.9038V33.3732C68.5373 34.119 67.9307 34.7256 67.1849 34.7256C66.4393 34.7256 65.8325 34.119 65.8325 33.3732V28.4313ZM54.8298 27.0789C55.5754 27.0789 56.1822 27.6855 56.1822 28.4313V30.9008C56.1822 30.9013 56.182 30.9017 56.182 30.9023C56.182 30.9029 56.1822 30.9032 56.1822 30.9038V33.3732C56.1822 34.119 55.5755 34.7256 54.8298 34.7256C54.084 34.7256 53.4774 34.119 53.4774 33.3732V30.9038C53.4774 30.9034 53.4775 30.9029 53.4775 30.9023C53.4775 30.9017 53.4774 30.9014 53.4774 30.9008V28.4313C53.4774 27.6855 54.084 27.0789 54.8298 27.0789ZM46.0644 42.1386V35.8441C46.0644 33.736 47.7795 32.021 49.8875 32.021H51.2401V33.3732C51.2401 35.3527 52.8503 36.9629 54.8298 36.9629C56.8091 36.9629 58.4195 35.3527 58.4195 33.3732V32.021H63.5952V33.3732C63.5952 35.3527 65.2054 36.9629 67.1849 36.9629C69.1643 36.9629 70.7746 35.3527 70.7746 33.3732V32.021H75.9503V33.3732C75.9503 35.3527 77.5606 36.9629 79.54 36.9629C81.5194 36.9629 83.1297 35.3527 83.1297 33.3732V32.021H88.3054V33.3732C88.3054 35.3527 89.9157 36.9629 91.8951 36.9629C93.8745 36.9629 95.4848 35.3527 95.4848 33.3732V32.021H96.8372C98.9454 32.021 100.661 33.7361 100.661 35.8441V42.1386H46.0644Z" fill="#044072"/>
<path d="M101.779 55.3616C101.161 55.3616 100.66 55.8624 100.66 56.4802V95.1484C100.66 97.2566 98.9451 98.9717 96.8369 98.9717H92.4169C91.7991 98.9717 91.2982 99.4726 91.2982 100.09C91.2982 100.708 91.7991 101.209 92.4169 101.209H96.8369C100.179 101.209 102.898 98.4902 102.898 95.1484V56.4802C102.898 55.8624 102.397 55.3616 101.779 55.3616Z" fill="#044072"/>
<path d="M53.5941 51.7891H93.1302C93.748 51.7891 94.2489 51.2882 94.2489 50.6704C94.2489 50.0526 93.748 49.5518 93.1302 49.5518H53.5941C52.9763 49.5518 52.4755 50.0526 52.4755 50.6704C52.4755 51.2882 52.9763 51.7891 53.5941 51.7891Z" fill="#044072"/>
<path d="M53.5941 59.2019H93.1302C93.748 59.2019 94.2489 58.7011 94.2489 58.0833C94.2489 57.4655 93.748 56.9646 93.1302 56.9646H53.5941C52.9763 56.9646 52.4755 57.4655 52.4755 58.0833C52.4755 58.7011 52.9763 59.2019 53.5941 59.2019Z" fill="#044072"/>
<path d="M53.5941 66.615H93.1302C93.748 66.615 94.2489 66.1142 94.2489 65.4963C94.2489 64.8785 93.748 64.3777 93.1302 64.3777H53.5941C52.9763 64.3777 52.4755 64.8785 52.4755 65.4963C52.4755 66.1142 52.9763 66.615 53.5941 66.615Z" fill="#044072"/>
<path d="M94.2491 80.3223C94.2491 79.7045 93.7483 79.2036 93.1305 79.2036H67.1849C66.5671 79.2036 66.0663 79.7045 66.0663 80.3223C66.0663 80.9401 66.5671 81.4409 67.1849 81.4409H93.1305C93.7483 81.4409 94.2491 80.9401 94.2491 80.3223Z" fill="#044072"/>
</g>
<defs>
<clipPath id="clip0_5423_125">
<rect width="76.3674" height="76.3674" fill="white" transform="translate(29 24.8416)"/>
</clipPath>
</defs>
</svg>
