<svg width="139" height="119" viewBox="0 0 139 119" fill="none" xmlns="http://www.w3.org/2000/svg">
<path d="M17.358 38.0834C22.4688 30.5064 28.7299 23.7078 36.1152 18.0596C56.1609 2.74118 83.4969 -1.71336 103.569 16.1048C114.906 26.1729 125.084 39.5625 128.345 54.6474C131.553 69.4987 125.448 91.4687 108.109 94.2365C96.7108 96.0616 84.9238 92.0482 73.7334 95.7502C61.0037 99.9626 50.6436 109.278 37.6977 113.214C28.0294 116.155 15.8878 115.869 8.23444 108.465C1.57558 102.021 -0.0415682 91.8146 1.08266 82.6115C3.02843 66.7568 8.46794 51.2481 17.358 38.0834Z" fill="#F2EACD"/>
<path d="M19.615 20.2998C24.969 20.2998 29.3093 15.9587 29.3093 10.6037C29.3093 5.2486 24.969 0.907471 19.615 0.907471C14.261 0.907471 9.92078 5.2486 9.92078 10.6037C9.92078 15.9587 14.261 20.2998 19.615 20.2998Z" fill="#F2EACD"/>
<path d="M132.366 33.1965C135.552 33.1965 138.134 30.6135 138.134 27.4272C138.134 24.241 135.552 21.658 132.366 21.658C129.18 21.658 126.598 24.241 126.598 27.4272C126.598 30.6135 129.18 33.1965 132.366 33.1965Z" fill="#F2EACD"/>
<path d="M69.0205 114.935C69.0205 117.167 67.2131 118.974 64.9819 118.974C62.7508 118.974 60.9434 117.167 60.9434 114.935C60.9434 112.704 62.7508 110.896 64.9819 110.896C67.2131 110.896 69.0205 112.704 69.0205 114.935Z" fill="#F2EACD"/>
<g clip-path="url(#clip0_5423_126)">
<path d="M47.8056 84.1649H38.7429V68.3035C38.7429 67.4479 39.4393 66.7527 40.2963 66.7527H46.2543C47.1113 66.7527 47.8077 67.4479 47.8077 68.3035L47.8056 84.1649Z" fill="#F3C729"/>
<path d="M67.0477 84.1649H57.9829V54.1799C57.9829 53.3243 58.6792 52.6292 59.5363 52.6292H65.4943C66.3513 52.6292 67.0477 53.3243 67.0477 54.1799V84.1649Z" fill="#34C872"/>
<path d="M86.2877 84.1649H77.2229V40.0564C77.2229 39.2008 77.9192 38.5056 78.7763 38.5056H84.7343C85.5913 38.5056 86.2877 39.2008 86.2877 40.0564V84.1649Z" fill="#FED066"/>
<path d="M105.53 84.1648H96.4648V25.9348C96.4648 25.0792 97.1612 24.384 98.0182 24.384H103.976C104.833 24.384 105.53 25.0792 105.53 25.9348V84.1648Z" fill="#FE5A4E"/>
<path d="M107.013 66.1005C107.013 78.1283 97.2459 87.8813 85.1959 87.8813C73.146 87.8813 63.3787 78.1303 63.3787 66.1005C63.3787 54.0708 73.146 44.3198 85.1959 44.3198C97.2459 44.3198 107.013 54.0708 107.013 66.1005Z" fill="#F3C729"/>
<path d="M101.605 66.1006C101.605 75.1481 94.2586 82.4824 85.1959 82.4824C76.1332 82.4824 68.7866 75.1481 68.7866 66.1006C68.7866 57.053 76.1332 49.7188 85.1959 49.7188C94.2586 49.7188 101.605 57.053 101.605 66.1006Z" fill="#F2F2F2"/>
<path d="M96.7986 54.5171C92.1653 49.8915 85.4491 48.6122 79.6621 50.6772C81.8768 51.4669 83.9576 52.7462 85.7314 54.5171C92.1406 60.9135 92.1406 71.2856 85.7314 77.684C83.9576 79.4549 81.8768 80.7342 79.6621 81.5239C85.4491 83.5889 92.1633 82.3096 96.7986 77.684C103.208 71.2856 103.208 60.9135 96.7986 54.5171Z" fill="#CDD6DF"/>
<path d="M121.066 98.4119L117.563 101.908C117.042 102.429 116.197 102.429 115.676 101.908L103.544 89.7963C103.023 89.2759 103.023 88.4327 103.544 87.9123L107.046 84.4159C107.567 83.8955 108.412 83.8955 108.933 84.4159L121.066 96.528C121.587 97.0483 121.587 97.8916 121.066 98.4119Z" fill="#F3C729"/>
<path d="M97.8926 78.7743C104.893 71.7856 104.893 60.416 97.8926 53.4272C94.5016 50.0419 89.9919 48.1785 85.1958 48.1785C80.3997 48.1785 75.892 50.0419 72.501 53.4272C69.1099 56.8126 67.2434 61.3127 67.2434 66.1008C67.2434 70.8888 69.112 75.3889 72.501 78.7743C75.892 82.1597 80.3997 84.0251 85.1958 84.0251C89.9919 84.0251 94.5016 82.1597 97.8926 78.7743ZM70.3337 66.1008C70.3337 62.1375 71.8788 58.4107 74.6868 55.6074C77.4948 52.804 81.2279 51.2615 85.1978 51.2615C89.1678 51.2615 92.9008 52.804 95.7089 55.6074C101.504 61.3929 101.504 70.8066 95.7089 76.5921C92.9029 79.3954 89.1699 80.938 85.1978 80.938C81.2279 80.938 77.4948 79.3934 74.6868 76.5921C71.8788 73.7909 70.3337 70.0641 70.3337 66.1008Z" fill="#044072"/>
<path d="M120.365 93.8438L119.912 93.1918L112.361 85.6539C113.027 85.4832 113.521 84.8806 113.521 84.1628C113.521 83.3113 112.829 82.6203 111.976 82.6203H108.875C108.593 82.5298 108.294 82.4804 107.99 82.4804C107.685 82.4804 107.386 82.5298 107.104 82.6203H107.077V74.307C108.049 71.7176 108.56 68.9472 108.56 66.0986C108.56 63.25 108.049 60.4796 107.077 57.8902V25.9349C107.077 24.2298 105.686 22.8416 103.978 22.8416H98.0204C96.3125 22.8416 94.9219 24.2298 94.9219 25.9349V44.8835C92.6928 43.8633 90.3071 43.2011 87.8349 42.9255V40.0563C87.8349 38.3513 86.4443 36.963 84.7364 36.963H78.7784C77.0705 36.963 75.6799 38.3513 75.6799 40.0563V44.7868C73.1046 45.9345 70.7334 47.5552 68.6773 49.6078C68.0799 50.2042 67.5195 50.8274 66.9962 51.4732C66.5492 51.2264 66.0382 51.0845 65.4923 51.0845H59.5343C57.8264 51.0845 56.4358 52.4728 56.4358 54.1778V82.6203H49.3488V68.2993C49.3488 66.5943 47.9582 65.206 46.2503 65.206H40.2964C38.5885 65.206 37.1979 66.5943 37.1979 68.2993V82.6203H31.862C30.8855 82.6203 30.0903 81.8264 30.0903 80.8535V59.7028C30.0903 58.8513 29.398 58.1602 28.5451 58.1602C27.6922 58.1602 27 58.8513 27 59.7028V80.8535C27 83.5293 29.1817 85.7054 31.862 85.7054H72.534C76.2752 88.1241 80.6346 89.4219 85.1979 89.4219C89.7591 89.4219 94.1205 88.1241 97.8617 85.7054H102.652L103.107 86.1619L102.448 86.8201C101.904 87.3631 101.605 88.085 101.605 88.8542C101.605 89.6214 101.906 90.3433 102.448 90.8862L112.334 100.756H112.302L115.175 103.278L117.604 103.842C120.579 103.842 123 101.425 123 98.455L120.365 93.8438ZM103.985 82.6223H103.931L102.771 81.4644C103.198 80.979 103.603 80.4813 103.985 79.9692V82.6223ZM98.0204 25.9266L103.987 25.9349V52.2322C103.303 51.3107 102.545 50.4346 101.716 49.6098C100.573 48.4683 99.3327 47.4606 98.0121 46.5947L98.0204 25.9266ZM78.7784 40.0481L84.7446 40.0563V42.7836C82.6989 42.8226 80.6964 43.1209 78.7742 43.668L78.7784 40.0481ZM59.5363 54.1716L65.1091 54.1758C62.9748 57.7462 61.8355 61.835 61.8355 66.1007C61.8355 70.6213 63.1149 74.9425 65.5026 78.659V82.6223H59.5281L59.5363 54.1716ZM40.2964 68.2952L46.2626 68.3034V82.6223H40.2881L40.2964 68.2952ZM68.5929 82.6223V82.5051C68.6217 82.5339 68.6485 82.5647 68.6773 82.5915C68.6876 82.6018 68.6979 82.612 68.7082 82.6203H68.5929V82.6223ZM70.8632 80.4113C67.0333 76.5879 64.9257 71.5078 64.9257 66.1007C64.9257 60.6956 67.0354 55.6134 70.8632 51.792C74.693 47.9686 79.7817 45.8645 85.1958 45.8645C90.6099 45.8645 95.7006 47.9686 99.5305 51.792C103.358 55.6134 105.468 60.6956 105.468 66.1007C105.468 68.614 105.011 71.0574 104.139 73.3383C104.104 73.4103 104.073 73.4843 104.051 73.5625C103.045 76.0984 101.521 78.4245 99.5305 80.4113C98.6096 81.3286 97.6187 82.1472 96.5659 82.8609C96.5329 82.8815 96.502 82.9041 96.4711 82.9267C93.1625 85.1459 89.2708 86.3388 85.1958 86.3388C79.7817 86.3388 74.693 84.2327 70.8632 80.4113ZM107.936 85.7074H108.043L119.825 97.4698L116.618 100.67L104.782 88.8542L107.936 85.7074Z" fill="#044072"/>
</g>
<defs>
<clipPath id="clip0_5423_126">
<rect width="96" height="81" fill="white" transform="translate(27 22.8416)"/>
</clipPath>
</defs>
</svg>
