<svg width="139" height="119" viewBox="0 0 139 119" fill="none" xmlns="http://www.w3.org/2000/svg">
<path d="M17.3578 38.0834C22.4687 30.5064 28.7298 23.7078 36.1151 18.0596C56.1608 2.74118 83.4967 -1.71336 103.568 16.1048C114.906 26.1729 125.084 39.5625 128.345 54.6474C131.553 69.4987 125.448 91.4687 108.109 94.2365C96.7107 96.0616 84.9236 92.0482 73.7333 95.7502C61.0036 99.9626 50.6435 109.278 37.6976 113.214C28.0293 116.155 15.8877 115.869 8.23432 108.465C1.57546 102.021 -0.0416902 91.8146 1.08253 82.6115C3.0283 66.7568 8.46782 51.2481 17.3578 38.0834Z" fill="#F7E7E6"/>
<path d="M19.6149 20.2998C24.9689 20.2998 29.3092 15.9587 29.3092 10.6037C29.3092 5.2486 24.9689 0.907471 19.6149 0.907471C14.2609 0.907471 9.92065 5.2486 9.92065 10.6037C9.92065 15.9587 14.2609 20.2998 19.6149 20.2998Z" fill="#F7E7E6"/>
<path d="M132.366 33.1965C135.551 33.1965 138.134 30.6135 138.134 27.4272C138.134 24.241 135.551 21.658 132.366 21.658C129.18 21.658 126.598 24.241 126.598 27.4272C126.598 30.6135 129.18 33.1965 132.366 33.1965Z" fill="#F7E7E6"/>
<path d="M69.0202 114.935C69.0202 117.167 67.2128 118.974 64.9817 118.974C62.7505 118.974 60.9431 117.167 60.9431 114.935C60.9431 112.704 62.7505 110.896 64.9817 110.896C67.2128 110.896 69.0202 112.704 69.0202 114.935Z" fill="#F7E7E6"/>
<path d="M84.0662 33.1885C87.5612 39.0405 89.1158 46.1099 88.2112 52.9004C87.9209 55.0775 85.4246 73.7931 85.0891 76.3084H63.9085C63.5769 73.8225 61.1663 55.7493 60.7863 52.9004C59.8818 46.1099 61.4364 39.0405 64.9313 33.1885H84.0662Z" fill="#EEFAFF"/>
<path d="M74.4988 56.8556C78.08 56.8556 80.983 53.9525 80.983 50.3714C80.983 46.7903 78.08 43.8872 74.4988 43.8872C70.9177 43.8872 68.0146 46.7903 68.0146 50.3714C68.0146 53.9525 70.9177 56.8556 74.4988 56.8556Z" fill="#91DEF5"/>
<path d="M54.1337 90.2769C54.1385 90.2866 54.1418 90.2979 54.145 90.3077C54.3379 90.2898 54.5243 90.2493 54.7221 90.2493C58.303 90.2493 61.2063 93.1526 61.2063 96.7335C64.7872 96.7335 68.0147 93.8302 68.0147 90.2493V82.7925H80.9831V90.2493C80.9831 93.8302 84.2106 96.7335 87.7915 96.7335C87.7915 93.1526 90.6948 90.2493 94.2757 90.2493C94.4734 90.2493 94.6599 90.2898 94.8528 90.3077C94.856 90.2979 94.8592 90.2866 94.8641 90.2769C96.3441 86.08 100.894 83.1815 105.738 83.8656C110.52 84.54 114.459 89.3318 114.377 93.6535C114.278 98.7468 109.758 103.218 104.326 103.218H44.6716C39.0968 103.218 34.6211 98.5523 34.6211 93.4914C34.6211 89.2199 38.5392 84.5319 43.2597 83.8656C48.1034 83.1815 52.6536 86.08 54.1337 90.2769Z" fill="#F3C729"/>
<path d="M96.3392 70.4483C96.8903 71.0919 97.1935 71.9105 97.1935 72.7583C97.1935 74.7198 95.6049 76.3084 93.6434 76.3084H85.0891L87.4672 60.0979L96.3392 70.4483Z" fill="#FE5A4E"/>
<path d="M85.0891 76.3083L84.225 82.7925C80.2695 82.7925 69.3834 82.7925 64.7725 82.7925L63.9084 76.3083H85.0891Z" fill="#FE5A4E"/>
<path d="M84.0662 33.1884H64.9314C67.29 29.2363 70.5337 25.8419 74.4988 23.4622C78.4639 25.8419 81.7076 29.2363 84.0662 33.1884Z" fill="#FE5A4E"/>
<path d="M63.9086 76.3084H55.3543C53.3928 76.3084 51.8042 74.7198 51.8042 72.7583C51.8042 71.9105 52.1073 71.0919 52.6585 70.4483L61.5305 60.0979L63.9086 76.3084Z" fill="#FE5A4E"/>
<path d="M74.4988 58.4766C78.968 58.4766 82.604 54.8406 82.604 50.3714C82.604 45.9021 78.968 42.2661 74.4988 42.2661C70.0296 42.2661 66.3936 45.9021 66.3936 50.3714C66.3936 54.8406 70.0296 58.4766 74.4988 58.4766ZM74.4988 45.5082C77.1803 45.5082 79.3619 47.6898 79.3619 50.3714C79.3619 53.0529 77.1803 55.2345 74.4988 55.2345C71.8173 55.2345 69.6357 53.0529 69.6357 50.3714C69.6357 47.6898 71.8173 45.5082 74.4988 45.5082Z" fill="#044072"/>
<path d="M62.6211 94.9128C61.8274 91.4694 58.8338 88.8576 55.2059 88.643C53.09 84.2694 48.1464 81.5387 43.0332 82.2609C37.6884 83.0153 33 88.2633 33 93.4918C33 99.3647 38.1167 104.839 44.6715 104.839H67.2041C68.0993 104.839 68.8252 104.113 68.8252 103.218C68.8252 102.323 68.0993 101.597 67.2041 101.597H44.6715C40.1811 101.597 36.2421 97.8097 36.2421 93.4918C36.2421 89.8946 39.7627 85.9968 43.4862 85.4712C46.7786 85.006 50.0659 86.5466 51.7914 89.1794C50.7487 89.5841 49.7913 90.2022 48.9905 91.0043C48.358 91.6378 48.3588 92.6643 48.9923 93.297C49.3087 93.6129 49.7232 93.7708 50.1376 93.7708C50.5529 93.7708 50.968 93.6121 51.2846 93.2952C52.1023 92.4762 53.171 91.9256 54.7219 91.871C57.4034 91.871 59.585 94.0526 59.585 96.7341C59.585 97.6294 60.3109 98.3551 61.2061 98.3551C65.7753 98.3551 69.6355 94.6434 69.6355 90.2499V84.4141H79.3618V90.2499C79.3618 94.6434 83.222 98.3551 87.7913 98.3551C88.6864 98.3551 89.4123 97.6294 89.4123 96.7341C89.4123 94.0526 91.5939 91.871 94.2724 91.871C95.7342 91.9163 96.8498 92.431 97.7127 93.2952C98.3427 93.9261 99.3688 93.9321 100.005 93.297C100.639 92.6645 100.64 91.638 100.007 91.0043C99.2062 90.2022 98.2488 89.5841 97.206 89.1794C98.9311 86.5469 102.218 85.0065 105.512 85.4712C109.305 86.0062 112.826 89.9677 112.756 93.6225C112.672 97.9452 108.811 101.597 104.326 101.597H81.7935C80.8984 101.597 80.1725 102.323 80.1725 103.218C80.1725 104.113 80.8984 104.839 81.7935 104.839H104.326C110.535 104.839 115.88 99.7314 115.997 93.6849C116.099 88.3672 111.411 83.0289 105.965 82.2609C100.849 81.5389 95.907 84.2708 93.7917 88.643C90.1638 88.8574 87.1702 91.4694 86.3766 94.9128C84.2507 94.3038 82.6041 92.3848 82.6041 90.2497V84.414H84.2251C85.0378 84.414 85.7246 83.8124 85.8319 83.0071L86.509 77.9298H93.6434C96.4948 77.9298 98.8146 75.6101 98.8146 72.7586C98.8146 71.5258 98.3727 70.331 97.5701 69.3937L88.9831 59.3757L89.8179 53.1148C91.468 40.7301 85.4424 28.1401 75.333 22.0727C74.8195 21.7645 74.178 21.7645 73.6645 22.0727C63.5529 28.1414 57.53 40.7327 59.1796 53.1153L60.0144 59.3759L51.4271 69.3943C50.625 70.3311 50.1831 71.5258 50.1831 72.7586C50.1831 75.6101 52.503 77.9298 55.3543 77.9298H62.4886L63.1658 83.0071C63.2731 83.8124 63.9599 84.414 64.7725 84.414H66.3936V90.2497C66.3936 92.3848 64.7469 94.3038 62.6211 94.9128ZM95.108 71.5031C95.4076 71.853 95.5725 72.2987 95.5725 72.7588C95.5725 73.8225 94.707 74.6878 93.6434 74.6878H86.9414L88.4082 63.6871L95.108 71.5031ZM74.4988 25.3769C76.9682 27 79.1828 29.1035 81.0297 31.5678H67.968C69.8147 29.1035 72.0295 27 74.4988 25.3769ZM65.8697 34.8099H83.1282C86.1801 40.2958 87.4142 46.6077 86.6045 52.6865L83.6701 74.6877H65.3273L62.3933 52.6868C61.5835 46.6079 62.8176 40.2962 65.8697 34.8099ZM55.3543 74.6877C54.2905 74.6877 53.4252 73.8224 53.4252 72.7586C53.4252 72.2987 53.5902 71.8528 53.8892 71.5036L60.5894 63.6871L62.0563 74.6877H55.3543ZM65.7596 77.9298H83.2379L82.8059 81.1719H66.1919L65.7596 77.9298Z" fill="#044072"/>
<path d="M74.499 104.839C75.3943 104.839 76.1201 104.113 76.1201 103.218C76.1201 102.322 75.3943 101.597 74.499 101.597C73.6037 101.597 72.8779 102.322 72.8779 103.218C72.8779 104.113 73.6037 104.839 74.499 104.839Z" fill="#044072"/>
</svg>
