<svg width="139" height="119" viewBox="0 0 139 119" fill="none" xmlns="http://www.w3.org/2000/svg">
<path d="M17.358 38.0834C22.4688 30.5064 28.7299 23.7078 36.1152 18.0596C56.1609 2.74118 83.4969 -1.71336 103.569 16.1048C114.906 26.1729 125.084 39.5625 128.345 54.6474C131.553 69.4987 125.448 91.4687 108.109 94.2365C96.7108 96.0616 84.9238 92.0482 73.7334 95.7502C61.0037 99.9626 50.6436 109.278 37.6977 113.214C28.0294 116.155 15.8878 115.869 8.23444 108.465C1.57558 102.021 -0.0415682 91.8146 1.08266 82.6115C3.02843 66.7568 8.46794 51.2481 17.358 38.0834Z" fill="#E4F4EB"/>
<path d="M19.615 20.2998C24.969 20.2998 29.3093 15.9587 29.3093 10.6037C29.3093 5.2486 24.969 0.907471 19.615 0.907471C14.261 0.907471 9.92078 5.2486 9.92078 10.6037C9.92078 15.9587 14.261 20.2998 19.615 20.2998Z" fill="#E4F4EB"/>
<path d="M132.366 33.1965C135.552 33.1965 138.134 30.6135 138.134 27.4272C138.134 24.241 135.552 21.658 132.366 21.658C129.18 21.658 126.598 24.241 126.598 27.4272C126.598 30.6135 129.18 33.1965 132.366 33.1965Z" fill="#E4F4EB"/>
<path d="M69.0203 114.935C69.0203 117.167 67.2129 118.974 64.9818 118.974C62.7506 118.974 60.9432 117.167 60.9432 114.935C60.9432 112.704 62.7506 110.896 64.9818 110.896C67.2129 110.896 69.0203 112.704 69.0203 114.935Z" fill="#CAEDD9"/>
<g clip-path="url(#clip0_5421_115)">
<path d="M75.0845 96.9751V99.098C75.0845 99.2844 75.0745 99.4709 75.0545 99.6524C74.7781 102.15 72.6602 104.093 70.0895 104.093H62.4305C59.8598 104.093 57.7419 102.15 57.4655 99.6524C57.4455 99.4709 57.4355 99.2844 57.4355 99.098V96.9751C58.0965 97.2698 58.8291 97.433 59.6 97.433H72.92C73.6909 97.433 74.4235 97.2698 75.0845 96.9751Z" fill="#50758D"/>
<path d="M66.0103 31.2045C65.3205 31.2045 64.7616 30.6456 64.7616 29.9558V21.5371C64.7616 20.8473 65.3205 20.2883 66.0103 20.2883C66.7002 20.2883 67.2591 20.8473 67.2591 21.5371V29.9558C67.2591 30.6456 66.7 31.2045 66.0103 31.2045Z" fill="#FFE7C9"/>
<path d="M43.5953 40.4893C43.2756 40.4893 42.9561 40.3674 42.7122 40.1237L36.7592 34.1705C36.2715 33.6827 36.2715 32.8921 36.7592 32.4045C37.2472 31.9168 38.0377 31.9171 38.5252 32.4045L44.4783 38.3576C44.9659 38.8455 44.9659 39.636 44.4783 40.1237C44.2343 40.3674 43.9147 40.4893 43.5953 40.4893Z" fill="#FFE7C9"/>
<path d="M34.3106 62.9042H25.8917C25.2019 62.9042 24.6429 62.3453 24.6429 61.6555C24.6429 60.9657 25.2019 60.4067 25.8917 60.4067H34.3104C35.0002 60.4067 35.5591 60.9657 35.5591 61.6555C35.5591 62.3453 35.0002 62.9042 34.3106 62.9042Z" fill="#FFE7C9"/>
<path d="M37.6423 91.2724C37.3228 91.2724 37.0031 91.1505 36.7592 90.9067C36.2715 90.4189 36.2715 89.6283 36.7592 89.1407L42.7122 83.1877C43.2 82.7001 43.9906 82.7001 44.4783 83.1877C44.9659 83.6755 44.9659 84.466 44.4783 84.9537L38.5252 90.9067C38.2813 91.1505 37.9618 91.2724 37.6423 91.2724Z" fill="#FFE7C9"/>
<path d="M94.3783 91.2724C94.0588 91.2724 93.7391 91.1505 93.4952 90.9067L87.5421 84.9537C87.0545 84.4659 87.0545 83.6753 87.5421 83.1877C88.03 82.7001 88.8205 82.7001 89.3082 83.1877L95.2612 89.1407C95.7489 89.6285 95.7489 90.419 95.2612 90.9067C95.0175 91.1505 94.6978 91.2724 94.3783 91.2724Z" fill="#FFE7C9"/>
<path d="M106.129 62.9042H97.7102C97.0204 62.9042 96.4614 62.3453 96.4614 61.6555C96.4614 60.9657 97.0204 60.4067 97.7102 60.4067H106.129C106.819 60.4067 107.378 60.9657 107.378 61.6555C107.378 62.3453 106.818 62.9042 106.129 62.9042Z" fill="#FFE7C9"/>
<path d="M88.4253 40.4893C88.1057 40.4893 87.7861 40.3674 87.5421 40.1237C87.0545 39.6358 87.0545 38.8453 87.5421 38.3576L93.4952 32.4045C93.983 31.9169 94.7735 31.9169 95.2612 32.4045C95.7489 32.8923 95.7489 33.6828 95.2612 34.1705L89.3082 40.1237C89.0644 40.3674 88.7448 40.4893 88.4253 40.4893Z" fill="#FFE7C9"/>
<path d="M66.26 95.7678C66.26 95.7678 58.0965 97.2696 57.4355 96.9749V99.0978C57.4355 99.2843 57.4455 99.4708 57.4655 99.6522C57.7419 102.15 59.8598 104.093 62.4305 104.093H64.595C62.423 104.093 60.5747 102.706 59.8867 100.769C59.7704 100.442 60.0088 100.097 60.3563 100.097H72.92C73.6792 100.097 74.4018 99.9386 75.0545 99.6522C75.0745 99.4708 75.0845 99.2843 75.0845 99.0978V96.9749C74.4235 97.2696 66.26 95.7678 66.26 95.7678Z" fill="#2B597F"/>
<path d="M78.2479 92.1049C78.2479 94.2761 76.9476 96.1459 75.0845 96.975C74.4235 97.2697 73.6909 97.4329 72.92 97.4329H59.6C58.8292 97.4329 58.0966 97.2697 57.4356 96.975C55.5724 96.1459 54.2721 94.2761 54.2721 92.1049C54.2721 92.1049 54.1938 84.3228 54.1788 84.1196V84.113L66.26 82.448L78.203 84.113L78.2479 92.1049Z" fill="#50758D"/>
<path d="M63.7625 97.433H59.6C58.8292 97.433 58.0966 97.2698 57.4356 96.9751C55.5724 96.1459 54.2721 94.2761 54.2721 92.105C54.2721 92.105 54.1938 84.3228 54.1788 84.1197V84.113H58.3413V84.1197C58.3563 84.3228 58.4346 92.105 58.4346 92.105C58.4346 94.2761 59.7349 96.1459 61.598 96.9751C62.2589 97.2698 62.9915 97.433 63.7625 97.433Z" fill="#2B597F"/>
<path d="M78.248 92.0217H74.0023C73.313 92.0217 72.7535 91.4622 72.7535 90.7729C72.7535 90.0836 73.313 89.5242 74.0023 89.5242H78.2347L78.2414 90.7729L78.248 92.0217Z" fill="#2B597F"/>
<path d="M69.4236 90.7729C69.4236 91.4622 68.8641 92.0217 68.1748 92.0217H54.2705L54.2422 89.5242H68.1748C68.8641 89.5242 69.4236 90.0836 69.4236 90.7729Z" fill="#2B597F"/>
<path d="M66.032 35.3571C66.0318 35.3571 66.0316 35.3571 66.0315 35.3571L66.032 35.3566C53.1731 35.1588 42.3593 46.3662 42.5906 59.1315C42.5906 65.6433 45.1696 71.5457 49.3488 75.8397C51.8113 78.3721 53.9425 80.7131 54.1789 84.113L78.2031 84.153C78.3379 80.6532 80.3276 78.2889 82.8068 75.6998C86.906 71.4191 89.4301 65.575 89.4301 59.1315C89.4299 46.008 78.9573 35.3687 66.032 35.3571Z" fill="#34C872"/>
<path d="M78.2028 84.1463V84.153L54.1787 84.113C53.9422 80.7131 51.811 78.3721 49.3485 75.8397C45.1694 71.5457 42.5903 65.6433 42.5903 59.1315C42.3589 46.366 53.173 35.1589 66.0317 35.3571C66.6811 35.3571 67.3238 35.3854 67.9598 35.437C56.1084 36.476 46.5347 47.1136 46.7528 59.1315C46.7528 65.6433 49.3319 71.5457 53.511 75.8397C55.9735 78.3721 58.1047 80.7131 58.3411 84.113L78.2028 84.1463Z" fill="#119A4B"/>
<path d="M66.5982 71.0312C66.0999 71.673 65.343 72.0615 64.5309 72.0916C64.4966 72.093 64.4623 72.0936 64.4282 72.0936C63.6532 72.0936 62.9122 71.7658 62.3903 71.1884L54.5648 62.5306C53.5475 61.4049 53.6352 59.6678 54.7609 58.6503C55.8865 57.6328 57.6234 57.7206 58.6412 58.8463L64.2689 65.0725L73.2477 53.509C74.1781 52.3107 75.904 52.0934 77.1023 53.024C78.3008 53.9545 78.5179 55.6805 77.5873 56.8788L66.5982 71.0312Z" fill="#EEC42E"/>
<path d="M66.0103 31.2045C66.7002 31.2045 67.2591 30.6456 67.2591 29.9558V21.5371C67.2591 20.8473 66.7002 20.2883 66.0103 20.2883C65.3205 20.2883 64.7616 20.8473 64.7616 21.5371V29.9558C64.7616 30.6456 65.3205 31.2045 66.0103 31.2045Z" fill="#044072"/>
<path d="M42.7122 40.1237C43.2 40.6112 43.9904 40.6112 44.4783 40.1237C44.9659 39.6358 44.9659 38.8453 44.4783 38.3576L38.5252 32.4045C38.0376 31.9171 37.247 31.9168 36.7592 32.4045C36.2715 32.8923 36.2715 33.6828 36.7592 34.1705L42.7122 40.1237Z" fill="#044072"/>
<path d="M34.3106 60.4067H25.8917C25.2019 60.4067 24.6429 60.9657 24.6429 61.6555C24.6429 62.3453 25.2019 62.9042 25.8917 62.9042H34.3104C35.0002 62.9042 35.5591 62.3453 35.5591 61.6555C35.5591 60.9657 35.0002 60.4067 34.3106 60.4067Z" fill="#044072"/>
<path d="M42.7122 83.1875L36.7592 89.1405C36.2715 89.6284 36.2715 90.4189 36.7592 90.9066C37.247 91.3941 38.0374 91.3941 38.5252 90.9066L44.4783 84.9536C44.9659 84.4657 44.9659 83.6752 44.4783 83.1875C43.9906 82.7002 43.2 82.7002 42.7122 83.1875Z" fill="#044072"/>
<path d="M89.3083 83.1874C88.8205 82.6999 88.0299 82.6999 87.5423 83.1874C87.0546 83.6753 87.0546 84.4658 87.5423 84.9535L93.4953 90.9065C93.9831 91.394 94.7735 91.394 95.2613 90.9065C95.749 90.4186 95.749 89.6281 95.2613 89.1404L89.3083 83.1874Z" fill="#044072"/>
<path d="M106.129 60.4067H97.7102C97.0204 60.4067 96.4614 60.9657 96.4614 61.6555C96.4614 62.3453 97.0204 62.9042 97.7102 62.9042H106.129C106.819 62.9042 107.378 62.3453 107.378 61.6555C107.378 60.9657 106.818 60.4067 106.129 60.4067Z" fill="#044072"/>
<path d="M93.4953 32.4045L87.5423 38.3576C87.0546 38.8455 87.0546 39.636 87.5423 40.1237C88.0301 40.6112 88.8205 40.6112 89.3083 40.1237L95.2613 34.1705C95.749 33.6827 95.749 32.8921 95.2613 32.4045C94.7735 31.9169 93.983 31.9169 93.4953 32.4045Z" fill="#044072"/>
<path d="M90.6793 59.1313C90.6793 45.3332 79.6129 34.1077 66.0104 34.1077C61.2455 34.1077 56.6208 35.4884 52.6365 38.1006C48.7601 40.6423 45.6699 44.2178 43.7 48.4407C43.4085 49.0658 43.6789 49.8089 44.3037 50.1004C44.9293 50.3923 45.6719 50.1216 45.9634 49.4967C49.6162 41.6654 57.4851 36.6052 66.0104 36.6052C78.2358 36.6052 88.1818 46.7103 88.1818 59.1313C88.1818 65.0311 85.9523 70.6088 81.9044 74.8367C79.5713 77.2734 77.5853 79.6017 77.0743 82.8641H55.273C54.6292 79.4774 52.319 77.1012 50.2431 74.9679C46.1134 70.7238 43.839 65.0995 43.839 59.1313C43.839 57.6576 43.9801 56.1838 44.258 54.7504C44.3893 54.0734 43.9469 53.4181 43.2698 53.2867C42.5928 53.1563 41.9375 53.5979 41.8061 54.275C41.4977 55.8646 41.3416 57.4985 41.3416 59.1313C41.3416 65.7538 43.8672 71.9967 48.4532 76.7096C51.0871 79.4163 52.9515 81.5767 52.9515 84.7434C52.9515 84.7544 52.9517 84.7657 52.952 84.7767L53.0236 92.1048C53.0236 94.4823 54.2919 96.569 56.1871 97.7245V99.0978C56.1871 102.541 58.988 105.342 62.4308 105.342H70.0898C73.5327 105.342 76.3335 102.541 76.3335 99.0978V97.7245C78.2288 96.569 79.497 94.4823 79.497 92.1048C79.497 92.1048 79.4882 83.942 79.4715 83.8606C79.7085 80.9665 81.4627 78.9094 83.7084 76.5638C88.2034 71.8687 90.6793 65.6776 90.6793 59.1313ZM73.8359 99.0978C73.8359 101.163 72.1552 102.844 70.0896 102.844H62.4307C60.3651 102.844 58.6844 101.163 58.6844 99.0978V98.6164C58.984 98.6584 59.2893 98.6815 59.6002 98.6815H72.9201C73.231 98.6815 73.5363 98.6582 73.8359 98.6164V99.0978ZM72.9201 96.1841H59.6002C57.3508 96.1841 55.521 94.3542 55.521 92.1048V92.0216H68.1749C68.8647 92.0216 69.4236 91.4626 69.4236 90.7728C69.4236 90.083 68.8647 89.5241 68.1749 89.5241H55.521V85.3616H76.9607L76.9993 89.5241H74.0024C73.3126 89.5241 72.7536 90.083 72.7536 90.7728C72.7536 91.4626 73.3126 92.0216 74.0024 92.0216H76.9993V92.1048C76.9993 94.3542 75.1694 96.1841 72.9201 96.1841Z" fill="#044072"/>
<path d="M74.1289 59.2967C73.706 59.8413 73.8047 60.6258 74.3493 61.0487C74.8938 61.4718 75.6783 61.3732 76.1014 60.8283L78.5736 57.6447C79.2282 56.8017 79.5153 55.7542 79.3821 54.6951C79.2487 53.636 78.7111 52.6923 77.8679 52.0376C77.025 51.383 75.9768 51.0943 74.9184 51.2293C73.8593 51.3625 72.9156 51.9001 72.2611 52.7433L64.196 63.1301L59.5674 58.0088C58.0897 56.3744 55.5577 56.2469 53.9235 57.7239C53.1317 58.4397 52.666 59.4209 52.612 60.487C52.5582 61.5529 52.9227 62.576 53.6383 63.3681L61.4639 72.026C63.0392 73.8532 66.1519 73.7411 67.5846 71.7973L72.5271 65.432C72.9501 64.8874 72.8513 64.1028 72.3067 63.6799C71.7621 63.257 70.9777 63.3554 70.5546 63.9004L65.6121 70.2656C65.0756 70.9946 63.905 71.037 63.3169 70.3514L55.4915 61.6934C54.9373 61.0804 54.9853 60.131 55.5985 59.5769C56.2112 59.0234 57.1608 59.0707 57.7149 59.6839L63.3426 65.9103C63.8331 66.4791 64.8081 66.4465 65.2553 65.8388L74.2341 54.2752C74.7148 53.6289 75.7114 53.5035 76.3366 54.0107C76.9832 54.4915 77.1084 55.4873 76.6012 56.1134L74.1289 59.2967Z" fill="#044072"/>
</g>
<defs>
<clipPath id="clip0_5421_115">
<rect width="85.0533" height="85.0533" fill="white" transform="translate(23.4836 20.2883)"/>
</clipPath>
</defs>
</svg>
